<svg width="20" height="20" viewBox="0 0 20 20" fill="none" xmlns="http://www.w3.org/2000/svg">
<path d="M5.5 13.6667C5.5 14.4416 5.5 14.8291 5.58519 15.147C5.81635 16.0098 6.49022 16.6836 7.35295 16.9148C7.67087 17 8.05836 17 8.83333 17H14C15.4001 17 16.1002 17 16.635 16.7275C17.1054 16.4878 17.4878 16.1054 17.7275 15.635C18 15.1002 18 14.4001 18 13V6C18 4.59987 18 3.8998 17.7275 3.36502C17.4878 2.89462 17.1054 2.51217 16.635 2.27248C16.1002 2 15.4001 2 14 2H8.83333C8.05836 2 7.67087 2 7.35295 2.08519C6.49022 2.31635 5.81635 2.99022 5.58518 3.85295C5.5 4.17087 5.5 4.55836 5.5 5.33333M10.5 6.16667L13.8333 9.5M13.8333 9.5L10.5 12.8333M13.8333 9.5H3" stroke="#545454" stroke-width="1.5" stroke-linecap="round" stroke-linejoin="round"/>
</svg>
