<svg width="244" height="48" viewBox="0 0 244 48" fill="none" xmlns="http://www.w3.org/2000/svg">
<path d="M11.7677 28.7848C10.1819 27.2468 10.1819 24.7532 11.7677 23.2152C13.3535 21.6772 15.9246 21.6772 17.5105 23.2152C19.0963 24.7532 19.0963 27.2468 17.5105 28.7848C15.9246 30.3228 13.3535 30.3228 11.7677 28.7848Z" fill="#B10FFC"/>
<path d="M21.5594 29.1895L10.8433 39.5826C10.0361 40.3654 10.0994 41.6959 10.9845 42.5544L13.5219 45.0153C14.4071 45.8737 15.7789 45.935 16.586 45.1522L27.3022 34.7592C28.1093 33.9764 28.0461 32.6459 27.161 31.7874L24.6236 29.3265C23.7384 28.4681 22.3666 28.4067 21.5594 29.1895Z" fill="#B10FFC"/>
<path d="M8.20423 29.1895L18.9204 39.5826C19.7275 40.3654 19.6643 41.6959 18.7792 42.5544L16.2417 45.0153C15.3566 45.8737 13.9848 45.935 13.1776 45.1522L2.46147 34.7592C1.65433 33.9764 1.71756 32.6459 2.60269 31.7874L5.1401 29.3265C6.02524 28.4681 7.39709 28.4067 8.20423 29.1895Z" fill="#8704C4"/>
<path d="M7.20423 22.8105L17.9204 12.4174C18.7275 11.6346 18.6643 10.3041 17.7792 9.44564L15.2417 6.98473C14.3566 6.12629 12.9848 6.06496 12.1776 6.84777L1.46147 17.2408C0.65433 18.0236 0.717559 19.3541 1.60269 20.2126L4.1401 22.6735C5.02524 23.5319 6.39709 23.5933 7.20423 22.8105Z" fill="#763EE6"/>
<path d="M20.1776 22.8105L9.46145 12.4174C8.65431 11.6346 8.71754 10.3041 9.60267 9.44564L12.1401 6.98473C13.0252 6.12629 14.3971 6.06496 15.2042 6.84777L25.9204 17.2408C26.7275 18.0236 26.6643 19.3541 25.7791 20.2126L23.2417 22.6735C22.3566 23.5319 20.9847 23.5933 20.1776 22.8105Z" fill="#393185"/>
<path d="M47.8255 23.2274C47.8255 23.6923 48.0033 23.7184 48.3867 23.7184H51.7541C52.1881 23.7184 52.3415 23.6923 52.3415 23.2274V7.61896C52.3415 6.0262 51.6269 5.77083 50.5289 5.77083H48.948C47.6721 5.77083 47.2626 6.20626 46.8303 7.10659L44.7876 11.3349L42.7972 15.4878H42.696L40.7056 11.2841L38.6646 7.02965C38.2306 6.12933 37.8733 5.77083 36.8014 5.77083H34.8371C33.5351 5.77083 33 6.20626 33 7.79739V23.2274C33 23.6923 33.2039 23.7184 33.5857 23.7184H37.1326C37.5405 23.7184 37.6938 23.6923 37.6938 23.2274V15.0262H37.8472L39.327 18.179L40.4756 20.4887C40.8834 21.3334 41.0629 21.615 41.9048 21.615H43.6146C44.3536 21.615 44.6604 21.3334 45.0438 20.4887L46.3702 17.6421L47.6721 14.7184H47.8255V23.2274ZM71.8119 14.7315C71.8119 9.12496 69.2341 5.51547 63.7229 5.51547C58.4401 5.51547 55.6583 9.15115 55.6583 14.7839C55.6583 20.5182 58.1089 24 63.6462 24C69.4641 24 71.8119 20.4674 71.8119 14.7315ZM66.733 14.7577C66.733 17.3687 66.069 19.6735 63.824 19.6735C61.5024 19.6735 60.7617 17.7272 60.7617 14.5777C60.7617 12.0175 61.7063 9.81576 63.6968 9.81576C66.0951 9.81576 66.6824 12.0698 66.733 14.7577ZM86.3045 13.4907V23.1766C86.3045 23.5908 86.3567 23.7184 86.918 23.7184H90.4127C90.8466 23.7184 91 23.54 91 23.1766V7.79739C91 6.20626 90.5415 5.77083 89.1368 5.77083H87.9377C86.7646 5.77083 86.4318 5.84777 85.7694 6.92816L82.247 12.5135L80.002 16.0509H79.8242V6.31267C79.8242 5.89852 79.772 5.77083 79.2107 5.77083H75.7161C75.2821 5.77083 75.1287 5.9509 75.1287 6.31267V21.6919C75.1287 22.8443 75.4599 23.7184 76.9903 23.7184H78.1911C79.3641 23.7184 79.6953 23.6153 80.3593 22.5628L83.8295 17.2836L86.1267 13.4907H86.3045ZM83.0138 5.23391C85.2082 5.23391 86.8919 4.10605 88.5511 1.90434C88.6523 1.77666 88.7795 1.62278 88.4483 1.31667L87.1219 0.13806C86.9424 -0.0158136 86.8658 -0.0927506 86.5346 0.188806C84.9014 1.87978 84.0596 1.98128 83.2177 1.98128C82.1719 1.98128 81.1245 1.39361 80.002 0.214998C79.7214 0.0103777 79.6953 -0.0927506 79.338 0.13806L77.9855 1.52129C77.6804 1.77666 77.8338 1.98128 77.9104 2.0844C79.0329 3.69681 80.7933 5.23391 83.0138 5.23391Z" fill="#B10FFC"/>
<path d="M37.8396 33.3238H45.0597C45.4182 33.3238 45.5476 33.1962 45.5476 32.7611V29.8703C45.5476 29.3076 45.4706 29.2568 45.0597 29.2568H34.6634C33.2554 29.2568 33 29.8196 33 30.9451V45.5035C33 46.7059 33.2554 47.1934 34.6634 47.1934H41.4496C45.0089 47.1934 47.6972 44.71 47.6972 41.4349C47.6972 39.7973 47.468 35.5242 41.0141 35.5242H37.8134C37.8396 34.6718 37.8396 34.595 37.8396 33.3238ZM42.7038 41.2304C42.7038 41.9469 42.3206 43.0217 40.9634 43.0217H37.8134V39.5421H40.9634C42.0898 39.5421 42.7038 40.2324 42.7038 41.2304ZM66.3402 38.212C66.3402 32.6073 63.7534 29 58.2212 29C52.9216 29 50.1301 32.6334 50.1301 38.2628C50.1301 43.9935 52.5892 47.4748 58.1459 47.4748C63.9842 47.4748 66.3402 43.9428 66.3402 38.212ZM61.2435 38.2366C61.2435 40.8476 60.5772 43.1493 58.3244 43.1493C55.9946 43.1493 55.2513 41.2058 55.2513 38.0583C55.2513 35.4996 56.1993 33.2993 58.1967 33.2993C60.6034 33.2993 61.1928 35.5503 61.2435 38.2366ZM74.5082 41.1028H77.0181C83.5211 41.1028 84.0843 36.6726 84.0843 35.0219C84.0843 31.7386 81.8577 29.2568 77.8367 29.2568H71.332C69.924 29.2568 69.6686 30.0241 69.6686 30.9451V46.6814C69.6686 47.0396 69.8225 47.1934 70.258 47.1934H73.8926C74.4558 47.1934 74.5082 47.0904 74.5082 46.6814V41.1028ZM79.0908 35.3589C79.0908 36.3651 78.4768 37.3155 77.2735 37.3155H74.5082V33.4269H77.2735C78.7846 33.4269 79.0908 34.6375 79.0908 35.3589ZM97.9891 36.9704V46.6503C97.9891 47.0642 98.0399 47.1934 98.6031 47.1934H102.112C102.547 47.1934 102.701 47.0135 102.701 46.6503V31.2822C102.701 29.6904 102.239 29.2568 100.831 29.2568H99.628C98.4508 29.2568 98.1168 29.3337 97.4521 30.4118L93.9174 35.9937L91.6646 39.529H91.4845V29.7983C91.4845 29.3844 91.4337 29.2568 90.8705 29.2568H87.362C86.9265 29.2568 86.7742 29.4352 86.7742 29.7983V45.1665C86.7742 46.3182 87.1066 47.1934 88.6423 47.1934H89.8456C91.0244 47.1934 91.3568 47.0904 92.0231 46.0368L95.5055 40.7625L97.8107 36.9704H97.9891ZM114.787 43.1493C112.176 43.1493 111.151 41.4349 111.151 38.2366C111.151 35.0138 112.636 33.2731 114.736 33.2731C115.99 33.2731 116.758 33.4269 118.115 33.862C118.731 34.0665 118.859 33.9897 119.089 33.35L119.985 31.2527C120.242 30.5362 120.267 30.4593 119.703 30.1517C118.218 29.3076 116.476 29.0262 114.505 29.0262C109.461 29.0262 106.029 32.7365 106.029 38.2366C106.029 43.5338 108.258 47.4748 114.327 47.4748C116.529 47.4748 118.577 47.0904 120.601 45.8618C120.958 45.6573 120.984 45.4266 120.753 44.9145L119.653 42.6128C119.422 42.05 119.268 42.0238 118.756 42.2283C117.655 42.6389 116.529 43.1493 114.787 43.1493ZM139.42 38.212C139.42 32.6073 136.835 29 131.303 29C126.003 29 123.212 32.6334 123.212 38.2628C123.212 43.9935 125.669 47.4748 131.226 47.4748C137.064 47.4748 139.42 43.9428 139.42 38.212ZM134.325 38.2366C134.325 40.8476 133.659 43.1493 131.406 43.1493C129.076 43.1493 128.333 41.2058 128.333 38.0583C128.333 35.4996 129.281 33.2993 131.279 33.2993C133.685 33.2993 134.273 35.5503 134.325 38.2366ZM147.588 34.7831C147.588 34.1173 147.769 33.3238 149.126 33.3238H155.45C155.809 33.3238 155.937 33.1962 155.937 32.7611V29.8703C155.937 29.3076 155.86 29.2568 155.45 29.2568H147.665C144.029 29.2568 142.749 31.6355 142.749 34.1173V46.6765C142.749 47.0396 142.903 47.1934 143.338 47.1934H146.974C147.538 47.1934 147.588 47.0904 147.588 46.6765V34.7831ZM161.878 29.2568C160.47 29.2568 160.239 29.8196 160.213 30.9451L160.008 35.2428C159.701 41.3203 159.291 42.9367 156.757 44.2667C156.348 44.4974 156.295 44.6004 156.5 45.0127L157.806 47.6531C158.037 48.0883 158.165 48.0621 158.728 47.8576C164.054 45.8323 164.157 42.14 164.617 34.6293L164.694 33.4007H168.843V46.6503C168.843 47.0135 168.997 47.1934 169.432 47.1934H173.068C173.632 47.1934 173.682 47.0642 173.682 46.6503V30.9451C173.682 29.8196 173.427 29.2568 172.017 29.2568H161.878ZM190.889 46.6045V43.7121C190.889 43.1493 190.812 43.0986 190.403 43.0986H183.9C183.029 43.0986 182.363 42.971 182.363 41.6917V39.7727H189.226C189.585 39.7727 189.712 39.619 189.712 39.1838V36.5221C189.712 35.9593 189.635 35.8824 189.226 35.8824H182.363V34.7994C182.363 34.1254 182.543 33.3238 183.9 33.3238H189.994C190.352 33.3238 190.48 33.1962 190.48 32.7611V29.8703C190.48 29.3076 190.403 29.2568 189.994 29.2568H182.44C178.804 29.2568 177.523 31.6355 177.523 34.1254V42.3314C177.523 44.6086 178.419 47.1934 182.491 47.1934H190.403C190.762 47.1934 190.889 47.0396 190.889 46.6045ZM198.547 33.3238H205.767C206.125 33.3238 206.255 33.1962 206.255 32.7611V29.8703C206.255 29.3076 206.178 29.2568 205.767 29.2568H195.37C193.962 29.2568 193.707 29.8196 193.707 30.9451V45.5035C193.707 46.7059 193.962 47.1934 195.37 47.1934H202.157C205.716 47.1934 208.404 44.71 208.404 41.4349C208.404 39.7973 208.175 35.5242 201.721 35.5242H198.52C198.547 34.6718 198.547 34.595 198.547 33.3238ZM203.411 41.2304C203.411 41.9469 203.028 43.0217 201.67 43.0217H198.52V39.5421H201.67C202.797 39.5421 203.411 40.2324 203.411 41.2304ZM219.595 43.1493C216.983 43.1493 215.958 41.4349 215.958 38.2366C215.958 35.0138 217.443 33.2731 219.544 33.2731C220.798 33.2731 221.566 33.4269 222.923 33.862C223.539 34.0665 223.666 33.9897 223.897 33.35L224.793 31.2527C225.048 30.5362 225.074 30.4593 224.511 30.1517C223.026 29.3076 221.284 29.0262 219.313 29.0262C214.269 29.0262 210.837 32.7365 210.837 38.2366C210.837 43.5338 213.065 47.4748 219.135 47.4748C221.337 47.4748 223.385 47.0904 225.408 45.8618C225.765 45.6573 225.791 45.4266 225.561 44.9145L224.46 42.6128C224.23 42.05 224.076 42.0238 223.563 42.2283C222.463 42.6389 221.337 43.1493 219.595 43.1493ZM239.798 37.5462C240.873 36.9066 241.694 35.7598 242.026 34.3316L243.256 29.7673C243.306 29.5889 243.333 29.2568 242.897 29.2568H239.107C238.928 29.2568 238.671 29.2814 238.594 29.6151L237.417 33.9209C236.879 35.8874 235.598 36.0362 234.575 36.0362H233.346V29.7165C233.396 29.3076 233.269 29.2568 232.936 29.2568H228.992C228.684 29.2568 228.532 29.3076 228.532 29.6691V46.7828C228.532 47.1411 228.684 47.1934 228.992 47.1934H232.91C233.242 47.1934 233.372 47.1411 233.372 46.7828L233.346 39.4652H234.498C236.291 39.4652 237.16 39.7973 237.648 41.461L239.261 46.8351C239.362 47.1672 239.593 47.1934 239.773 47.1934H243.614C244.05 47.1934 244.023 46.8597 243.973 46.6814L242.385 40.7445C242 39.2345 241.566 38.2628 239.798 37.6738V37.5462Z" fill="#393185"/>
</svg>
