<svg width="244" height="48" viewBox="0 0 244 48" fill="none" xmlns="http://www.w3.org/2000/svg">
<path d="M10.6771 28.8302C9.11599 27.2671 9.11599 24.7329 10.6771 23.1698C12.2383 21.6068 14.7694 21.6068 16.3305 23.1698C17.8917 24.7329 17.8917 27.2671 16.3305 28.8302C14.7694 30.3932 12.2383 30.3932 10.6771 28.8302Z" fill="#973F8E"/>
<path d="M20.1458 29.9968L9.59552 40.56C8.80117 41.3553 8.86345 42.7071 9.73462 43.5793L12.2332 46.081C13.1044 46.9532 14.4546 47.0156 15.2489 46.2203L25.7992 35.6571C26.5935 34.8618 26.5312 33.51 25.6601 32.6378L23.1614 30.1361C22.2903 29.2639 20.9401 29.2015 20.1458 29.9968Z" fill="#973F8E"/>
<path d="M7.16967 29.9968L17.7199 40.56C18.5143 41.3553 18.452 42.7071 17.5808 43.5793L15.0822 46.081C14.211 46.9532 12.8609 47.0156 12.0665 46.2203L1.51627 35.6571C0.721922 34.8618 0.784202 33.51 1.65537 32.6378L4.15399 30.1361C5.02516 29.2639 6.37532 29.2015 7.16967 29.9968Z" fill="#7B3086"/>
<path d="M7.09154 23.0032L17.6418 12.44C18.4361 11.6447 18.3739 10.2929 17.5027 9.42068L15.0041 6.91902C14.1329 6.04678 12.7827 5.98442 11.9884 6.77974L1.43814 17.3429C0.643797 18.1382 0.706077 19.49 1.57725 20.3622L4.07586 22.8639C4.94703 23.7361 6.2972 23.7985 7.09154 23.0032Z" fill="#73509A"/>
<path d="M19.9885 23.0032L9.43829 12.44C8.64394 11.6447 8.70622 10.2929 9.57739 9.42068L12.076 6.91902C12.9472 6.04678 14.2973 5.98442 15.0917 6.77974L25.6419 17.3429C26.4363 18.1382 26.374 19.49 25.5028 20.3622L23.0042 22.8639C22.133 23.7361 20.7829 23.7985 19.9885 23.0032Z" fill="#393185"/>
<path d="M47.8256 23.2276C47.8256 23.6938 48.0033 23.7189 48.3859 23.7189H51.7541C52.1891 23.7189 52.3417 23.6938 52.3417 23.2276V7.61733C52.3417 6.02683 51.6266 5.77089 50.5289 5.77089H48.9484C47.6708 5.77089 47.2632 6.20507 46.8305 7.10545L44.7877 11.3354L42.7972 15.4876H42.6971L40.7066 11.2851L38.6638 7.03004C38.2311 6.12967 37.8736 5.77089 36.8009 5.77089H34.8379C33.5352 5.77089 33 6.20508 33 7.79787V23.2276C33 23.6938 33.205 23.7189 33.5876 23.7189H37.1334C37.541 23.7189 37.6959 23.6938 37.6959 23.2276V15.026H37.8485L39.3288 18.1796L40.4766 20.4899C40.8843 21.3332 41.0641 21.6165 41.9045 21.6165H43.6148C44.3549 21.6165 44.6601 21.3332 45.045 20.4899L46.3704 17.6425L47.6708 14.7198H47.8256V23.2276ZM71.8109 14.7312C71.8109 9.12557 69.2329 5.51495 63.7217 5.51495C58.4405 5.51495 55.6598 9.1507 55.6598 14.7837C55.6598 20.5196 58.108 24 63.6466 24C69.463 24 71.8109 20.4671 71.8109 14.7312ZM66.7323 14.7586C66.7323 17.3706 66.0696 19.6741 63.8241 19.6741C61.5012 19.6741 60.7634 17.7271 60.7634 14.5781C60.7634 12.0187 61.7062 9.8157 63.6967 9.8157C66.0947 9.8157 66.6822 12.0689 66.7323 14.7586ZM86.3041 13.4903V23.1773C86.3041 23.591 86.3565 23.7189 86.9167 23.7189H90.4124C90.8474 23.7189 91 23.5407 91 23.1773V7.79787C91 6.20508 90.54 5.77089 89.1371 5.77089H87.9369C86.7641 5.77089 86.4316 5.84629 85.7689 6.92719L82.2481 12.5123L80.0026 16.0498H79.8227V6.31249C79.8227 5.89886 79.7726 5.77089 79.2101 5.77089H75.7143C75.2816 5.77089 75.129 5.94914 75.129 6.31249V21.6919C75.129 22.8437 75.4592 23.7189 76.9919 23.7189H78.1898C79.3649 23.7189 79.6951 23.6161 80.3601 22.5626L83.8286 17.2838L86.1265 13.4903H86.3041ZM83.0133 5.23387C85.2064 5.23387 86.8916 4.10725 88.5495 1.90431C88.652 1.77634 88.7796 1.62324 88.4471 1.31474L87.1216 0.137849C86.9417 -0.0152604 86.8666 -0.0929641 86.5341 0.188116C84.9012 1.87917 84.0586 1.98203 83.216 1.98203C82.1707 1.98203 81.1253 1.39245 80.0026 0.213278C79.7202 0.00989478 79.6951 -0.0929574 79.3376 0.137849L77.9871 1.52041C77.6797 1.77635 77.8323 1.98201 77.9097 2.08256C79.0324 3.69592 80.7928 5.23387 83.0133 5.23387Z" fill="#973F8E"/>
<path d="M37.8381 33.3232H45.06C45.4188 33.3232 45.5468 33.1953 45.5468 32.7614V29.8701C45.5468 29.306 45.469 29.2558 45.06 29.2558H34.6638C33.256 29.2558 33 29.8176 33 30.9435V45.5048C33 46.7061 33.256 47.1925 34.6638 47.1925H41.4491C45.0074 47.1925 47.6973 44.71 47.6973 41.4351C47.6973 39.7977 47.4665 35.5247 41.0149 35.5247H37.813C37.8382 34.6706 37.8381 34.5952 37.8381 33.3232ZM42.7037 41.2296C42.7037 41.9467 42.3198 43.0223 40.9623 43.0223H37.813V39.5419H40.9623C42.089 39.5419 42.7037 40.2316 42.7037 41.2296ZM66.3392 38.2104C66.3392 32.6061 63.7521 29 58.2215 29C52.9217 29 50.1289 32.6335 50.1289 38.263C50.1289 43.9952 52.588 47.4734 58.1438 47.4734C63.9829 47.4734 66.3392 43.9427 66.3392 38.2104ZM61.2428 38.2378C61.2428 40.8459 60.5777 43.1502 58.3243 43.1502C55.9932 43.1502 55.2505 41.2045 55.2505 38.0574C55.2505 35.4996 56.1989 33.298 58.1963 33.298C60.6028 33.298 61.1925 35.5498 61.2428 38.2378ZM74.5071 41.1017H77.0165C83.5207 41.1017 84.0852 36.6712 84.0852 35.02C84.0852 31.7382 81.8569 29.2558 77.8369 29.2558H71.3327C69.9249 29.2558 69.6667 30.0231 69.6667 30.9435V46.6809C69.6667 47.0395 69.8221 47.1925 70.2563 47.1925H73.8923C74.4568 47.1925 74.5071 47.0897 74.5071 46.6809V41.1017ZM79.0916 35.358C79.0916 36.3652 78.4768 37.3152 77.2724 37.3152H74.5071V33.4259H77.2724C78.7831 33.4259 79.0916 34.6363 79.0916 35.358ZM97.9894 36.9703V46.6512C97.9894 47.0646 98.0397 47.1925 98.6042 47.1925H102.112C102.546 47.1925 102.7 47.0144 102.7 46.6512V31.2815C102.7 29.6897 102.24 29.2558 100.832 29.2558H99.628C98.4488 29.2558 98.1174 29.3311 97.4501 30.4114L93.9169 35.9929L91.6635 39.5282H91.4852V29.797C91.4852 29.3837 91.4326 29.2558 90.8704 29.2558H87.3624C86.9259 29.2558 86.7728 29.4339 86.7728 29.797V45.1668C86.7728 46.3178 87.1064 47.1925 88.6422 47.1925H89.8466C91.0236 47.1925 91.3572 47.0897 92.0223 46.0369L95.5052 40.7614L97.8089 36.9703H97.9894ZM114.787 43.1502C112.175 43.1502 111.151 41.4351 111.151 38.2378C111.151 35.0132 112.636 33.2729 114.734 33.2729C115.989 33.2729 116.759 33.4259 118.117 33.8598C118.729 34.0654 118.86 33.99 119.088 33.3483L119.984 31.2518C120.242 30.5347 120.267 30.457 119.703 30.151C118.217 29.306 116.476 29.0251 114.506 29.0251C109.46 29.0251 106.029 32.734 106.029 38.2378C106.029 43.5339 108.258 47.4734 114.325 47.4734C116.528 47.4734 118.576 47.0897 120.599 45.8611C120.958 45.6578 120.983 45.4271 120.754 44.9156L119.653 42.6113C119.422 42.0495 119.269 42.0243 118.757 42.2276C117.655 42.6387 116.528 43.1502 114.787 43.1502ZM139.421 38.2104C139.421 32.6061 136.834 29 131.303 29C126.004 29 123.211 32.6335 123.211 38.263C123.211 43.9952 125.67 47.4734 131.226 47.4734C137.065 47.4734 139.421 43.9427 139.421 38.2104ZM134.325 38.2378C134.325 40.8459 133.66 43.1502 131.406 43.1502C129.075 43.1502 128.332 41.2045 128.332 38.0574C128.332 35.4996 129.281 33.298 131.278 33.298C133.685 33.298 134.274 35.5498 134.325 38.2378ZM147.589 34.7825C147.589 34.1179 147.767 33.3232 149.125 33.3232H155.451C155.81 33.3232 155.938 33.1953 155.938 32.7614V29.8701C155.938 29.306 155.86 29.2558 155.451 29.2558H147.667C144.031 29.2558 142.749 31.6355 142.749 34.1179V46.6764C142.749 47.0395 142.904 47.1925 143.338 47.1925H146.974C147.539 47.1925 147.589 47.0897 147.589 46.6764V34.7825ZM161.877 29.2558C160.469 29.2558 160.239 29.8176 160.214 30.9435L160.008 35.2438C159.702 41.3209 159.29 42.9356 156.756 44.267C156.347 44.4977 156.296 44.6004 156.5 45.0138L157.807 47.6538C158.036 48.0877 158.166 48.0626 158.728 47.8571C164.055 45.8314 164.156 42.1385 164.617 34.6295L164.695 33.4008H168.843V46.6512C168.843 47.0144 168.996 47.1925 169.433 47.1925H173.069C173.631 47.1925 173.681 47.0646 173.681 46.6512V30.9435C173.681 29.8176 173.425 29.2558 172.018 29.2558H161.877ZM190.89 46.6033V43.712C190.89 43.1502 190.812 43.0977 190.403 43.0977H183.899C183.028 43.0977 182.363 42.9698 182.363 41.6909V39.7725H189.226C189.583 39.7725 189.711 39.6172 189.711 39.1833V36.5227C189.711 35.9586 189.636 35.8833 189.226 35.8833H182.363V34.7985C182.363 34.1248 182.542 33.3232 183.899 33.3232H189.994C190.353 33.3232 190.481 33.1953 190.481 32.7614V29.8701C190.481 29.306 190.403 29.2558 189.994 29.2558H182.439C178.803 29.2558 177.523 31.6355 177.523 34.1248V42.3304C177.523 44.6073 178.419 47.1925 182.491 47.1925H190.403C190.762 47.1925 190.89 47.0395 190.89 46.6033ZM198.546 33.3232H205.768C206.127 33.3232 206.255 33.1953 206.255 32.7614V29.8701C206.255 29.306 206.177 29.2558 205.768 29.2558H195.372C193.962 29.2558 193.706 29.8176 193.706 30.9435V45.5048C193.706 46.7061 193.962 47.1925 195.372 47.1925H202.157C205.715 47.1925 208.405 44.71 208.405 41.4351C208.405 39.7977 208.175 35.5247 201.721 35.5247H198.521C198.546 34.6706 198.546 34.5952 198.546 33.3232ZM203.412 41.2296C203.412 41.9467 203.028 43.0223 201.67 43.0223H198.521V39.5419H201.67C202.797 39.5419 203.412 40.2316 203.412 41.2296ZM219.595 43.1502C216.982 43.1502 215.959 41.4351 215.959 38.2378C215.959 35.0132 217.444 33.2729 219.544 33.2729C220.799 33.2729 221.567 33.4259 222.924 33.8598C223.539 34.0654 223.667 33.99 223.898 33.3483L224.794 31.2518C225.05 30.5347 225.075 30.457 224.51 30.151C223.027 29.306 221.286 29.0251 219.313 29.0251C214.27 29.0251 210.837 32.734 210.837 38.2378C210.837 43.5339 213.065 47.4734 219.133 47.4734C221.336 47.4734 223.384 47.0897 225.409 45.8611C225.765 45.6578 225.793 45.4271 225.562 44.9156L224.46 42.6113C224.229 42.0495 224.076 42.0243 223.564 42.2276C222.463 42.6387 221.336 43.1502 219.595 43.1502ZM239.8 37.5459C240.874 36.9064 241.694 35.76 242.026 34.3303L243.255 29.7673C243.308 29.5869 243.333 29.2558 242.896 29.2558H239.107C238.929 29.2558 238.673 29.2809 238.595 29.6143L237.416 33.9215C236.879 35.8878 235.599 36.0363 234.575 36.0363H233.346V29.7148C233.396 29.306 233.268 29.2558 232.937 29.2558H228.992C228.686 29.2558 228.533 29.306 228.533 29.6691V46.7837C228.533 47.1423 228.686 47.1925 228.992 47.1925H232.911C233.243 47.1925 233.371 47.1423 233.371 46.7837L233.346 39.4642H234.498C236.289 39.4642 237.162 39.7977 237.647 41.4602L239.26 46.834C239.363 47.1674 239.594 47.1925 239.772 47.1925H243.614C244.05 47.1925 244.023 46.8591 243.973 46.6809L242.384 40.7454C242 39.2336 241.566 38.263 239.8 37.6738V37.5459Z" fill="#FEFEFE"/>
</svg>
