<svg width="36" height="36" viewBox="0 0 36 36" fill="none" xmlns="http://www.w3.org/2000/svg">
<g clip-path="url(#clip0_2174_6673)">
<rect width="36" height="36" rx="18" fill="white"/>
<ellipse cx="18" cy="18" rx="18" ry="18" fill="#6159AD"/>
<path d="M18.0062 18.2737C20.4701 18.2729 22.4658 16.3077 22.465 13.8853C22.4642 11.462 20.4661 9.49922 18.003 9.5C15.5399 9.50078 13.5434 11.466 13.5442 13.8884C13.5474 16.3101 15.5439 18.2721 18.0062 18.2737ZM18.0062 12.0718C19.0267 12.0718 19.8541 12.8855 19.8541 13.8892C19.8541 14.8929 19.0267 15.7058 18.0062 15.7058C16.9857 15.7058 16.1583 14.8921 16.1583 13.8884C16.1599 12.8855 16.9865 12.0725 18.0062 12.0718ZM19.8096 21.853C20.7276 21.6482 21.6034 21.291 22.4006 20.7978C23.0079 20.4124 23.1827 19.6166 22.7909 19.0194C22.4054 18.4316 21.6122 18.2541 21.0066 18.6208C19.1698 19.7503 16.8378 19.7503 15.0011 18.6208C14.3915 18.2448 13.5863 18.4246 13.2024 19.0233C12.817 19.6229 12.9982 20.4171 13.6086 20.7962C13.6094 20.7962 13.6102 20.797 13.6102 20.797C14.4066 21.2894 15.2824 21.6467 16.1996 21.8523L13.7055 24.3052C13.2088 24.8211 13.2318 25.6356 13.7572 26.1242C14.2619 26.5932 15.0503 26.5932 15.555 26.1242L18.0046 23.7135L20.4558 26.1242C20.966 26.6253 21.7918 26.6253 22.3021 26.1242C22.8115 25.6224 22.8115 24.8102 22.3021 24.3083L19.8096 21.853Z" fill="white"/>
</g>
<defs>
<clipPath id="clip0_2174_6673">
<rect width="36" height="36" rx="18" fill="white"/>
</clipPath>
</defs>
</svg>
