<svg width="36" height="36" viewBox="0 0 36 36" fill="none" xmlns="http://www.w3.org/2000/svg">
<g clip-path="url(#clip0_2174_6665)">
<rect width="36" height="36" rx="18" fill="white"/>
<ellipse cx="18" cy="18" rx="18" ry="18" fill="#6159AD"/>
<path d="M24.9957 12.1986C24.7742 14.658 23.8144 20.6353 23.3271 23.3905C23.1204 24.5579 22.7069 24.9471 22.323 24.9938C21.4665 25.0716 20.8168 24.4023 19.9898 23.8263C18.6903 22.9235 17.952 22.3631 16.6968 21.4915C15.2349 20.4797 16.18 19.9193 17.0217 19.0165C17.2432 18.783 21.0235 15.1561 21.0973 14.8292C21.1076 14.7797 21.1062 14.7283 21.0933 14.6795C21.0805 14.6307 21.0565 14.5859 21.0235 14.549C20.9349 14.4712 20.8168 14.5023 20.7134 14.5179C20.5805 14.549 18.5131 15.9967 14.4818 18.8608C13.8912 19.2811 13.3596 19.499 12.887 19.4834C12.3554 19.4679 11.3513 19.1721 10.5982 18.9075C9.66788 18.5962 8.94431 18.425 9.00338 17.8802C9.03291 17.6 9.40208 17.3198 10.0961 17.024C14.408 15.0471 17.2727 13.7396 18.7051 13.117C22.8103 11.3113 23.652 11 24.2131 11C24.3312 11 24.6118 11.0311 24.789 11.1868C24.9367 11.3113 24.981 11.4825 24.9957 11.6071C24.981 11.7005 25.0105 11.9807 24.9957 12.1986Z" fill="white"/>
</g>
<defs>
<clipPath id="clip0_2174_6665">
<rect width="36" height="36" rx="18" fill="white"/>
</clipPath>
</defs>
</svg>
