<svg width="36" height="36" viewBox="0 0 36 36" fill="none" xmlns="http://www.w3.org/2000/svg">
<g clip-path="url(#clip0_2174_6669)">
<rect width="36" height="36" rx="18" fill="white"/>
<ellipse cx="18" cy="18" rx="18" ry="18" fill="#6159AD"/>
<path fill-rule="evenodd" clip-rule="evenodd" d="M26.5763 14.6944C26.7098 14.3028 26.5763 14.0181 25.9856 14.0181H24.0218C23.5264 14.0181 23.2976 14.2674 23.1641 14.534C23.1641 14.534 22.1539 16.8118 20.7431 18.2885C20.2856 18.7156 20.076 18.858 19.8281 18.858C19.6946 18.858 19.5229 18.7156 19.5229 18.3243V14.676C19.5229 14.2135 19.3706 14 18.951 14H15.8625C15.5573 14 15.3668 14.2135 15.3668 14.4271C15.3668 14.8719 16.0721 14.9788 16.1483 16.2243V18.9306C16.1483 19.5177 16.0358 19.625 15.786 19.625C15.1189 19.625 13.4985 17.3295 12.5265 14.7139C12.3375 14.1958 12.1455 14 11.6498 14H9.66713C9.09525 14 9 14.249 9 14.516C9 14.9965 9.66713 17.4163 12.1073 20.6191C13.7276 22.8066 16.0343 23.9823 18.1121 23.9823C19.3706 23.9823 19.5229 23.7153 19.5229 23.2705V21.6156C19.5229 21.0819 19.6373 20.9931 20.0378 20.9931C20.3235 20.9931 20.8384 21.1351 22.0013 22.1851C23.3355 23.4306 23.5643 24 24.3079 24H26.2714C26.8433 24 27.1103 23.733 26.9576 23.217C26.7863 22.701 26.1379 21.9538 25.299 21.0642C24.8415 20.5663 24.1553 20.0146 23.9456 19.7476C23.6599 19.3917 23.736 19.2493 23.9456 18.9292C23.9265 18.9292 26.3288 15.7618 26.5763 14.6931" fill="white"/>
</g>
<defs>
<clipPath id="clip0_2174_6669">
<rect width="36" height="36" rx="18" fill="white"/>
</clipPath>
</defs>
</svg>
