<svg width="52" height="52" viewBox="0 0 52 52" fill="none" xmlns="http://www.w3.org/2000/svg">
<rect width="52" height="52" rx="26" fill="#B10FFC"/>
<path d="M21.0003 15.9993C21.0003 14.1584 22.4927 12.666 24.3337 12.666C26.1746 12.666 27.667 14.1584 27.667 15.9993V17.9993H29.0003C30.8641 17.9993 31.796 17.9993 32.5311 18.3038C33.5112 18.7098 34.2899 19.4885 34.6958 20.4686C35.0003 21.2037 35.0003 22.1356 35.0003 23.9993H37.0003C38.8413 23.9993 40.3337 25.4917 40.3337 27.3327C40.3337 29.1736 38.8413 30.666 37.0003 30.666H35.0003V32.9327C35.0003 35.1729 35.0003 36.293 34.5644 37.1486C34.1809 37.9013 33.5689 38.5132 32.8163 38.8967C31.9606 39.3327 30.8405 39.3327 28.6003 39.3327H27.667V36.9993C27.667 35.3425 26.3238 33.9993 24.667 33.9993C23.0101 33.9993 21.667 35.3425 21.667 36.9993V39.3327H20.067C17.8268 39.3327 16.7067 39.3327 15.851 38.8967C15.0984 38.5132 14.4865 37.9013 14.103 37.1486C13.667 36.293 13.667 35.1729 13.667 32.9327V30.666H15.667C17.5079 30.666 19.0003 29.1736 19.0003 27.3327C19.0003 25.4917 17.5079 23.9993 15.667 23.9993H13.667C13.667 22.1356 13.667 21.2037 13.9715 20.4686C14.3774 19.4885 15.1561 18.7098 16.1363 18.3038C16.8713 17.9993 17.8032 17.9993 19.667 17.9993H21.0003V15.9993Z" stroke="white" stroke-width="2" stroke-linecap="round" stroke-linejoin="round"/>
</svg>
