<svg width="50" height="50" viewBox="0 0 50 50" fill="none" xmlns="http://www.w3.org/2000/svg">
<rect width="50" height="50" rx="25" fill="#B10FFC"/>
<path d="M21.0003 37V27.1333C21.0003 26.3866 21.0003 26.0132 21.1457 25.728C21.2735 25.4771 21.4775 25.2732 21.7283 25.1453C22.0136 25 22.3869 25 23.1337 25H26.867C27.6137 25 27.9871 25 28.2723 25.1453C28.5232 25.2732 28.7272 25.4771 28.855 25.728C29.0003 26.0132 29.0003 26.3866 29.0003 27.1333V37M11.667 21.6667L23.7203 12.6267C24.1793 12.2824 24.4088 12.1103 24.6609 12.0439C24.8834 11.9854 25.1173 11.9854 25.3398 12.0439C25.5918 12.1103 25.8213 12.2824 26.2803 12.6267L38.3337 21.6667M14.3337 19.6667V32.7333C14.3337 34.2268 14.3337 34.9735 14.6243 35.544C14.88 36.0457 15.2879 36.4537 15.7897 36.7094C16.3601 37 17.1069 37 18.6003 37H31.4003C32.8938 37 33.6405 37 34.211 36.7094C34.7127 36.4537 35.1207 36.0457 35.3763 35.544C35.667 34.9735 35.667 34.2268 35.667 32.7333V19.6667L27.5603 13.5867C26.6423 12.8981 26.1833 12.5539 25.6792 12.4212C25.2342 12.304 24.7665 12.304 24.3215 12.4212C23.8174 12.5539 23.3584 12.8981 22.4403 13.5867L14.3337 19.6667Z" stroke="white" stroke-width="2" stroke-linecap="round" stroke-linejoin="round"/>
</svg>
