<svg width="50" height="50" viewBox="0 0 50 50" fill="none" xmlns="http://www.w3.org/2000/svg">
<rect width="50" height="50" rx="25" fill="#B10FFC"/>
<path d="M17.3337 38.2787L25.0003 24.9996M31.667 13.4526C25.9161 10.1323 18.7198 11.5831 14.6617 16.5769C14.2656 17.0643 14.0675 17.308 14.0099 17.6572C13.9641 17.935 14.032 18.3032 14.1739 18.5463C14.3523 18.852 14.6685 19.0345 15.3008 19.3996L34.6998 30.5996C35.3322 30.9647 35.6484 31.1473 36.0022 31.1489C36.2838 31.1503 36.6366 31.025 36.8543 30.8464C37.1279 30.6219 37.2399 30.3285 37.464 29.7418C39.7596 23.7304 37.4179 16.7729 31.667 13.4526ZM31.667 13.4526C29.1161 11.9799 24.0634 15.9557 20.3815 22.333M31.667 13.4526C34.2179 14.9254 33.301 21.2891 29.6191 27.6663M38.3337 38.333H11.667" stroke="white" stroke-width="2" stroke-linecap="round" stroke-linejoin="round"/>
</svg>
