<svg width="50" height="50" viewBox="0 0 50 50" fill="none" xmlns="http://www.w3.org/2000/svg">
<rect width="50" height="50" rx="25" fill="#B10FFC"/>
<path d="M15.6667 21.0007V31.6673M21.6667 21.0007V31.6673M28.3333 21.0007V31.6673M34.3333 21.0007V31.6673M13 33.8007L13 34.8673C13 35.6141 13 35.9874 13.1453 36.2727C13.2732 36.5235 13.4771 36.7275 13.728 36.8554C14.0132 37.0007 14.3866 37.0007 15.1333 37.0007H34.8667C35.6134 37.0007 35.9868 37.0007 36.272 36.8554C36.5229 36.7275 36.7268 36.5235 36.8547 36.2727C37 35.9874 37 35.6141 37 34.8673V33.8007C37 33.0539 37 32.6806 36.8547 32.3954C36.7268 32.1445 36.5229 31.9405 36.272 31.8127C35.9868 31.6673 35.6134 31.6673 34.8667 31.6673H15.1333C14.3866 31.6673 14.0132 31.6673 13.728 31.8127C13.4771 31.9405 13.2732 32.1445 13.1453 32.3954C13 32.6806 13 33.0539 13 33.8007ZM24.5372 13.1035L14.6705 15.2961C14.0745 15.4286 13.7764 15.4948 13.554 15.6551C13.3577 15.7965 13.2036 15.9885 13.1082 16.2108C13 16.4627 13 16.768 13 17.3786L13 18.8673C13 19.6141 13 19.9874 13.1453 20.2727C13.2732 20.5235 13.4771 20.7275 13.728 20.8554C14.0132 21.0007 14.3866 21.0007 15.1333 21.0007H34.8667C35.6134 21.0007 35.9868 21.0007 36.272 20.8554C36.5229 20.7275 36.7268 20.5235 36.8547 20.2727C37 19.9874 37 19.6141 37 18.8673V17.3786C37 16.768 37 16.4627 36.8918 16.2108C36.7964 15.9885 36.6423 15.7965 36.446 15.6551C36.2236 15.4948 35.9255 15.4286 35.3295 15.2961L25.4628 13.1035C25.2901 13.0651 25.2037 13.046 25.1165 13.0383C25.039 13.0315 24.961 13.0315 24.8835 13.0383C24.7963 13.046 24.7099 13.0651 24.5372 13.1035Z" stroke="white" stroke-width="2" stroke-linecap="round" stroke-linejoin="round"/>
</svg>
