<svg width="50" height="50" viewBox="0 0 50 50" fill="none" xmlns="http://www.w3.org/2000/svg">
<rect width="50" height="50" rx="25" fill="#B10FFC"/>
<path d="M19.667 37V18.3333C19.667 17.0934 19.667 16.4734 19.8033 15.9647C20.1732 14.5844 21.2513 13.5062 22.6317 13.1363C23.1404 13 23.7604 13 25.0003 13C26.2403 13 26.8603 13 27.3689 13.1363C28.7493 13.5062 29.8275 14.5844 30.1974 15.9647C30.3337 16.4734 30.3337 17.0934 30.3337 18.3333V37M15.9337 37H34.067C35.5605 37 36.3072 37 36.8776 36.7094C37.3794 36.4537 37.7873 36.0457 38.043 35.544C38.3337 34.9735 38.3337 34.2268 38.3337 32.7333V22.6C38.3337 21.1065 38.3337 20.3598 38.043 19.7894C37.7873 19.2876 37.3794 18.8796 36.8776 18.624C36.3072 18.3333 35.5605 18.3333 34.067 18.3333H15.9337C14.4402 18.3333 13.6934 18.3333 13.123 18.624C12.6213 18.8796 12.2133 19.2876 11.9576 19.7894C11.667 20.3598 11.667 21.1065 11.667 22.6V32.7333C11.667 34.2268 11.667 34.9735 11.9576 35.544C12.2133 36.0457 12.6213 36.4537 13.123 36.7094C13.6934 37 14.4402 37 15.9337 37Z" stroke="white" stroke-width="2" stroke-linecap="round" stroke-linejoin="round"/>
</svg>
