<svg width="48" height="49" viewBox="0 0 48 49" fill="none" xmlns="http://www.w3.org/2000/svg">
<path d="M33 17.75V22.25C33 22.4489 32.921 22.6397 32.7803 22.7803C32.6397 22.921 32.4489 23 32.25 23H27V28.25C27 28.4489 26.921 28.6397 26.7803 28.7803C26.6397 28.921 26.4489 29 26.25 29H21.75C21.5511 29 21.3603 28.921 21.2197 28.7803C21.079 28.6397 21 28.4489 21 28.25V23H15.75C15.5511 23 15.3603 22.921 15.2197 22.7803C15.079 22.6397 15 22.4489 15 22.25V17.75C15 17.5511 15.079 17.3603 15.2197 17.2197C15.3603 17.079 15.5511 17 15.75 17H21V11.75C21 11.5511 21.079 11.3603 21.2197 11.2197C21.3603 11.079 21.5511 11 21.75 11H26.25C26.4489 11 26.6397 11.079 26.7803 11.2197C26.921 11.3603 27 11.5511 27 11.75V17H32.25C32.4489 17 32.6397 17.079 32.7803 17.2197C32.921 17.3603 33 17.5511 33 17.75ZM42 20C42 33.7205 25.1625 46.3235 24.4455 46.853C24.3165 46.9482 24.1604 46.9996 24 46.9996C23.8396 46.9996 23.6835 46.9482 23.5545 46.853C22.8375 46.3235 6 33.7205 6 20C6 15.2261 7.89642 10.6477 11.2721 7.27208C14.6477 3.89642 19.2261 2 24 2C28.7739 2 33.3523 3.89642 36.7279 7.27208C40.1036 10.6477 42 15.2261 42 20ZM37.5 20C37.5 17.33 36.7082 14.7199 35.2248 12.4998C33.7414 10.2797 31.633 8.54941 29.1662 7.52763C26.6994 6.50584 23.985 6.2385 21.3663 6.7594C18.7475 7.2803 16.3421 8.56605 14.4541 10.4541C12.566 12.3421 11.2803 14.7475 10.7594 17.3663C10.2385 19.985 10.5058 22.6994 11.5276 25.1662C12.5494 27.633 14.2797 29.7414 16.4998 31.2248C18.7199 32.7082 21.33 33.5 24 33.5C27.5792 33.496 31.0107 32.0724 33.5416 29.5416C36.0724 27.0107 37.496 23.5792 37.5 20Z" fill="#E4D8FA"/>
</svg>
