<svg width="48" height="48" viewBox="0 0 48 48" fill="none" xmlns="http://www.w3.org/2000/svg">
<g clip-path="url(#clip0_558_19288)">
<path d="M22.8569 0.576172V13.9215H28.9299V47.423H48V4.48008L22.8569 0.576172ZM36.4885 38.2799H33.4855V13.9896H36.4885V38.2799ZM43.3453 42.418H40.3423V13.9896H43.3453V42.418ZM4.65666 30.8064V33.8094H7.64164V37.8134H4.65666V40.8164H7.64164V47.423H0V24.5662H7.64164V30.8064H4.65666Z" fill="#E4D8FA"/>
<path d="M10.6445 16.9238V47.4223H25.9268V16.9238H10.6445ZM20.5715 39.7807H15.9999V36.7777H20.5715V39.7807ZM20.5715 32.9238H15.9999V29.9208H20.5715V32.9238ZM20.5715 26.067H15.9999V23.064H20.5715V26.067Z" fill="#E4D8FA"/>
</g>
<defs>
<clipPath id="clip0_558_19288">
<rect width="48" height="48" fill="white"/>
</clipPath>
</defs>
</svg>
