<svg width="48" height="49" viewBox="0 0 48 49" fill="none" xmlns="http://www.w3.org/2000/svg">
<path d="M48 20.9702V16.7348L24 2.61719L0 16.7348V20.9702H4.23525V42.1466H1.41178V46.3819H46.5882V42.1466H43.7647V20.9702H48ZM15.5294 37.9113H9.88238V20.9702H15.5294V37.9113ZM26.8236 37.9113H21.1765V20.9702H26.8236V37.9113ZM24 16.7348C21.661 16.7348 19.7648 14.8385 19.7648 12.4996C19.7648 10.1606 21.661 8.26431 24 8.26431C26.339 8.26431 28.2352 10.1606 28.2352 12.4996C28.2352 14.8385 26.339 16.7348 24 16.7348ZM38.1176 37.9113H32.4706V20.9702H38.1176V37.9113Z" fill="#E4D8FA"/>
</svg>
