<svg width="283" height="173" viewBox="0 0 283 173" fill="none" xmlns="http://www.w3.org/2000/svg">
<path d="M229.729 145.495C228.909 142.881 225.681 140.869 223.349 139.816C222.687 139.517 221.973 140.021 221.973 140.748C221.973 141.405 221.381 141.903 220.734 141.791L188.635 136.23C187.853 136.095 187.053 136.16 186.274 136.31C184.654 136.621 182.206 136.797 180.189 136.024C177.656 135.054 161.32 132.744 152.839 131.626C152.391 131.567 151.96 131.45 151.543 131.275C147.226 129.458 137.353 125.421 127.646 121.818C119.047 118.627 108.659 118.396 102.558 118.799C100.742 118.919 99.209 120.127 98.5409 121.819L92.6524 136.734C91.6579 139.253 88.84 140.524 86.2938 139.602L83.2404 138.496C81.2192 137.763 78.9563 138.404 77.6187 140.087L72.1558 146.96C71.0389 148.366 69.2548 149.065 67.4803 148.793L57.7158 147.297C57.465 147.258 57.2171 147.239 56.9633 147.239C48.7669 147.231 33.3347 146.975 34.3202 145.993C35.5712 144.747 31.0676 144.747 28.8157 143.999C26.5639 143.252 21.3096 147.488 18.8075 147.239C16.3055 146.99 22.3104 140.51 22.8108 138.267C23.1364 136.808 21.1666 135.469 19.5673 134.707C18.9147 134.396 18.287 134.02 17.7978 133.488C17.1867 132.823 16.5557 132.062 16.5557 131.787C16.5557 131.289 18.5573 129.794 18.8075 128.298C18.9525 127.432 17.6196 126.078 16.3664 125.05C15.7295 124.527 15.6851 123.538 16.319 123.012C16.4744 122.883 16.659 122.794 16.8568 122.752L19.453 122.208C20.4861 121.991 21.1585 120.991 20.9689 119.952C20.8675 119.396 21.0125 118.824 21.3663 118.383L22.2024 117.342C22.589 116.861 22.749 116.236 22.6413 115.628C22.3694 114.093 20.601 113.354 19.3178 114.239L13.2139 118.448C12.6763 118.819 11.9566 118.782 11.46 118.358C10.9327 117.908 10.8007 117.146 11.1457 116.545L12.9465 113.406C13.2983 112.792 13.1637 112.015 12.6259 111.556C12.1359 111.138 11.9754 110.449 12.2301 109.857L13.4618 106.995C13.8356 106.126 13.7892 105.13 13.3394 104.298C12.7195 103.151 12.8862 101.733 13.7601 100.766C14.2711 100.2 14.5541 99.4649 14.5541 98.7026V96.9612C14.5541 96.1103 14.2773 95.2825 13.7654 94.6028L13.2976 93.9815C12.6879 93.1717 12.5899 92.0864 13.0446 91.1805C13.3696 90.533 13.944 90.0456 14.6357 89.8303L16.8301 89.1472C17.3116 88.9974 17.813 88.9211 18.3173 88.9211H22.422C23.0102 88.9211 23.5938 88.8174 24.146 88.6148L27.2303 87.4829C27.7825 87.2803 28.3661 87.1766 28.9543 87.1766H36.3472C36.9776 87.1766 37.5882 87.397 38.0733 87.7996L38.3237 88.0075C38.647 88.2758 39.0538 88.4227 39.4739 88.4227C40.0128 88.4227 40.5234 88.1813 40.8654 87.7649L44.4741 83.3716C44.7098 83.0846 44.9129 82.7723 45.0795 82.4403L45.9774 80.6516C46.3666 79.8762 47.0181 79.2638 47.8161 78.9231L47.9029 78.8861C48.1871 78.7647 48.4512 78.6009 48.6862 78.4003C49.5456 77.6665 49.9292 76.5179 49.6832 75.415L49.669 75.3514C49.6117 75.0946 49.5867 74.8316 49.5946 74.5687L50.0683 58.7595C50.0766 58.485 50.3014 58.2668 50.576 58.2668C50.8565 58.2668 51.0839 58.0394 51.0839 57.7589V57.2225C51.0839 57.0892 51.0584 56.9571 51.0087 56.8334L50.871 56.4905C50.6825 56.0211 50.6176 55.5111 50.6826 55.0094L51.5843 48.0487C51.9179 46.5534 52.5851 43.5128 52.5851 43.3135C52.5851 43.1321 55.7588 42.1124 57.7763 41.4918C58.0831 41.3975 58.4053 41.5803 58.4834 41.8916C58.5461 42.1414 58.7707 42.3166 59.0282 42.3166H59.5198C59.8811 42.3166 60.2229 42.1527 60.4491 41.871L61.0921 41.0705L64.5099 37.2406C64.8824 36.8231 65.4153 36.5845 65.9747 36.5845C66.53 36.5845 67.0592 36.3494 67.4315 35.9374L68.849 34.3686C69.0126 34.1874 69.2204 34.0518 69.4521 33.9749C70.1128 33.7555 70.5152 33.0876 70.4003 32.401L70.2998 31.8006C70.1757 31.0586 70.4533 30.3063 71.0296 29.8229L73.4583 27.7857C74.3594 27.0299 75.498 26.6156 76.6742 26.6156H79.2355C79.483 26.6156 79.7293 26.6347 79.9746 26.6673C81.7798 26.9078 85.1839 27.1731 86.8632 26.6156C89.115 25.8679 89.6154 23.1265 91.6171 23.1265C92.5864 23.1265 93.6659 23.7354 94.5334 24.4002C95.4624 25.1123 96.5041 25.7141 97.6681 25.8374C99.0109 25.9797 100.71 26.1171 102.126 26.1171C104.878 26.1171 105.879 22.1296 108.881 22.628C109.982 22.8107 110.914 23.2097 111.65 23.6523C112.893 24.4007 114.217 25.1698 115.661 25.3165C118.199 25.5742 121.348 26.021 122.392 26.6156C123.622 27.3158 126.1 29.0921 127.59 30.1897C127.96 30.4631 128.364 30.6876 128.796 30.847C131.167 31.7207 135.334 33.0954 137.154 33.0954C138.135 33.0954 138.595 32.3772 138.77 31.4687C139.093 29.7926 139.681 28.0418 141.175 27.2153L142.35 26.5647C142.849 26.2885 143.159 25.7632 143.159 25.1928C143.159 24.824 143.289 24.467 143.526 24.1846L150.327 16.0843C152.488 13.5116 157.507 9.51894 160.777 8.74833C162.67 8.30216 165.095 7.78054 168.179 7.17625C183.442 4.18559 222.724 13.1576 223.224 12.6592C223.576 12.3088 218.932 18.602 215.706 22.9524C215.096 23.7748 215.47 24.9526 216.442 25.2732L245.693 34.918C248.432 35.8213 249.843 38.8477 248.773 41.5266L241.916 58.6921C241.635 59.3963 241.518 60.1551 241.573 60.9113L242.573 74.6696C242.679 76.1227 242.146 77.5498 241.114 78.578L239.099 80.5851C237.932 81.7472 237.496 83.4126 237.454 85.0588C237.44 85.5848 237.378 86.0749 237.236 86.4289C237.032 86.9357 237.079 87.5069 237.217 88.0116C237.439 88.818 237.776 89.6068 237.852 90.4397L238.489 97.4254C238.629 98.9608 239.917 100.136 241.459 100.136C243.026 100.136 244.325 101.349 244.433 102.912L245.005 111.169C245.148 113.231 246.544 114.994 248.519 115.604L249.116 115.789C251.143 116.415 252.554 118.251 252.639 120.371L253.341 138.045C253.434 140.366 255.11 142.318 257.39 142.759L266.913 144.604C269.11 145.029 270.176 147.545 268.953 149.419C268.509 150.099 268.345 150.925 268.495 151.723L268.761 153.137C268.925 154.008 268.855 154.907 268.557 155.742L267.444 158.868C266.733 160.861 264.476 161.901 263.077 163.49C262.958 163.625 262.85 163.774 262.756 163.937C261.756 165.682 261.505 168.423 259.504 168.174C257.502 167.925 238.987 156.211 236.235 154.467C233.482 152.722 230.98 149.482 229.729 145.495Z" fill="#763EE6" fill-opacity="0.2"/>
<path d="M146.647 88.2673C146.277 88.905 145.356 88.905 144.987 88.2673L142.498 83.973C142.127 83.3334 142.588 82.5326 143.328 82.5326L148.306 82.5326C149.045 82.5326 149.506 83.3334 149.136 83.973L146.647 88.2673Z" fill="white"/>
<path d="M151.093 97.3432C151.093 100.237 148.736 102.593 145.817 102.593C142.897 102.593 140.541 100.237 140.541 97.3432C140.541 94.4491 142.897 92.0933 145.817 92.0933C148.736 92.0933 151.093 94.4491 151.093 97.3432Z" fill="white" stroke="#763EE6" stroke-width="2.87797"/>
<rect x="103.605" y="61.9883" width="84.4203" height="21.9778" rx="4.40983" fill="white"/>
<path d="M112.427 76.4117C112.73 76.4117 112.985 76.3791 113.192 76.3139C113.403 76.2448 113.574 76.1508 113.704 76.0318C113.835 75.909 113.929 75.7671 113.986 75.6059C114.048 75.4409 114.079 75.2624 114.079 75.0706C114.079 74.8634 114.05 74.6773 113.992 74.5123C113.935 74.3473 113.841 74.2091 113.71 74.0978C113.58 73.9827 113.409 73.8945 113.198 73.8331C112.991 73.7717 112.736 73.741 112.432 73.741H110.959V76.4117H112.427ZM112.432 72.6761C112.954 72.6761 113.401 72.7337 113.773 72.8488C114.15 72.9639 114.458 73.1232 114.7 73.3265C114.942 73.5261 115.118 73.764 115.23 74.0403C115.345 74.3166 115.402 74.6139 115.402 74.9324C115.402 75.32 115.335 75.6711 115.201 75.9858C115.07 76.2966 114.879 76.5633 114.625 76.7859C114.372 77.0084 114.059 77.1792 113.687 77.2981C113.319 77.4171 112.899 77.4766 112.427 77.4766H109.612V69.188H115.115V70.2414H110.959V72.6761H112.432ZM119.093 71.5134C119.526 71.5134 119.918 71.5844 120.267 71.7264C120.62 71.8684 120.919 72.0698 121.165 72.3308C121.414 72.5917 121.606 72.9083 121.74 73.2805C121.875 73.6527 121.942 74.071 121.942 74.5353C121.942 74.9996 121.875 75.4179 121.74 75.7901C121.606 76.1623 121.414 76.4808 121.165 76.7456C120.919 77.0065 120.62 77.208 120.267 77.3499C119.918 77.4919 119.526 77.5629 119.093 77.5629C118.655 77.5629 118.26 77.4919 117.907 77.3499C117.558 77.208 117.258 77.0065 117.009 76.7456C116.759 76.4808 116.568 76.1623 116.433 75.7901C116.299 75.4179 116.232 74.9996 116.232 74.5353C116.232 74.071 116.299 73.6527 116.433 73.2805C116.568 72.9083 116.759 72.5917 117.009 72.3308C117.258 72.0698 117.558 71.8684 117.907 71.7264C118.26 71.5844 118.655 71.5134 119.093 71.5134ZM119.093 76.5959C119.622 76.5959 120.015 76.4194 120.272 76.0664C120.533 75.7095 120.664 75.2011 120.664 74.541C120.664 73.881 120.533 73.3726 120.272 73.0157C120.015 72.655 119.622 72.4747 119.093 72.4747C118.555 72.4747 118.156 72.655 117.895 73.0157C117.634 73.3726 117.504 73.881 117.504 74.541C117.504 75.2011 117.634 75.7095 117.895 76.0664C118.156 76.4194 118.555 76.5959 119.093 76.5959ZM124.368 76.003C124.541 76.2256 124.729 76.3829 124.932 76.475C125.14 76.5633 125.368 76.6074 125.617 76.6074C126.101 76.6074 126.477 76.4309 126.745 76.0779C127.018 75.7248 127.154 75.1991 127.154 74.5007C127.154 74.14 127.123 73.8331 127.062 73.5798C127.001 73.3227 126.912 73.1136 126.797 72.9524C126.682 72.7912 126.542 72.6742 126.377 72.6013C126.212 72.5284 126.026 72.4919 125.819 72.4919C125.504 72.4919 125.232 72.561 125.001 72.6991C124.775 72.8334 124.564 73.0272 124.368 73.2805V76.003ZM124.305 72.4574C124.551 72.1696 124.829 71.9374 125.14 71.7609C125.454 71.5844 125.819 71.4961 126.233 71.4961C126.563 71.4961 126.863 71.5633 127.131 71.6976C127.4 71.8281 127.63 72.0199 127.822 72.2732C128.014 72.5265 128.161 72.8411 128.265 73.2172C128.372 73.5894 128.426 74.0172 128.426 74.5007C128.426 74.9344 128.367 75.3392 128.248 75.7152C128.133 76.0875 127.966 76.4117 127.747 76.688C127.528 76.9604 127.264 77.1753 126.953 77.3327C126.642 77.4862 126.291 77.5629 125.899 77.5629C125.554 77.5629 125.26 77.5073 125.019 77.396C124.781 77.2847 124.564 77.1312 124.368 76.9355V79.4278H123.131V71.6055H123.879C124.048 71.6055 124.155 71.6842 124.201 71.8415L124.305 72.4574ZM134.792 71.6055V77.4766H133.554V73.7985C133.554 73.7179 133.558 73.6297 133.566 73.5337C133.573 73.4378 133.585 73.34 133.6 73.2402C133.562 73.3246 133.524 73.4033 133.485 73.4762C133.451 73.5453 133.412 73.6086 133.37 73.6661L130.82 77.1715C130.774 77.2444 130.713 77.3154 130.636 77.3845C130.559 77.4497 130.473 77.4823 130.377 77.4823H129.629V71.6055H130.866V75.2836C130.866 75.3641 130.86 75.4543 130.849 75.5541C130.841 75.6539 130.83 75.7536 130.814 75.8534C130.891 75.6769 130.97 75.5311 131.05 75.4159L133.6 71.9163C133.646 71.8396 133.708 71.7686 133.784 71.7034C133.861 71.6381 133.948 71.6055 134.043 71.6055H134.792ZM140.445 72.7567C140.407 72.8066 140.37 72.845 140.336 72.8718C140.301 72.8987 140.251 72.9121 140.186 72.9121C140.121 72.9121 140.052 72.8891 139.979 72.843C139.91 72.797 139.825 72.7471 139.726 72.6934C139.63 72.6358 139.513 72.584 139.375 72.538C139.236 72.4919 139.064 72.4689 138.857 72.4689C138.588 72.4689 138.352 72.5169 138.149 72.6128C137.949 72.7087 137.78 72.8469 137.642 73.0272C137.508 73.2037 137.406 73.4205 137.337 73.6776C137.272 73.9309 137.239 74.2168 137.239 74.5353C137.239 74.8653 137.276 75.1588 137.349 75.4159C137.421 75.673 137.525 75.8898 137.659 76.0664C137.797 76.2429 137.962 76.3772 138.154 76.4693C138.35 76.5614 138.569 76.6074 138.811 76.6074C139.048 76.6074 139.242 76.5786 139.392 76.5211C139.542 76.4635 139.666 76.4002 139.766 76.3311C139.866 76.2621 139.95 76.1987 140.019 76.1412C140.092 76.0836 140.169 76.0548 140.25 76.0548C140.349 76.0548 140.426 76.0932 140.48 76.17L140.831 76.6247C140.689 76.7974 140.532 76.9432 140.359 77.0621C140.186 77.1811 140.004 77.2789 139.812 77.3557C139.62 77.4286 139.421 77.4804 139.213 77.5111C139.006 77.5456 138.797 77.5629 138.586 77.5629C138.222 77.5629 137.88 77.4957 137.561 77.3614C137.247 77.2233 136.971 77.0257 136.733 76.7686C136.499 76.5076 136.312 76.1911 136.174 75.8189C136.04 75.4428 135.973 75.0149 135.973 74.5353C135.973 74.1017 136.034 73.7007 136.157 73.3323C136.28 72.9601 136.458 72.6397 136.692 72.3711C136.93 72.1024 137.224 71.8933 137.573 71.7437C137.922 71.5902 138.325 71.5134 138.782 71.5134C139.208 71.5134 139.582 71.5825 139.904 71.7206C140.23 71.8588 140.52 72.0545 140.773 72.3077L140.445 72.7567ZM144.263 71.5134C144.697 71.5134 145.088 71.5844 145.438 71.7264C145.791 71.8684 146.09 72.0698 146.336 72.3308C146.585 72.5917 146.777 72.9083 146.911 73.2805C147.046 73.6527 147.113 74.071 147.113 74.5353C147.113 74.9996 147.046 75.4179 146.911 75.7901C146.777 76.1623 146.585 76.4808 146.336 76.7456C146.09 77.0065 145.791 77.208 145.438 77.3499C145.088 77.4919 144.697 77.5629 144.263 77.5629C143.826 77.5629 143.431 77.4919 143.078 77.3499C142.729 77.208 142.429 77.0065 142.18 76.7456C141.93 76.4808 141.739 76.1623 141.604 75.7901C141.47 75.4179 141.403 74.9996 141.403 74.5353C141.403 74.071 141.47 73.6527 141.604 73.2805C141.739 72.9083 141.93 72.5917 142.18 72.3308C142.429 72.0698 142.729 71.8684 143.078 71.7264C143.431 71.5844 143.826 71.5134 144.263 71.5134ZM144.263 76.5959C144.793 76.5959 145.186 76.4194 145.443 76.0664C145.704 75.7095 145.835 75.2011 145.835 74.541C145.835 73.881 145.704 73.3726 145.443 73.0157C145.186 72.655 144.793 72.4747 144.263 72.4747C143.726 72.4747 143.327 72.655 143.066 73.0157C142.805 73.3726 142.675 73.881 142.675 74.541C142.675 75.2011 142.805 75.7095 143.066 76.0664C143.327 76.4194 143.726 76.5959 144.263 76.5959ZM152.198 72.538H149.539V77.4766H148.302V71.6055H152.198V72.538ZM157.723 77.4766H156.486V72.5668H154.851C154.805 73.2997 154.734 73.9328 154.638 74.4662C154.546 74.9958 154.435 75.4447 154.304 75.8131C154.174 76.1815 154.028 76.4808 153.867 76.711C153.706 76.9374 153.535 77.1139 153.355 77.2406C153.174 77.3672 152.988 77.4516 152.796 77.4938C152.608 77.536 152.418 77.5571 152.226 77.5571C151.854 77.5571 151.668 77.4957 151.668 77.373V76.5959H151.99C152.117 76.5959 152.246 76.5748 152.376 76.5326C152.51 76.4904 152.639 76.4079 152.762 76.2851C152.884 76.1585 153.001 75.9819 153.113 75.7555C153.228 75.5291 153.331 75.2317 153.424 74.8634C153.52 74.4912 153.602 74.0403 153.671 73.5107C153.74 72.9773 153.794 72.3423 153.832 71.6055H157.723V77.4766ZM163.08 73.8791C163.08 73.6719 163.049 73.48 162.988 73.3035C162.93 73.1232 162.844 72.9677 162.729 72.8373C162.613 72.703 162.47 72.5994 162.297 72.5265C162.128 72.4497 161.932 72.4113 161.71 72.4113C161.261 72.4113 160.908 72.5399 160.651 72.797C160.394 73.0541 160.231 73.4148 160.161 73.8791H163.08ZM160.127 74.6389C160.142 74.9727 160.194 75.2624 160.282 75.508C160.371 75.7498 160.488 75.9512 160.633 76.1124C160.783 76.2736 160.96 76.3944 161.163 76.475C161.37 76.5518 161.6 76.5901 161.854 76.5901C162.095 76.5901 162.305 76.5633 162.481 76.5096C162.658 76.452 162.811 76.3906 162.942 76.3254C163.072 76.2563 163.183 76.1949 163.275 76.1412C163.368 76.0836 163.452 76.0548 163.529 76.0548C163.628 76.0548 163.705 76.0932 163.759 76.17L164.11 76.6247C163.964 76.7974 163.799 76.9432 163.615 77.0621C163.431 77.1811 163.235 77.2789 163.028 77.3557C162.821 77.4286 162.608 77.4804 162.389 77.5111C162.17 77.5456 161.957 77.5629 161.75 77.5629C161.343 77.5629 160.965 77.4957 160.616 77.3614C160.271 77.2233 159.97 77.0218 159.712 76.7571C159.459 76.4923 159.26 76.1642 159.114 75.7728C158.972 75.3814 158.901 74.9305 158.901 74.4202C158.901 74.0134 158.964 73.6335 159.091 73.2805C159.221 72.9275 159.406 72.6205 159.643 72.3595C159.885 72.0986 160.177 71.8933 160.518 71.7437C160.864 71.5902 161.253 71.5134 161.687 71.5134C162.047 71.5134 162.381 71.5729 162.688 71.6919C162.995 71.807 163.26 71.9777 163.483 72.2041C163.705 72.4305 163.878 72.7087 164.001 73.0387C164.127 73.3649 164.191 73.7371 164.191 74.1554C164.191 74.3473 164.169 74.4758 164.127 74.541C164.085 74.6063 164.008 74.6389 163.897 74.6389H160.127ZM168.05 76.6477C168.583 76.6477 168.982 76.4808 169.247 76.1469C169.512 75.8093 169.644 75.3238 169.644 74.6907C169.644 74.0652 169.516 73.5836 169.259 73.246C169.002 72.9044 168.612 72.7337 168.09 72.7337C167.576 72.7337 167.177 72.891 166.893 73.2057C166.613 73.5203 166.473 73.9808 166.473 74.5871C166.473 75.2471 166.603 75.7555 166.864 76.1124C167.129 76.4693 167.524 76.6477 168.05 76.6477ZM168.459 70.4025C168.086 70.4294 167.766 70.5061 167.497 70.6328C167.233 70.7594 167.012 70.9301 166.835 71.145C166.663 71.3599 166.53 71.617 166.438 71.9163C166.35 72.2156 166.298 72.5495 166.283 72.9179C166.475 72.584 166.753 72.3173 167.117 72.1178C167.482 71.9183 167.908 71.8185 168.395 71.8185C168.787 71.8185 169.138 71.8876 169.449 72.0257C169.759 72.1638 170.022 72.3576 170.237 72.607C170.456 72.8565 170.623 73.1577 170.738 73.5107C170.857 73.8638 170.916 74.2552 170.916 74.6849C170.916 75.1224 170.847 75.5195 170.709 75.8764C170.575 76.2294 170.383 76.5326 170.134 76.7859C169.884 77.0353 169.583 77.2271 169.23 77.3614C168.877 77.4957 168.484 77.5629 168.05 77.5629C167.639 77.5629 167.259 77.4957 166.91 77.3614C166.561 77.2233 166.258 77.0027 166.001 76.6995C165.744 76.3925 165.542 75.9915 165.396 75.4965C165.254 75.0015 165.183 74.3952 165.183 73.6776C165.183 73.0714 165.239 72.5111 165.35 71.9969C165.462 71.4827 165.642 71.0338 165.891 70.65C166.141 70.2625 166.467 69.9516 166.87 69.7176C167.277 69.4797 167.772 69.3377 168.355 69.2916L170.444 69.1189L170.513 69.7636C170.529 69.9056 170.508 70.0245 170.45 70.1205C170.396 70.2164 170.301 70.2682 170.162 70.2759L168.459 70.4025ZM176.262 72.7567C176.224 72.8066 176.188 72.845 176.153 72.8718C176.119 72.8987 176.069 72.9121 176.003 72.9121C175.938 72.9121 175.869 72.8891 175.796 72.843C175.727 72.797 175.643 72.7471 175.543 72.6934C175.447 72.6358 175.33 72.584 175.192 72.538C175.054 72.4919 174.881 72.4689 174.674 72.4689C174.405 72.4689 174.169 72.5169 173.966 72.6128C173.766 72.7087 173.597 72.8469 173.459 73.0272C173.325 73.2037 173.223 73.4205 173.154 73.6776C173.089 73.9309 173.056 74.2168 173.056 74.5353C173.056 74.8653 173.093 75.1588 173.166 75.4159C173.239 75.673 173.342 75.8898 173.477 76.0664C173.615 76.2429 173.78 76.3772 173.972 76.4693C174.167 76.5614 174.386 76.6074 174.628 76.6074C174.866 76.6074 175.059 76.5786 175.209 76.5211C175.359 76.4635 175.483 76.4002 175.583 76.3311C175.683 76.2621 175.767 76.1987 175.836 76.1412C175.909 76.0836 175.986 76.0548 176.067 76.0548C176.166 76.0548 176.243 76.0932 176.297 76.17L176.648 76.6247C176.506 76.7974 176.349 76.9432 176.176 77.0621C176.003 77.1811 175.821 77.2789 175.629 77.3557C175.437 77.4286 175.238 77.4804 175.031 77.5111C174.823 77.5456 174.614 77.5629 174.403 77.5629C174.039 77.5629 173.697 77.4957 173.379 77.3614C173.064 77.2233 172.788 77.0257 172.55 76.7686C172.316 76.5076 172.13 76.1911 171.992 75.8189C171.857 75.4428 171.79 75.0149 171.79 74.5353C171.79 74.1017 171.851 73.7007 171.974 73.3323C172.097 72.9601 172.275 72.6397 172.51 72.3711C172.747 72.1024 173.041 71.8933 173.39 71.7437C173.739 71.5902 174.142 71.5134 174.599 71.5134C175.025 71.5134 175.399 71.5825 175.721 71.7206C176.048 71.8588 176.337 72.0545 176.59 72.3077L176.262 72.7567ZM181.178 71.9394C181.239 71.8396 181.322 71.759 181.425 71.6976C181.533 71.6362 181.644 71.6055 181.759 71.6055H182.726L181.281 73.81C181.189 73.9597 181.093 74.0806 180.993 74.1727C180.894 74.2648 180.771 74.3357 180.625 74.3856C180.813 74.4393 180.968 74.5219 181.091 74.6331C181.218 74.7406 181.331 74.8806 181.431 75.0533L182.887 77.4766H182.035C181.817 77.4766 181.646 77.4401 181.523 77.3672C181.404 77.2943 181.302 77.1868 181.218 77.0449L180.222 75.3296C180.142 75.1838 180.036 75.0763 179.906 75.0073C179.775 74.9382 179.627 74.9037 179.462 74.9037H178.881V77.4823H177.643V71.6055H178.881V74.0748H179.382C179.543 74.0748 179.677 74.0441 179.785 73.9827C179.892 73.9213 179.984 73.8273 180.061 73.7007L181.178 71.9394Z" fill="#110833"/>
</svg>
