<svg width="24" height="24" viewBox="0 0 24 24" fill="none" xmlns="http://www.w3.org/2000/svg">
<path fill-rule="evenodd" clip-rule="evenodd" d="M12.3291 21.8987L12.3314 21.8976L12.3371 21.8937L12.3543 21.881L12.4217 21.8337C12.4789 21.7926 12.5623 21.7326 12.6674 21.6537C12.8777 21.4971 13.176 21.2665 13.532 20.9704C14.4665 20.1938 15.3404 19.3507 16.1463 18.4481C18.0366 16.3225 20 13.2886 20 9.82016C20 7.7479 19.1577 5.75897 17.6583 4.29227C16.9172 3.56636 16.0357 2.99012 15.0646 2.59672C14.0935 2.20332 13.052 2.00052 12 2C10.948 2.00045 9.90654 2.20316 8.93546 2.59646C7.96438 2.98977 7.08289 3.56591 6.34171 4.29171C4.84081 5.76176 3.99899 7.74938 4 9.82072C4 13.2886 5.96343 16.3225 7.85371 18.4481C8.65964 19.3507 9.53348 20.1938 10.468 20.9704C10.8246 21.2665 11.1223 21.4971 11.3326 21.6537C11.4357 21.731 11.5399 21.807 11.6451 21.8815L11.6634 21.8937L11.6686 21.8976L11.6709 21.8987C11.868 22.0338 12.132 22.0338 12.3291 21.8987ZM14.8571 9.77794C14.8571 10.5147 14.5561 11.2212 14.0203 11.7422C13.4845 12.2631 12.7578 12.5558 12 12.5558C11.2422 12.5558 10.5155 12.2631 9.9797 11.7422C9.44388 11.2212 9.14286 10.5147 9.14286 9.77794C9.14286 9.04121 9.44388 8.33466 9.9797 7.81371C10.5155 7.29277 11.2422 7.0001 12 7.0001C12.7578 7.0001 13.4845 7.29277 14.0203 7.81371C14.5561 8.33466 14.8571 9.04121 14.8571 9.77794Z" fill="white"/>
</svg>
