<svg width="283" height="239" viewBox="0 0 283 239" fill="none" xmlns="http://www.w3.org/2000/svg">
<path fill-rule="evenodd" clip-rule="evenodd" d="M171.995 168.645L164.998 171.784C162.883 172.75 161.192 174.258 160.17 176.089L152.412 196.957C151.229 199.168 150.289 202.38 150.277 205.752C150.27 207.486 150.518 209.253 151.32 210.916C152.121 212.578 153.606 214.176 155.802 215.038C159.28 216.406 161.822 217.166 164.026 217.442C166.23 217.718 168.413 217.355 169.856 216.31C171.296 215.262 171.779 214.036 172.205 213.103C172.632 212.169 172.973 211.427 173.435 210.886C173.701 210.575 173.877 210.217 173.951 209.839C174.024 209.461 173.992 209.074 173.859 208.708L172.032 203.722L178.911 187.382L180.96 186.39L171.995 168.645ZM123.996 160.65C123.225 160.65 122.459 160.743 121.696 160.94C118.642 161.739 116.825 164.252 116.176 167.107C116.031 167.75 116.431 168.253 116.532 168.864L111.497 173.629L125.714 184.607C129.512 180.56 133.528 176.207 134.714 171.81C135.065 170.442 135.253 168.875 134.805 167.227C134.357 165.58 133.114 163.853 131.054 162.758C128.666 161.489 126.312 160.65 123.996 160.65ZM19.9889 160.646C17.6724 160.646 15.3167 161.483 12.9311 162.754C11.0587 163.755 9.70859 165.317 9.15423 167.123C8.67114 168.739 8.81983 170.284 9.13931 171.623C9.7744 174.299 11.5531 176.802 11.5531 176.802L18.2727 184.609L32.4923 173.627L27.5221 168.846C27.7792 168.349 27.9538 167.731 27.8112 167.103C27.1618 164.249 25.3455 161.734 22.2927 160.937C21.5467 160.742 20.7699 160.644 19.9889 160.646ZM233.303 155.531L223.054 157.501L214.854 161.558C213.183 162.421 211.26 162.879 209.299 162.879C207.338 162.88 205.414 162.424 203.743 161.561L199.213 159.733C198.038 159.795 196.782 159.862 195.629 159.924C192.504 160.089 189.456 160.815 186.693 162.053H186.686C183.631 163.424 181.346 164.448 177.225 166.297L186.114 183.892L189.64 182.185C190.155 188.936 190.896 194.834 191.397 199.201C192.015 204.599 192.129 209.388 190.469 217.165C190.145 218.688 191.535 220.086 193.375 220.086H229.05C230.85 220.086 232.232 218.748 231.977 217.25C229.318 201.719 233.347 194.148 232.58 177.724C232.561 177.31 233.191 176.596 234.159 176.32C236.052 175.779 237.611 175.334 240.301 174.562L233.303 155.531ZM88.1245 152.618L88.1654 153.454C88.0985 156.061 88.9558 158.491 90.6311 160.521C91.5398 161.636 92.1854 163.281 92.1854 165.137C92.1854 165.496 92.1595 165.854 92.1141 166.206L92.1186 166.19C92.1119 166.235 92.1081 166.283 92.1036 166.328C90.132 165.876 88.4263 165.979 86.3535 165.979C83.8729 167.523 79.4576 169.863 77.5789 170.753C74.1702 172.507 69.8627 172.502 66.4684 170.735C64.6029 169.848 60.2114 167.517 57.7435 165.975C55.8282 165.965 53.6626 165.907 51.9635 166.303L51.9226 165.135C51.9226 163.281 52.5676 161.632 53.4769 160.515C55.1478 158.487 56.0073 156.059 55.9404 153.454C55.9404 153.169 55.9531 152.893 55.9813 152.62C56.8182 153.92 57.8734 155.111 59.1142 156.157H59.1187V156.161C60.1053 156.995 61.323 157.764 62.6059 158.475V162.778L69.5664 166.509C70.3073 166.896 71.1618 167.102 72.0338 167.102C72.9058 167.103 73.7607 166.899 74.5024 166.513L81.3789 162.838V158.527C82.7049 157.804 83.9657 157.018 84.985 156.161C86.228 155.113 87.2854 153.92 88.1245 152.618ZM71.9957 123.736C74.5328 123.749 77.2273 124.652 80.2519 126.807C82.91 128.701 84.4344 131.459 84.4344 134.504C82.9382 135.8 81.5392 136.433 79.7467 136.42C77.6419 136.401 74.6146 135.509 70.5359 132.99C69.95 132.628 69.226 132.461 68.5027 132.521C67.7793 132.58 67.1074 132.861 66.6154 133.311C63.3526 136.283 61.701 136.175 61.0101 135.962C60.3192 135.75 59.6996 134.722 59.6952 134.248C59.7189 131.357 61.2108 128.655 63.7865 126.803C63.7901 126.801 63.7931 126.798 63.7953 126.794C66.7989 124.606 69.4542 123.738 71.9913 123.749L71.9957 123.736ZM72.0278 118.769C67.8027 118.75 63.6914 120.29 59.9373 123.027C58.0082 124.418 56.4598 126.145 55.398 128.087C54.3363 130.029 53.7863 132.141 53.7859 134.279C53.7643 137.433 53.7643 141.495 53.7643 144.68C51.3522 146.839 50.0312 149.958 50.0334 153.51C50.0743 155.137 49.5735 156.539 48.6167 157.696C48.6112 157.7 48.6063 157.705 48.6018 157.71C46.9347 159.757 46.0128 162.342 46.0128 165.137C46.0752 166.932 46.235 168.937 45.6955 170.513L39.5657 180.313L36.4223 177.341L21.766 188.656L32.84 201.489C33.8728 202.686 35.2517 203.643 36.8465 204.267C38.4412 204.891 40.199 205.163 41.9535 205.057C43.7059 204.949 45.3967 204.467 46.8666 203.657C48.3364 202.848 49.5369 201.736 50.3551 200.429L53.4725 195.442C54.2867 202.972 55.2584 209.586 54.5542 217.355C54.5232 217.697 54.5764 218.04 54.7105 218.363C54.8445 218.686 55.0566 218.983 55.3333 219.234C55.61 219.485 55.9454 219.685 56.3185 219.822C56.6915 219.959 57.0943 220.03 57.5014 220.03H86.4834C86.8905 220.03 87.2931 219.959 87.666 219.822C88.039 219.685 88.3743 219.485 88.651 219.234C88.9276 218.982 89.1397 218.686 89.2738 218.363C89.408 218.04 89.4613 217.697 89.4306 217.355C88.7264 209.584 89.6981 202.967 90.5123 195.435L93.6319 200.432C94.4505 201.74 95.6515 202.851 97.1217 203.661C98.5919 204.47 100.283 204.952 102.036 205.06C103.789 205.166 105.546 204.895 107.139 204.271C108.733 203.647 110.112 202.692 111.145 201.496L122.221 188.655L107.569 177.341L104.424 180.315L98.4838 170.807C97.9665 169.507 97.7969 168.127 97.9869 166.766V166.749C98.0566 166.213 98.092 165.674 98.0931 165.135C98.0931 162.34 97.1689 159.755 95.4974 157.701C94.5346 156.535 94.0316 155.135 94.0725 153.508C94.0791 149.957 92.7537 146.837 90.3437 144.676V134.379C90.3417 132.216 89.7794 130.079 88.6959 128.116C87.6124 126.154 86.0337 124.414 84.0696 123.017C80.321 120.348 76.2534 118.789 72.0278 118.769ZM208.551 114.766C209.404 114.774 210.231 114.877 210.985 115.07C212.977 115.587 215.698 116.695 219.839 117.541C222.596 118.104 225.222 118.3 227.197 118.362C227.176 121.746 226.461 124.666 225.025 127.515C224.581 126.782 223.948 126.046 223.319 125.634C222.549 125.138 221.32 124.799 220.2 124.92C214.195 125.576 210.71 124.864 208.055 124.191C206.725 123.854 205.621 123.482 204.229 123.297C202.834 123.113 200.8 123.388 199.472 124.385C197.498 125.864 196.499 127.795 195.77 129.569C194.502 125.794 195.094 123.695 195.903 122.4C196.735 121.071 197.998 120.442 198.581 120.212H198.587C199.362 119.903 200.243 119.208 200.606 118.581C202.126 115.923 205.507 114.737 208.553 114.766H208.551ZM258.731 110.123C258.507 110.123 258.28 110.133 258.047 110.147C256.197 110.272 254.007 111.127 252.699 112.774C252.105 113.521 251.982 114.216 251.803 114.901C249.905 115.447 247.45 116.502 245.934 119.451C244.276 122.689 245.317 125.966 246.439 128.38C247.271 130.17 247.882 130.863 248.35 131.486L242.767 153.71C242.404 153.781 239.943 154.255 239.079 154.42L245.902 172.963C250.212 171.73 256.339 169.978 256.339 169.978C258.293 169.418 260.026 168.418 261.35 167.087C262.674 165.755 263.537 164.144 263.846 162.428L269.233 132.362L269.341 131.935C272.31 128.25 273.45 125.167 274.109 120.003C274.519 116.824 272.291 113.78 268.724 112.662C266.942 112.105 264.757 111.398 262.763 110.792C261.653 110.452 260.297 110.118 258.731 110.123ZM208.331 109.751C206.737 109.751 205.019 109.971 203.168 110.518C198.377 111.934 196.151 114.351 195.402 116.063C194.01 116.717 192.077 117.841 190.674 120.085C189.063 122.662 188.487 126.407 190.205 131.274C191.03 133.605 192.902 135.158 194.215 136.004V137.776C194.215 141.764 195.815 145.606 198.799 148.519C199.466 149.168 200.252 149.781 201.09 150.354L201.048 155.035L206.824 157.319C207.565 157.707 208.42 157.912 209.292 157.913C210.164 157.914 211.02 157.711 211.762 157.325L219.75 153.386V150.302C220.562 149.742 221.32 149.148 221.968 148.515C224.95 145.604 226.556 141.762 226.556 137.776V135.43C231.263 129.511 233.778 123.37 233.12 115.7C233.063 115.049 232.705 114.444 232.123 114.014C231.541 113.583 230.78 113.363 230.006 113.399C230.006 113.399 225.479 113.577 221.234 112.711C219.42 112.303 212.291 109.749 208.331 109.749V109.751ZM166.472 86.6706C161.849 88.7917 157.22 90.7868 152.311 92.6267C150.734 94.8691 149.253 96.9827 147.47 98.9765C146.606 99.9387 145.997 100.725 144.535 101.431C142.87 102.282 140.959 102.73 139.011 102.727C137.062 102.724 135.153 102.269 133.492 101.413C132.285 100.825 131.568 100.157 130.626 99.3121C128.196 97.1259 126.269 94.9416 124.009 92.5068C119.298 91.0574 115.368 89.3072 111.542 87.2299L99.209 103.332C102.88 105.509 105.376 106.988 109.709 109.557C111.604 110.681 113.199 112.127 114.391 113.801C115.583 115.474 116.345 117.339 116.629 119.275C117.961 128.325 118.443 144.302 117.79 151.504C117.759 151.845 117.813 152.188 117.947 152.511C118.081 152.834 118.293 153.131 118.57 153.382C118.847 153.633 119.182 153.833 119.555 153.97C119.928 154.106 120.331 154.177 120.738 154.177H157.361C157.767 154.177 158.17 154.106 158.543 153.97C158.916 153.833 159.251 153.633 159.528 153.382C159.804 153.131 160.016 152.834 160.15 152.511C160.284 152.188 160.337 151.845 160.306 151.504C159.654 144.302 160.131 128.325 161.465 119.275C161.749 117.34 162.512 115.476 163.703 113.803C164.894 112.13 166.489 110.685 168.383 109.56C172.12 107.347 175.497 105.342 179.052 103.236L166.472 86.6706ZM134.302 56.294C135.204 56.294 135.994 56.5757 136.672 57.0843C137.786 57.8303 139.38 57.921 140.55 57.0387C141.184 56.5574 142.01 56.2931 142.865 56.2978C143.578 56.2962 144.274 56.4802 144.858 56.8245C145.442 57.1688 145.885 57.6565 146.127 58.2208C146.345 58.7241 146.752 59.1545 147.285 59.448C147.818 59.7415 148.449 59.8824 149.085 59.8496C149.15 59.8459 149.219 59.8422 149.288 59.8422C151.235 59.8422 152.755 61.1242 152.755 62.7619C152.755 64.3995 151.233 65.6783 149.288 65.6783C149.577 65.6783 148.461 65.3022 147.416 64.4488C146.893 64.0221 146.393 63.5665 145.784 63.1198C145.479 62.8962 145.168 62.6605 144.579 62.417C143.987 62.172 142.646 61.8452 141.371 62.4713C139.926 63.1798 139.166 63.0361 138.157 62.8381C137.652 62.7405 137.287 62.5443 136.152 62.4806C135.584 62.45 134.464 62.495 133.528 63.2323C132.591 63.9714 132.453 64.8974 132.453 65.4347C132.453 65.9144 132.196 66.3537 131.563 66.7911C130.929 67.2272 129.953 67.5321 129.059 67.5321C127.114 67.5321 125.587 66.2538 125.587 64.6161C125.585 63.935 125.867 63.2748 126.384 62.7508C126.901 62.2268 127.621 61.8722 128.418 61.749C129.832 61.5272 130.851 60.4813 130.832 59.243C130.832 57.5761 132.354 56.294 134.302 56.294ZM134.302 51.3281C129.88 51.3281 126.304 54.0079 125.337 57.4943C122.035 58.7238 119.68 61.4129 119.68 64.618C119.68 67.4303 121.485 69.9 124.151 71.2983L124.123 71.3071V75.302C124.123 78.7883 125.654 82.1421 128.441 84.6514V84.6569C128.776 84.9523 129.127 85.2334 129.495 85.4992L129.48 90.382C131.641 92.8624 133.88 94.7836 136.513 97.1571C138.011 98.1174 140.06 98.07 141.55 97.1603L148.614 90.382V85.601C148.614 85.1362 149.439 84.9874 149.806 84.6569L149.812 84.6514C152.6 82.1421 154.131 78.7883 154.131 75.302V69.5058L154.086 69.4933C156.812 68.1076 158.669 65.6146 158.669 62.7619C158.669 58.7507 154.984 55.5243 150.355 55.0557C148.666 52.9314 146.105 51.3281 142.867 51.3281C141.305 51.3281 139.891 51.7455 138.587 52.321C137.281 51.7455 135.867 51.3281 134.305 51.3281H134.302ZM75.7913 39.9464L77.2467 51.9742C77.4346 53.5068 79.2133 54.5276 80.9776 54.1153C84.4129 53.3107 87.7918 52.6008 91.1491 51.9329V53.6593C91.1491 54.9413 90.0762 55.9947 88.5711 56.1908C87.2866 56.3559 85.9998 56.5376 84.713 56.7301C84.5793 56.572 84.4709 56.3921 84.3222 56.2434C82.4545 54.5871 80.159 54.179 77.7823 55.1031C76.003 55.8059 74.7831 56.8551 73.6324 57.8141C72.4794 58.7744 71.4082 59.686 70.8902 60.0021L65.7061 61.3692C65.2269 61.4784 63.7998 61.6165 62.9314 61.6397L65.7189 52.3322C65.8987 51.7306 65.8057 51.0942 65.458 50.5472L60.6193 42.9698C65.8554 41.7407 70.8256 40.7836 75.7913 39.9464ZM139.047 18.9141C118.223 18.9053 97.3977 21.3276 76.5989 26.1991C75.927 26.3561 75.3427 26.7077 74.9491 27.1918C74.5556 27.676 74.3782 28.2615 74.4482 28.845L75.1911 34.9786C68.472 36.1114 61.5756 37.4697 55.4115 38.9698C53.6062 39.4109 52.7451 41.1378 53.6344 42.5305L59.7123 52.0523L56.1693 63.8808C55.6143 65.7401 57.6655 67.4033 59.8549 66.8711C60.6343 66.6805 62.1023 66.7386 63.8816 66.6261C64.9765 69.2172 66.9282 71.5126 68.3941 73.2176C74.8715 80.7223 81.349 88.2268 87.8266 95.7314C89.1111 96.9428 90.331 98.1992 92.0666 99.0978C92.0843 99.1071 94.0426 100.269 94.377 100.467L106.671 84.412C106.38 84.2284 105.706 83.8179 105.665 83.7928C99.4965 76.7964 93.2478 71.3401 87.6663 63.8226L87.0964 62.9599C87.0036 62.4188 86.8958 61.9484 86.7902 61.4673C87.6862 61.3385 88.58 61.2149 89.4737 61.0987C93.8199 60.5357 97.0589 57.3548 97.0589 53.6593V50.8103C125.816 45.7207 152.276 45.75 181.037 50.8289C181.037 51.4587 181.037 51.5656 181.044 52.4158C181.044 56.8007 184.857 60.5776 190.007 61.286C190.441 61.346 190.875 61.4055 191.311 61.4691C191.203 61.9433 191.097 62.41 191.002 62.9436C185.198 70.3867 179.17 76.7202 172.498 83.7128C172.442 83.7417 171.803 84.0615 171.587 84.1721L183.886 100.369C184.093 100.247 184.67 99.9043 184.846 99.7988C196.028 91.5459 203.639 80.2409 209.702 73.2176C211.993 70.5629 213.34 68.7253 214.063 67.071C214.225 66.7024 214.346 66.3337 214.437 65.9595C215.707 66.2575 216.974 66.5624 218.239 66.8711C220.374 67.394 222.404 65.8201 221.959 63.9877L218.822 51.1338L224.449 42.556C225.362 41.1634 224.503 39.4183 222.687 38.9716C218.619 37.9745 214.189 37.0304 209.655 36.1733C209.276 36.1017 208.884 36.0936 208.502 36.1494C208.119 36.2052 207.754 36.3239 207.426 36.4986C207.098 36.6733 206.814 36.9006 206.591 37.1676C206.368 37.4346 206.209 37.7359 206.124 38.0545C205.953 38.6971 206.092 39.3708 206.51 39.9275C206.929 40.4841 207.593 40.8783 208.357 41.0235C211.531 41.6226 214.478 42.2981 217.43 42.966L213.124 49.5375C212.783 50.0554 212.673 50.6587 212.814 51.2389L215.206 61.0317L206.494 59.4754C205.917 59.0399 205.226 58.4839 204.421 57.8341C203.259 56.8951 202.022 55.871 200.239 55.203C197.922 54.3766 195.417 54.7726 193.761 56.367C193.647 56.4814 193.567 56.6194 193.459 56.7389C192.626 56.6157 191.79 56.4958 190.957 56.3796C188.623 56.0597 186.95 54.4021 186.95 52.4121V51.9543C190.309 52.619 193.69 53.3274 197.125 54.126C198.889 54.5383 200.668 53.5143 200.854 51.9835L203.65 28.852C203.721 28.2682 203.544 27.6822 203.151 27.1976C202.757 26.713 202.172 26.3613 201.5 26.2047C180.703 21.3638 159.876 18.929 139.049 18.9215L139.047 18.9141Z" fill="#E4D8FA"/>
</svg>
