<svg width="115" height="93" viewBox="0 0 115 93" fill="none" xmlns="http://www.w3.org/2000/svg">
<path d="M23.7246 34.4941C23.7246 29.1891 28.0252 24.8885 33.3302 24.8885C36.0866 24.8885 38.5337 23.1247 39.4053 20.5098L39.7234 19.5556C39.8734 19.1056 39.9484 18.8806 40.0286 18.681C41.0533 16.1323 43.4543 14.4017 46.1962 14.2357C46.4109 14.2227 46.6481 14.2227 47.1225 14.2227H71.4325C71.9069 14.2227 72.144 14.2227 72.3588 14.2357C75.1007 14.4017 77.5017 16.1323 78.5263 18.681C78.6066 18.8806 78.6816 19.1056 78.8316 19.5556L79.1497 20.5098C80.0213 23.1247 82.4684 24.8885 85.2248 24.8885C90.5298 24.8885 94.8304 29.1891 94.8304 34.4941V64.7078C94.8304 70.6812 94.8304 73.6679 93.6679 75.9495C92.6453 77.9564 91.0136 79.5881 89.0067 80.6106C86.7252 81.7731 83.7384 81.7731 77.765 81.7731H40.79C34.8165 81.7731 31.8298 81.7731 29.5483 80.6106C27.5414 79.5881 25.9097 77.9564 24.8871 75.9495C23.7246 73.6679 23.7246 70.6812 23.7246 64.7078V34.4941Z" stroke="white" stroke-width="6" stroke-linecap="round" stroke-linejoin="round"/>
<path d="M59.2775 65.7743C68.1134 65.7743 75.2763 58.6114 75.2763 49.7755C75.2763 40.9396 68.1134 33.7767 59.2775 33.7767C50.4416 33.7767 43.2787 40.9396 43.2787 49.7755C43.2787 58.6114 50.4416 65.7743 59.2775 65.7743Z" stroke="white" stroke-width="6" stroke-linecap="round" stroke-linejoin="round"/>
</svg>
