<svg width="28" height="28" viewBox="0 0 28 28" fill="none" xmlns="http://www.w3.org/2000/svg">
<path fill-rule="evenodd" clip-rule="evenodd" d="M13.1643 6.125C15.5722 6.125 17.887 7.0556 19.6248 8.72232L22.7501 11.7197C22.7501 11.7197 23.9305 12.3561 25.2255 12.5417C26.5205 12.7273 28.0001 14.6289 28.0001 16.0416V17.7915V18.2857C28.0001 18.6978 27.7672 19.0746 27.3986 19.2589L27.1663 19.375C26.8715 19.5224 26.5619 19.6353 26.2437 19.7121C26.2479 19.6363 26.25 19.5599 26.25 19.4831C26.25 17.2279 24.4218 15.3997 22.1667 15.3997C19.9115 15.3997 18.0833 17.2279 18.0833 19.4831C18.0833 19.601 18.0883 19.7178 18.0981 19.8332H18.0346H9.95278H9.90187C9.91167 19.7178 9.91667 19.601 9.91667 19.4831C9.91667 17.2279 8.0885 15.3997 5.83333 15.3997C3.57817 15.3997 1.75 17.2279 1.75 19.4831L1.7501 19.5126L0.81429 19.2161C0.329455 19.0625 -4.23783e-06 18.6125 0 18.104L5.65051e-05 13.072C5.65051e-05 11.6593 1.13278 10.5266 2.54551 10.5266H3.81824C5.42854 7.79881 8.36037 6.125 11.528 6.125H13.1643ZM12.0895 8.08793C9.60139 8.1225 7.27602 9.34212 5.83333 11.3749L11.7042 11.5556L12.0895 8.08793ZM14.4137 8.29968L14.0439 11.6276L19.6213 11.7993L18.8547 10.9339C17.6752 9.60221 16.1175 8.68932 14.4137 8.29968ZM5.83333 21.875C7.122 21.875 8.16667 20.8303 8.16667 19.5417C8.16667 18.253 7.122 17.2083 5.83333 17.2083C4.54467 17.2083 3.5 18.253 3.5 19.5417C3.5 20.8303 4.54467 21.875 5.83333 21.875ZM22.1667 21.875C23.4553 21.875 24.5 20.8303 24.5 19.5417C24.5 18.253 23.4553 17.2083 22.1667 17.2083C20.878 17.2083 19.8333 18.253 19.8333 19.5417C19.8333 20.8303 20.878 21.875 22.1667 21.875Z" fill="#110833"/>
</svg>
