<svg width="163" height="99" viewBox="0 0 163 99" fill="none" xmlns="http://www.w3.org/2000/svg">
<g filter="url(#filter0_d_2237_14050)">
<path d="M104.752 72.3704C95.0632 73.6587 86.5509 77.3134 82.5854 83.8632C82.1251 84.6234 80.8749 84.6234 80.4146 83.8632C76.4491 77.3134 67.9368 73.6587 58.248 72.3704C54.5067 71.8729 17.6649 71.7781 17.5594 71.7778H17.5592H17.5584C13.384 71.7778 10.0001 68.3937 10.0003 64.2194L10.0004 61.1111L10 13.7037C10 13.6854 10.0001 13.6667 10.0004 13.6476V13.5588C10.0004 9.3842 13.3846 6 17.5592 6H81.5H144.283H145.296C149.551 6 153 9.44907 153 13.7037V61.1111V63.0627C153 67.8759 149.098 71.7778 144.285 71.7778H144.283C144.237 71.778 107.595 71.9923 104.752 72.3704Z" fill="white"/>
</g>
<path d="M72.7135 29.6562H71.3035V22.1142H67.2895V29.6562H65.8795V21.0162H72.7135V29.6562ZM78.3488 25.9062C78.3488 25.6902 78.3168 25.4902 78.2528 25.3062C78.1928 25.1182 78.1028 24.9562 77.9828 24.8202C77.8628 24.6802 77.7128 24.5722 77.5328 24.4962C77.3568 24.4162 77.1528 24.3762 76.9208 24.3762C76.4528 24.3762 76.0848 24.5102 75.8168 24.7782C75.5488 25.0462 75.3788 25.4222 75.3068 25.9062H78.3488ZM75.2708 26.6982C75.2868 27.0462 75.3408 27.3482 75.4328 27.6042C75.5248 27.8562 75.6468 28.0662 75.7988 28.2342C75.9548 28.4022 76.1388 28.5282 76.3508 28.6122C76.5668 28.6922 76.8068 28.7322 77.0708 28.7322C77.3228 28.7322 77.5408 28.7042 77.7248 28.6482C77.9088 28.5882 78.0688 28.5242 78.2048 28.4562C78.3408 28.3842 78.4568 28.3202 78.5528 28.2642C78.6488 28.2042 78.7368 28.1742 78.8168 28.1742C78.9208 28.1742 79.0008 28.2142 79.0568 28.2942L79.4228 28.7682C79.2708 28.9482 79.0988 29.1002 78.9068 29.2242C78.7148 29.3482 78.5108 29.4502 78.2948 29.5302C78.0788 29.6062 77.8568 29.6602 77.6288 29.6923C77.4008 29.7283 77.1788 29.7463 76.9628 29.7463C76.5388 29.7463 76.1448 29.6762 75.7808 29.5362C75.4208 29.3922 75.1068 29.1822 74.8388 28.9062C74.5748 28.6302 74.3668 28.2882 74.2148 27.8802C74.0668 27.4722 73.9928 27.0022 73.9928 26.4702C73.9928 26.0462 74.0588 25.6502 74.1908 25.2822C74.3268 24.9142 74.5188 24.5942 74.7668 24.3222C75.0188 24.0502 75.3228 23.8362 75.6788 23.6802C76.0388 23.5202 76.4448 23.4402 76.8968 23.4402C77.2728 23.4402 77.6208 23.5022 77.9408 23.6263C78.2608 23.7462 78.5368 23.9242 78.7688 24.1602C79.0008 24.3962 79.1808 24.6862 79.3088 25.0302C79.4408 25.3702 79.5068 25.7582 79.5068 26.1942C79.5068 26.3942 79.4848 26.5282 79.4408 26.5962C79.3968 26.6642 79.3168 26.6982 79.2008 26.6982H75.2708ZM85.9298 23.5362V29.6562H84.6458V26.8782H81.9998V29.6562H80.7098V23.5362H81.9998V25.9062H84.6458V23.5362H85.9298ZM87.1347 24.1842C87.3667 23.9642 87.6507 23.7862 87.9867 23.6502C88.3227 23.5102 88.7247 23.4402 89.1927 23.4402C89.5687 23.4402 89.9007 23.4862 90.1887 23.5782C90.4767 23.6662 90.7187 23.7862 90.9147 23.9382C91.1107 24.0862 91.2587 24.2582 91.3587 24.4542C91.4627 24.6502 91.5147 24.8542 91.5147 25.0662C91.5147 25.1862 91.4967 25.3102 91.4607 25.4382C91.4247 25.5622 91.3647 25.6842 91.2807 25.8042C91.2007 25.9242 91.0927 26.0362 90.9567 26.1402C90.8247 26.2442 90.6607 26.3302 90.4647 26.3982C90.8287 26.5182 91.1167 26.7042 91.3287 26.9562C91.5407 27.2042 91.6467 27.5142 91.6467 27.8862C91.6467 28.1782 91.5787 28.4402 91.4427 28.6722C91.3107 28.9002 91.1327 29.0942 90.9087 29.2542C90.6887 29.4142 90.4327 29.5362 90.1407 29.6202C89.8527 29.7043 89.5527 29.7463 89.2407 29.7463C89.0527 29.7463 88.8567 29.7283 88.6527 29.6923C88.4527 29.6602 88.2527 29.6062 88.0527 29.5302C87.8567 29.4502 87.6667 29.3482 87.4827 29.2242C87.2987 29.1002 87.1327 28.9482 86.9847 28.7682L87.3567 28.2942C87.4047 28.2142 87.4847 28.1742 87.5967 28.1742C87.6767 28.1742 87.7587 28.2042 87.8427 28.2642C87.9267 28.3242 88.0247 28.3902 88.1367 28.4622C88.2527 28.5342 88.3907 28.6002 88.5507 28.6602C88.7147 28.7202 88.9167 28.7502 89.1567 28.7502C89.3567 28.7502 89.5347 28.7262 89.6907 28.6782C89.8467 28.6302 89.9787 28.5622 90.0867 28.4742C90.1947 28.3862 90.2767 28.2842 90.3327 28.1682C90.3887 28.0482 90.4167 27.9182 90.4167 27.7782C90.4167 27.5062 90.3047 27.2922 90.0807 27.1362C89.8607 26.9762 89.5127 26.8962 89.0367 26.8962H88.3467V26.0442H89.0367C89.4527 26.0442 89.7747 25.9682 90.0027 25.8162C90.2307 25.6642 90.3447 25.4662 90.3447 25.2222C90.3447 25.0022 90.2447 24.8162 90.0447 24.6642C89.8487 24.5122 89.5527 24.4362 89.1567 24.4362C88.9327 24.4362 88.7407 24.4602 88.5807 24.5082C88.4247 24.5522 88.2927 24.6022 88.1847 24.6582C88.0767 24.7102 87.9847 24.7582 87.9087 24.8022C87.8367 24.8462 87.7727 24.8682 87.7167 24.8682C87.6567 24.8682 87.6047 24.8562 87.5607 24.8322C87.5207 24.8082 87.4767 24.7582 87.4287 24.6822L87.1347 24.1842ZM96.1673 26.9802C95.7073 26.9962 95.3193 27.0342 95.0033 27.0942C94.6873 27.1502 94.4313 27.2242 94.2353 27.3162C94.0393 27.4042 93.8973 27.5102 93.8093 27.6342C93.7253 27.7582 93.6833 27.8942 93.6833 28.0422C93.6833 28.1862 93.7053 28.3102 93.7493 28.4142C93.7973 28.5142 93.8613 28.5982 93.9413 28.6662C94.0253 28.7302 94.1213 28.7782 94.2293 28.8102C94.3413 28.8382 94.4633 28.8522 94.5953 28.8522C94.9313 28.8522 95.2193 28.7902 95.4593 28.6662C95.7033 28.5382 95.9393 28.3542 96.1673 28.1143V26.9802ZM92.7473 24.3882C93.4393 23.7442 94.2633 23.4222 95.2193 23.4222C95.5713 23.4222 95.8833 23.4802 96.1553 23.5963C96.4313 23.7082 96.6613 23.8682 96.8453 24.0762C97.0333 24.2842 97.1753 24.5322 97.2713 24.8202C97.3713 25.1042 97.4213 25.4202 97.4213 25.7682V29.6562H96.8453C96.7213 29.6562 96.6273 29.6382 96.5633 29.6022C96.4993 29.5622 96.4453 29.4842 96.4013 29.3682L96.2753 28.8702C96.1193 29.0102 95.9653 29.1362 95.8133 29.2482C95.6613 29.3562 95.5033 29.4482 95.3393 29.5242C95.1793 29.6002 95.0053 29.6562 94.8173 29.6923C94.6333 29.7323 94.4293 29.7523 94.2053 29.7523C93.9573 29.7523 93.7253 29.7183 93.5093 29.6502C93.2973 29.5822 93.1133 29.4802 92.9573 29.3442C92.8013 29.2042 92.6773 29.0322 92.5853 28.8282C92.4973 28.6242 92.4533 28.3842 92.4533 28.1082C92.4533 27.8722 92.5153 27.6422 92.6393 27.4182C92.7673 27.1942 92.9753 26.9942 93.2633 26.8182C93.5553 26.6382 93.9373 26.4902 94.4093 26.3742C94.8853 26.2582 95.4713 26.1922 96.1673 26.1762V25.7682C96.1673 25.3282 96.0733 25.0002 95.8853 24.7842C95.6973 24.5682 95.4213 24.4602 95.0573 24.4602C94.8093 24.4602 94.6013 24.4922 94.4333 24.5562C94.2653 24.6162 94.1193 24.6822 93.9953 24.7542C93.8713 24.8262 93.7613 24.8942 93.6653 24.9582C93.5693 25.0182 93.4673 25.0482 93.3593 25.0482C93.2713 25.0482 93.1953 25.0262 93.1313 24.9822C93.0713 24.9342 93.0213 24.8762 92.9813 24.8082L92.7473 24.3882Z" fill="#110833"/>
<path fill-rule="evenodd" clip-rule="evenodd" d="M35.5486 43.5938C36.8379 43.5938 38.0773 44.092 39.0077 44.9844L40.6811 46.5894C40.6811 46.5894 41.3132 46.9301 42.0065 47.0294C42.6999 47.1288 43.4921 48.147 43.4921 48.9034V49.8404V50.105C43.4921 50.3257 43.3675 50.5274 43.1701 50.626L43.0457 50.6882C42.8876 50.7673 42.7216 50.8278 42.5509 50.8689C42.5532 50.8279 42.5543 50.7865 42.5543 50.7449C42.5543 49.5375 41.5755 48.5586 40.368 48.5586C39.1605 48.5586 38.1816 49.5375 38.1816 50.7449C38.1816 50.8085 38.1843 50.8714 38.1897 50.9336H38.1563H33.829H33.8012C33.8065 50.8714 33.8092 50.8085 33.8092 50.7449C33.8092 49.5375 32.8303 48.5586 31.6229 48.5586C30.4154 48.5586 29.4365 49.5375 29.4365 50.7449L29.4366 50.7618L28.936 50.6032C28.6764 50.5209 28.5 50.28 28.5 50.0077L28.5 47.3134C28.5 46.557 29.1065 45.9505 29.8629 45.9505H30.5444C31.4066 44.49 32.9764 43.5938 34.6724 43.5938H35.5486ZM34.4845 44.6802C33.3407 44.8311 32.3005 45.4506 31.6233 46.4047L34.2838 46.4866L34.4845 44.6802ZM35.7421 44.6758L35.5366 46.5252L39.0059 46.632L38.5954 46.1686C37.8556 45.3333 36.8379 44.8058 35.7421 44.6758ZM31.6234 52.026C32.3134 52.026 32.8727 51.4667 32.8727 50.7767C32.8727 50.0867 32.3134 49.5273 31.6234 49.5273C30.9334 49.5273 30.374 50.0867 30.374 50.7767C30.374 51.4667 30.9334 52.026 31.6234 52.026ZM40.3685 52.026C41.0585 52.026 41.6178 51.4667 41.6178 50.7767C41.6178 50.0867 41.0585 49.5273 40.3685 49.5273C39.6785 49.5273 39.1191 50.0867 39.1191 50.7767C39.1191 51.4667 39.6785 52.026 40.3685 52.026Z" fill="#888499"/>
<path opacity="0.5" d="M47.237 46.0737C47.293 45.6817 47.401 45.3357 47.561 45.0357C47.721 44.7317 47.923 44.4777 48.167 44.2737C48.415 44.0697 48.697 43.9157 49.013 43.8117C49.333 43.7037 49.677 43.6497 50.045 43.6497C50.409 43.6497 50.745 43.7017 51.053 43.8057C51.361 43.9097 51.625 44.0577 51.845 44.2497C52.069 44.4417 52.243 44.6737 52.367 44.9457C52.491 45.2177 52.553 45.5197 52.553 45.8517C52.553 46.1237 52.517 46.3677 52.445 46.5837C52.377 46.7957 52.277 46.9817 52.145 47.1417C52.017 47.3017 51.861 47.4377 51.677 47.5497C51.493 47.6617 51.287 47.7537 51.059 47.8257C51.619 47.9697 52.039 48.2177 52.319 48.5697C52.603 48.9177 52.745 49.3537 52.745 49.8777C52.745 50.2737 52.669 50.6297 52.517 50.9457C52.369 51.2617 52.165 51.5317 51.905 51.7557C51.645 51.9757 51.341 52.1457 50.993 52.2657C50.649 52.3818 50.279 52.4398 49.883 52.4398C49.427 52.4398 49.037 52.3838 48.713 52.2717C48.389 52.1557 48.115 51.9977 47.891 51.7977C47.667 51.5977 47.483 51.3617 47.339 51.0897C47.195 50.8137 47.073 50.5157 46.973 50.1957L47.435 50.0037C47.555 49.9517 47.671 49.9377 47.783 49.9617C47.899 49.9857 47.983 50.0517 48.035 50.1597C48.087 50.2717 48.151 50.4057 48.227 50.5617C48.307 50.7177 48.415 50.8677 48.551 51.0117C48.687 51.1557 48.859 51.2777 49.067 51.3777C49.279 51.4777 49.547 51.5277 49.871 51.5277C50.171 51.5277 50.433 51.4797 50.657 51.3837C50.885 51.2837 51.073 51.1557 51.221 50.9997C51.373 50.8437 51.487 50.6697 51.563 50.4777C51.639 50.2857 51.677 50.0957 51.677 49.9077C51.677 49.6757 51.647 49.4637 51.587 49.2717C51.527 49.0797 51.415 48.9137 51.251 48.7737C51.087 48.6337 50.861 48.5237 50.573 48.4437C50.289 48.3637 49.923 48.3237 49.475 48.3237V47.5497C49.843 47.5457 50.155 47.5057 50.411 47.4297C50.671 47.3537 50.881 47.2497 51.041 47.1177C51.205 46.9857 51.323 46.8277 51.395 46.6437C51.471 46.4597 51.509 46.2557 51.509 46.0317C51.509 45.7837 51.469 45.5677 51.389 45.3837C51.313 45.1997 51.207 45.0477 51.071 44.9277C50.935 44.8077 50.773 44.7177 50.585 44.6577C50.401 44.5977 50.201 44.5677 49.985 44.5677C49.769 44.5677 49.567 44.5997 49.379 44.6637C49.195 44.7277 49.031 44.8177 48.887 44.9337C48.747 45.0457 48.629 45.1797 48.533 45.3357C48.437 45.4917 48.369 45.6637 48.329 45.8517C48.277 45.9917 48.211 46.0857 48.131 46.1337C48.055 46.1777 47.943 46.1897 47.795 46.1697L47.237 46.0737ZM56.886 51.5518C57.174 51.5518 57.434 51.5058 57.666 51.4137C57.902 51.3217 58.102 51.1937 58.266 51.0297C58.434 50.8657 58.562 50.6717 58.65 50.4477C58.742 50.2237 58.788 49.9797 58.788 49.7157C58.788 49.4357 58.744 49.1837 58.656 48.9597C58.568 48.7317 58.442 48.5397 58.278 48.3837C58.118 48.2237 57.926 48.1017 57.702 48.0177C57.478 47.9337 57.232 47.8917 56.964 47.8917C56.676 47.8917 56.416 47.9417 56.184 48.0417C55.952 48.1377 55.754 48.2697 55.59 48.4377C55.43 48.6017 55.306 48.7937 55.218 49.0137C55.134 49.2297 55.092 49.4557 55.092 49.6917C55.092 49.9677 55.132 50.2197 55.212 50.4477C55.292 50.6757 55.408 50.8717 55.56 51.0357C55.716 51.1997 55.904 51.3277 56.124 51.4197C56.348 51.5077 56.602 51.5518 56.886 51.5518ZM56.262 46.9677C56.186 47.0637 56.112 47.1577 56.04 47.2497C55.972 47.3377 55.906 47.4257 55.842 47.5137C56.046 47.3737 56.27 47.2657 56.514 47.1897C56.758 47.1137 57.024 47.0757 57.312 47.0757C57.66 47.0757 57.988 47.1337 58.296 47.2497C58.604 47.3617 58.872 47.5277 59.1 47.7477C59.332 47.9637 59.516 48.2317 59.652 48.5517C59.788 48.8677 59.856 49.2297 59.856 49.6377C59.856 50.0337 59.784 50.4017 59.64 50.7417C59.496 51.0817 59.294 51.3777 59.034 51.6297C58.778 51.8817 58.468 52.0797 58.104 52.2237C57.744 52.3678 57.346 52.4398 56.91 52.4398C56.478 52.4398 56.086 52.3718 55.734 52.2357C55.382 52.0957 55.082 51.8997 54.834 51.6477C54.59 51.3917 54.4 51.0837 54.264 50.7237C54.132 50.3597 54.066 49.9537 54.066 49.5057C54.066 49.1297 54.148 48.7297 54.312 48.3057C54.48 47.8777 54.746 47.4217 55.11 46.9377L57.294 44.0037C57.35 43.9317 57.426 43.8717 57.522 43.8237C57.622 43.7717 57.736 43.7457 57.864 43.7457H58.812L56.262 46.9677ZM66.9789 48.0477C66.9789 48.7997 66.8969 49.4517 66.7329 50.0037C66.5729 50.5517 66.3529 51.0057 66.0729 51.3657C65.7929 51.7257 65.4609 51.9937 65.0769 52.1697C64.6969 52.3458 64.2889 52.4338 63.8529 52.4338C63.4129 52.4338 63.0029 52.3458 62.6229 52.1697C62.2469 51.9937 61.9189 51.7257 61.6389 51.3657C61.3589 51.0057 61.1389 50.5517 60.9789 50.0037C60.8189 49.4517 60.7389 48.7997 60.7389 48.0477C60.7389 47.2957 60.8189 46.6437 60.9789 46.0917C61.1389 45.5397 61.3589 45.0837 61.6389 44.7237C61.9189 44.3597 62.2469 44.0897 62.6229 43.9137C63.0029 43.7377 63.4129 43.6497 63.8529 43.6497C64.2889 43.6497 64.6969 43.7377 65.0769 43.9137C65.4609 44.0897 65.7929 44.3597 66.0729 44.7237C66.3529 45.0837 66.5729 45.5397 66.7329 46.0917C66.8969 46.6437 66.9789 47.2957 66.9789 48.0477ZM65.8689 48.0477C65.8689 47.3917 65.8129 46.8417 65.7009 46.3977C65.5929 45.9497 65.4449 45.5897 65.2569 45.3177C65.0729 45.0457 64.8589 44.8517 64.6149 44.7357C64.3709 44.6157 64.1169 44.5557 63.8529 44.5557C63.5889 44.5557 63.3349 44.6157 63.0909 44.7357C62.8469 44.8517 62.6329 45.0457 62.4489 45.3177C62.2649 45.5897 62.1169 45.9497 62.0049 46.3977C61.8969 46.8417 61.8429 47.3917 61.8429 48.0477C61.8429 48.7037 61.8969 49.2537 62.0049 49.6977C62.1169 50.1417 62.2649 50.4997 62.4489 50.7717C62.6329 51.0437 62.8469 51.2397 63.0909 51.3597C63.3349 51.4757 63.5889 51.5337 63.8529 51.5337C64.1169 51.5337 64.3709 51.4757 64.6149 51.3597C64.8589 51.2397 65.0729 51.0437 65.2569 50.7717C65.4449 50.4997 65.5929 50.1417 65.7009 49.6977C65.8129 49.2537 65.8689 48.7037 65.8689 48.0477ZM74.9462 46.5657C75.0022 46.4777 75.0762 46.4057 75.1682 46.3497C75.2602 46.2937 75.3582 46.2657 75.4622 46.2657H76.2962L74.7182 48.5817C74.6222 48.7297 74.5222 48.8517 74.4182 48.9477C74.3142 49.0397 74.1862 49.1117 74.0342 49.1637C74.2262 49.2157 74.3882 49.2977 74.5202 49.4097C74.6522 49.5177 74.7702 49.6577 74.8742 49.8297L76.4702 52.3438H75.7262C75.5342 52.3438 75.3862 52.3117 75.2822 52.2477C75.1782 52.1837 75.0882 52.0917 75.0122 51.9717L73.8302 50.0817C73.6422 49.7697 73.3602 49.6137 72.9842 49.6137H72.3302V52.3498H71.2562V46.2657H72.3302V48.8937H72.9062C73.2262 48.8937 73.4762 48.7577 73.6562 48.4857L74.9462 46.5657ZM84.2411 46.2477V52.3438H83.2751V48.3057C83.2751 48.1937 83.2811 48.0697 83.2931 47.9337C83.3091 47.7937 83.3291 47.6637 83.3531 47.5437L81.2411 51.2457C81.2091 51.3057 81.1671 51.3537 81.1151 51.3897C81.0631 51.4257 81.0031 51.4437 80.9351 51.4437H80.8151C80.7471 51.4437 80.6851 51.4257 80.6291 51.3897C80.5771 51.3537 80.5351 51.3057 80.5031 51.2457L78.3551 47.5317C78.3751 47.6517 78.3931 47.7837 78.4091 47.9277C78.4251 48.0677 78.4331 48.1937 78.4331 48.3057V52.3438H77.4671V46.2477H78.3251C78.4011 46.2477 78.4751 46.2657 78.5471 46.3017C78.6191 46.3337 78.6811 46.3957 78.7331 46.4877L80.6291 49.6557C80.7211 49.8397 80.8031 50.0337 80.8751 50.2377C80.9431 50.0257 81.0231 49.8317 81.1151 49.6557L82.9751 46.4877C83.0271 46.3917 83.0891 46.3277 83.1611 46.2957C83.2331 46.2637 83.3071 46.2477 83.3831 46.2477H84.2411ZM85.862 53.7958C85.83 53.7678 85.808 53.7418 85.796 53.7178C85.784 53.6938 85.778 53.6638 85.778 53.6278C85.778 53.5998 85.786 53.5718 85.802 53.5438C85.822 53.5158 85.844 53.4898 85.868 53.4658C85.908 53.4218 85.958 53.3638 86.018 53.2918C86.082 53.2198 86.146 53.1338 86.21 53.0338C86.274 52.9378 86.332 52.8298 86.384 52.7098C86.44 52.5938 86.48 52.4698 86.504 52.3377C86.492 52.3417 86.478 52.3438 86.462 52.3438C86.45 52.3438 86.438 52.3438 86.426 52.3438C86.218 52.3438 86.048 52.2757 85.916 52.1397C85.788 51.9997 85.724 51.8217 85.724 51.6057C85.724 51.4177 85.788 51.2577 85.916 51.1257C86.048 50.9937 86.222 50.9277 86.438 50.9277C86.558 50.9277 86.664 50.9497 86.756 50.9937C86.848 51.0377 86.924 51.0997 86.984 51.1797C87.048 51.2557 87.096 51.3457 87.128 51.4497C87.16 51.5497 87.176 51.6597 87.176 51.7797C87.176 51.9597 87.15 52.1477 87.098 52.3438C87.05 52.5358 86.976 52.7258 86.876 52.9138C86.78 53.1058 86.662 53.2918 86.522 53.4718C86.382 53.6518 86.222 53.8178 86.042 53.9698L85.862 53.7958ZM95.2511 49.2417V45.6957C95.2511 45.5917 95.2551 45.4777 95.2631 45.3537C95.2711 45.2297 95.2831 45.1037 95.2991 44.9757L92.1671 49.2417H95.2511ZM97.4891 49.2417V49.8537C97.4891 49.9177 97.4691 49.9717 97.4291 50.0157C97.3931 50.0597 97.3351 50.0817 97.2551 50.0817H96.1871V52.3438H95.2511V50.0817H91.4351C91.3551 50.0817 91.2851 50.0597 91.2251 50.0157C91.1691 49.9677 91.1331 49.9097 91.1171 49.8417L91.0091 49.2957L95.1911 43.7457H96.1871V49.2417H97.4891ZM98.498 51.6837C98.498 51.5797 98.516 51.4817 98.552 51.3897C98.592 51.2977 98.644 51.2177 98.708 51.1497C98.776 51.0817 98.856 51.0277 98.948 50.9877C99.04 50.9477 99.138 50.9277 99.242 50.9277C99.346 50.9277 99.444 50.9477 99.536 50.9877C99.628 51.0277 99.708 51.0817 99.776 51.1497C99.844 51.2177 99.898 51.2977 99.938 51.3897C99.978 51.4817 99.998 51.5797 99.998 51.6837C99.998 51.7917 99.978 51.8917 99.938 51.9837C99.898 52.0717 99.844 52.1497 99.776 52.2177C99.708 52.2857 99.628 52.3377 99.536 52.3738C99.444 52.4138 99.346 52.4338 99.242 52.4338C99.138 52.4338 99.04 52.4138 98.948 52.3738C98.856 52.3377 98.776 52.2857 98.708 52.2177C98.644 52.1497 98.592 52.0717 98.552 51.9837C98.516 51.8917 98.498 51.7917 98.498 51.6837ZM102.84 46.9917C103.288 46.8957 103.7 46.8477 104.076 46.8477C104.524 46.8477 104.92 46.9137 105.264 47.0457C105.608 47.1777 105.894 47.3597 106.122 47.5917C106.354 47.8237 106.528 48.0977 106.644 48.4137C106.764 48.7297 106.824 49.0737 106.824 49.4457C106.824 49.9017 106.744 50.3137 106.584 50.6817C106.428 51.0497 106.21 51.3657 105.93 51.6297C105.654 51.8897 105.328 52.0897 104.952 52.2297C104.576 52.3698 104.17 52.4398 103.734 52.4398C103.482 52.4398 103.24 52.4138 103.008 52.3618C102.776 52.3137 102.558 52.2477 102.354 52.1637C102.154 52.0797 101.968 51.9837 101.796 51.8757C101.624 51.7677 101.472 51.6537 101.34 51.5337L101.67 51.0777C101.742 50.9737 101.836 50.9217 101.952 50.9217C102.032 50.9217 102.122 50.9537 102.222 51.0177C102.322 51.0777 102.444 51.1457 102.588 51.2217C102.732 51.2977 102.9 51.3677 103.092 51.4317C103.288 51.4917 103.52 51.5217 103.788 51.5217C104.088 51.5217 104.358 51.4737 104.598 51.3777C104.838 51.2817 105.044 51.1457 105.216 50.9697C105.388 50.7897 105.52 50.5757 105.612 50.3277C105.704 50.0797 105.75 49.8017 105.75 49.4937C105.75 49.2257 105.71 48.9837 105.63 48.7677C105.554 48.5517 105.436 48.3677 105.276 48.2157C105.12 48.0637 104.924 47.9457 104.688 47.8617C104.452 47.7777 104.176 47.7357 103.86 47.7357C103.644 47.7357 103.418 47.7537 103.182 47.7897C102.95 47.8257 102.712 47.8837 102.468 47.9637L101.796 47.7657L102.486 43.7457H106.56V44.2137C106.56 44.3657 106.512 44.4917 106.416 44.5917C106.324 44.6877 106.164 44.7357 105.936 44.7357H103.236L102.84 46.9917ZM116.027 46.2657V52.3438H114.959V49.7637C114.439 49.8997 113.949 49.9857 113.489 50.0217C113.033 50.0537 112.633 50.0177 112.289 49.9137C111.949 49.8097 111.679 49.6277 111.479 49.3677C111.283 49.1037 111.185 48.7397 111.185 48.2757V46.2657H112.259V48.1137C112.259 48.4057 112.317 48.6357 112.433 48.8037C112.553 48.9717 112.727 49.0877 112.955 49.1517C113.183 49.2157 113.465 49.2337 113.801 49.2057C114.137 49.1777 114.523 49.1117 114.959 49.0077V46.2657H116.027ZM121.015 49.6077C120.523 49.6237 120.103 49.6637 119.755 49.7277C119.411 49.7877 119.129 49.8677 118.909 49.9677C118.693 50.0677 118.535 50.1857 118.435 50.3217C118.339 50.4577 118.291 50.6097 118.291 50.7777C118.291 50.9377 118.317 51.0757 118.369 51.1917C118.421 51.3077 118.491 51.4037 118.579 51.4797C118.671 51.5517 118.777 51.6057 118.897 51.6417C119.021 51.6737 119.153 51.6897 119.293 51.6897C119.481 51.6897 119.653 51.6717 119.809 51.6357C119.965 51.5957 120.111 51.5397 120.247 51.4677C120.387 51.3957 120.519 51.3097 120.643 51.2097C120.771 51.1097 120.895 50.9957 121.015 50.8677V49.6077ZM117.565 47.1237C117.901 46.7997 118.263 46.5577 118.651 46.3977C119.039 46.2377 119.469 46.1577 119.941 46.1577C120.281 46.1577 120.583 46.2137 120.847 46.3257C121.111 46.4377 121.333 46.5937 121.513 46.7937C121.693 46.9937 121.829 47.2357 121.921 47.5197C122.013 47.8037 122.059 48.1157 122.059 48.4557V52.3438H121.585C121.481 52.3438 121.401 52.3277 121.345 52.2957C121.289 52.2597 121.245 52.1917 121.213 52.0917L121.093 51.5157C120.933 51.6637 120.777 51.7957 120.625 51.9117C120.473 52.0237 120.313 52.1197 120.145 52.1997C119.977 52.2757 119.797 52.3337 119.605 52.3738C119.417 52.4178 119.207 52.4398 118.975 52.4398C118.739 52.4398 118.517 52.4078 118.309 52.3438C118.101 52.2757 117.919 52.1757 117.763 52.0437C117.611 51.9117 117.489 51.7457 117.397 51.5457C117.309 51.3417 117.265 51.1017 117.265 50.8257C117.265 50.5857 117.331 50.3557 117.463 50.1357C117.595 49.9117 117.809 49.7137 118.105 49.5417C118.401 49.3697 118.787 49.2297 119.263 49.1217C119.739 49.0098 120.323 48.9457 121.015 48.9297V48.4557C121.015 47.9837 120.913 47.6277 120.709 47.3877C120.505 47.1437 120.207 47.0217 119.815 47.0217C119.551 47.0217 119.329 47.0557 119.149 47.1237C118.973 47.1877 118.819 47.2617 118.687 47.3457C118.559 47.4257 118.447 47.4997 118.351 47.5677C118.259 47.6317 118.167 47.6637 118.075 47.6637C118.003 47.6637 117.941 47.6457 117.889 47.6097C117.837 47.5697 117.793 47.5217 117.757 47.4657L117.565 47.1237ZM127.916 47.3457C127.884 47.3897 127.852 47.4237 127.82 47.4477C127.788 47.4717 127.744 47.4837 127.688 47.4837C127.628 47.4837 127.562 47.4597 127.49 47.4117C127.418 47.3597 127.328 47.3037 127.22 47.2437C127.116 47.1837 126.986 47.1297 126.83 47.0817C126.678 47.0297 126.49 47.0037 126.266 47.0037C125.966 47.0037 125.702 47.0577 125.474 47.1657C125.246 47.2697 125.054 47.4217 124.898 47.6217C124.746 47.8217 124.63 48.0637 124.55 48.3477C124.474 48.6317 124.436 48.9497 124.436 49.3017C124.436 49.6697 124.478 49.9977 124.562 50.2857C124.646 50.5697 124.764 50.8097 124.916 51.0057C125.072 51.1977 125.258 51.3457 125.474 51.4497C125.694 51.5497 125.94 51.5997 126.212 51.5997C126.472 51.5997 126.686 51.5697 126.854 51.5097C127.022 51.4457 127.16 51.3757 127.268 51.2997C127.38 51.2237 127.472 51.1557 127.544 51.0957C127.62 51.0317 127.694 50.9997 127.766 50.9997C127.854 50.9997 127.922 51.0337 127.97 51.1017L128.27 51.4917C128.138 51.6557 127.988 51.7957 127.82 51.9117C127.652 52.0277 127.47 52.1257 127.274 52.2057C127.082 52.2817 126.88 52.3377 126.668 52.3738C126.456 52.4098 126.24 52.4278 126.02 52.4278C125.64 52.4278 125.286 52.3577 124.958 52.2177C124.634 52.0777 124.352 51.8757 124.112 51.6117C123.872 51.3437 123.684 51.0157 123.548 50.6277C123.412 50.2397 123.344 49.7977 123.344 49.3017C123.344 48.8497 123.406 48.4317 123.53 48.0477C123.658 47.6637 123.842 47.3337 124.082 47.0577C124.326 46.7777 124.624 46.5597 124.976 46.4037C125.332 46.2477 125.74 46.1697 126.2 46.1697C126.628 46.1697 127.004 46.2397 127.328 46.3797C127.656 46.5157 127.946 46.7097 128.198 46.9617L127.916 47.3457ZM132.71 49.6077C132.218 49.6237 131.798 49.6637 131.45 49.7277C131.106 49.7877 130.824 49.8677 130.604 49.9677C130.388 50.0677 130.23 50.1857 130.13 50.3217C130.034 50.4577 129.986 50.6097 129.986 50.7777C129.986 50.9377 130.012 51.0757 130.064 51.1917C130.116 51.3077 130.186 51.4037 130.274 51.4797C130.366 51.5517 130.472 51.6057 130.592 51.6417C130.716 51.6737 130.848 51.6897 130.988 51.6897C131.176 51.6897 131.348 51.6717 131.504 51.6357C131.66 51.5957 131.806 51.5397 131.942 51.4677C132.082 51.3957 132.214 51.3097 132.338 51.2097C132.466 51.1097 132.59 50.9957 132.71 50.8677V49.6077ZM129.26 47.1237C129.596 46.7997 129.958 46.5577 130.346 46.3977C130.734 46.2377 131.164 46.1577 131.636 46.1577C131.976 46.1577 132.278 46.2137 132.542 46.3257C132.806 46.4377 133.028 46.5937 133.208 46.7937C133.388 46.9937 133.524 47.2357 133.616 47.5197C133.708 47.8037 133.754 48.1157 133.754 48.4557V52.3438H133.28C133.176 52.3438 133.096 52.3277 133.04 52.2957C132.984 52.2597 132.94 52.1917 132.908 52.0917L132.788 51.5157C132.628 51.6637 132.472 51.7957 132.32 51.9117C132.168 52.0237 132.008 52.1197 131.84 52.1997C131.672 52.2757 131.492 52.3337 131.3 52.3738C131.112 52.4178 130.902 52.4398 130.67 52.4398C130.434 52.4398 130.212 52.4078 130.004 52.3438C129.796 52.2757 129.614 52.1757 129.458 52.0437C129.306 51.9117 129.184 51.7457 129.092 51.5457C129.004 51.3417 128.96 51.1017 128.96 50.8257C128.96 50.5857 129.026 50.3557 129.158 50.1357C129.29 49.9117 129.504 49.7137 129.8 49.5417C130.096 49.3697 130.482 49.2297 130.958 49.1217C131.434 49.0098 132.018 48.9457 132.71 48.9297V48.4557C132.71 47.9837 132.608 47.6277 132.404 47.3877C132.2 47.1437 131.902 47.0217 131.51 47.0217C131.246 47.0217 131.024 47.0557 130.844 47.1237C130.668 47.1877 130.514 47.2617 130.382 47.3457C130.254 47.4257 130.142 47.4997 130.046 47.5677C129.954 47.6317 129.862 47.6637 129.77 47.6637C129.698 47.6637 129.636 47.6457 129.584 47.6097C129.532 47.5697 129.488 47.5217 129.452 47.4657L129.26 47.1237Z" fill="#110833"/>
<defs>
<filter id="filter0_d_2237_14050" x="0" y="0" width="163" height="98.4336" filterUnits="userSpaceOnUse" color-interpolation-filters="sRGB">
<feFlood flood-opacity="0" result="BackgroundImageFix"/>
<feColorMatrix in="SourceAlpha" type="matrix" values="0 0 0 0 0 0 0 0 0 0 0 0 0 0 0 0 0 0 127 0" result="hardAlpha"/>
<feOffset dy="4"/>
<feGaussianBlur stdDeviation="5"/>
<feComposite in2="hardAlpha" operator="out"/>
<feColorMatrix type="matrix" values="0 0 0 0 0.545098 0 0 0 0 0.368627 0 0 0 0 0.882353 0 0 0 0.2 0"/>
<feBlend mode="normal" in2="BackgroundImageFix" result="effect1_dropShadow_2237_14050"/>
<feBlend mode="normal" in="SourceGraphic" in2="effect1_dropShadow_2237_14050" result="shape"/>
</filter>
</defs>
</svg>
