<svg width="165" height="98" viewBox="0 0 165 98" fill="none" xmlns="http://www.w3.org/2000/svg">
<g filter="url(#filter0_d_2237_14051)">
<path d="M106.077 71.5407C96.2331 72.8155 87.5869 76.4365 83.5764 82.9289C83.1141 83.6772 81.8859 83.6772 81.4236 82.9289C77.4132 76.4365 68.7669 72.8155 58.9228 71.5407C55.1328 71.05 17.8446 70.956 17.6656 70.9556H17.6649H17.6641C13.4314 70.9556 10.0001 67.5242 10.0003 63.2915L10.0004 60.4222L10 13.6074C10 13.5894 10.0001 13.5709 10.0004 13.552C10.0004 9.38113 13.3815 6 17.5524 6H17.6649H82.5H146.161H147.393C151.594 6 155 9.40595 155 13.6074V60.4222V62.1185C155 66.9991 151.044 70.9556 146.163 70.9556H146.161C146.115 70.9558 108.96 71.1674 106.077 71.5407Z" fill="white"/>
</g>
<path d="M67.3092 26.7302C67.3852 26.7302 67.4512 26.7602 67.5072 26.8202L68.0652 27.4262C67.7132 27.8502 67.2812 28.1782 66.7692 28.4102C66.2572 28.6383 65.6452 28.7523 64.9332 28.7523C64.3012 28.7523 63.7292 28.6442 63.2172 28.4282C62.7092 28.2082 62.2752 27.9042 61.9152 27.5162C61.5552 27.1242 61.2772 26.6582 61.0812 26.1182C60.8892 25.5782 60.7932 24.9842 60.7932 24.3362C60.7932 23.6882 60.8952 23.0942 61.0992 22.5542C61.3072 22.0102 61.5972 21.5443 61.9692 21.1562C62.3452 20.7642 62.7932 20.4602 63.3132 20.2442C63.8372 20.0282 64.4132 19.9202 65.0412 19.9202C65.6652 19.9202 66.2152 20.0222 66.6912 20.2262C67.1712 20.4262 67.5872 20.6942 67.9392 21.0302L67.4772 21.6842C67.4452 21.7282 67.4072 21.7662 67.3632 21.7982C67.3192 21.8302 67.2592 21.8462 67.1832 21.8462C67.1032 21.8462 67.0112 21.8102 66.9072 21.7383C66.8072 21.6622 66.6772 21.5802 66.5172 21.4922C66.3612 21.4002 66.1632 21.3182 65.9232 21.2462C65.6872 21.1702 65.3912 21.1322 65.0352 21.1322C64.6232 21.1322 64.2452 21.2042 63.9012 21.3482C63.5572 21.4922 63.2612 21.7022 63.0132 21.9782C62.7652 22.2542 62.5712 22.5902 62.4312 22.9862C62.2952 23.3822 62.2272 23.8322 62.2272 24.3362C62.2272 24.8442 62.2992 25.2982 62.4432 25.6982C62.5872 26.0942 62.7852 26.4302 63.0372 26.7062C63.2892 26.9782 63.5852 27.1862 63.9252 27.3302C64.2652 27.4742 64.6312 27.5462 65.0232 27.5462C65.2632 27.5462 65.4772 27.5342 65.6652 27.5102C65.8572 27.4822 66.0332 27.4402 66.1932 27.3842C66.3532 27.3242 66.5032 27.2502 66.6432 27.1622C66.7872 27.0742 66.9292 26.9662 67.0692 26.8382C67.1492 26.7662 67.2292 26.7302 67.3092 26.7302ZM72.308 25.9802C71.848 25.9962 71.46 26.0342 71.144 26.0942C70.828 26.1502 70.572 26.2242 70.376 26.3162C70.18 26.4042 70.038 26.5102 69.95 26.6342C69.866 26.7582 69.824 26.8942 69.824 27.0422C69.824 27.1862 69.846 27.3102 69.89 27.4142C69.938 27.5142 70.002 27.5982 70.082 27.6662C70.166 27.7302 70.262 27.7782 70.37 27.8102C70.482 27.8382 70.604 27.8522 70.736 27.8522C71.072 27.8522 71.36 27.7902 71.6 27.6662C71.844 27.5382 72.08 27.3542 72.308 27.1143V25.9802ZM68.888 23.3882C69.58 22.7442 70.404 22.4222 71.36 22.4222C71.712 22.4222 72.024 22.4802 72.296 22.5963C72.572 22.7082 72.802 22.8682 72.986 23.0762C73.174 23.2842 73.316 23.5322 73.412 23.8202C73.512 24.1042 73.562 24.4202 73.562 24.7682V28.6562H72.986C72.862 28.6562 72.768 28.6382 72.704 28.6022C72.64 28.5622 72.586 28.4842 72.542 28.3682L72.416 27.8702C72.26 28.0102 72.106 28.1362 71.954 28.2482C71.802 28.3562 71.644 28.4482 71.48 28.5242C71.32 28.6002 71.146 28.6562 70.958 28.6923C70.774 28.7323 70.57 28.7523 70.346 28.7523C70.098 28.7523 69.866 28.7183 69.65 28.6502C69.438 28.5822 69.254 28.4802 69.098 28.3442C68.942 28.2042 68.818 28.0322 68.726 27.8282C68.638 27.6242 68.594 27.3842 68.594 27.1082C68.594 26.8722 68.656 26.6422 68.78 26.4182C68.908 26.1942 69.116 25.9942 69.404 25.8182C69.696 25.6382 70.078 25.4902 70.55 25.3742C71.026 25.2582 71.612 25.1922 72.308 25.1762V24.7682C72.308 24.3282 72.214 24.0002 72.026 23.7842C71.838 23.5682 71.562 23.4602 71.198 23.4602C70.95 23.4602 70.742 23.4922 70.574 23.5562C70.406 23.6162 70.26 23.6822 70.136 23.7542C70.012 23.8262 69.902 23.8942 69.806 23.9582C69.71 24.0182 69.608 24.0482 69.5 24.0482C69.412 24.0482 69.336 24.0262 69.272 23.9822C69.212 23.9342 69.162 23.8762 69.122 23.8082L68.888 23.3882ZM76.3631 27.1202C76.5431 27.3522 76.7391 27.5162 76.9511 27.6122C77.1671 27.7042 77.4051 27.7502 77.6651 27.7502C78.1691 27.7502 78.5611 27.5662 78.8411 27.1982C79.1251 26.8302 79.2671 26.2822 79.2671 25.5542C79.2671 25.1782 79.2351 24.8582 79.1711 24.5942C79.1071 24.3262 79.0151 24.1082 78.8951 23.9402C78.7751 23.7722 78.6291 23.6502 78.4571 23.5742C78.2851 23.4982 78.0911 23.4602 77.8751 23.4602C77.5471 23.4602 77.2631 23.5322 77.0231 23.6762C76.7871 23.8162 76.5671 24.0182 76.3631 24.2822V27.1202ZM76.2971 23.4242C76.5531 23.1242 76.8431 22.8822 77.1671 22.6982C77.4951 22.5142 77.8751 22.4222 78.3071 22.4222C78.6511 22.4222 78.9631 22.4922 79.2431 22.6322C79.5231 22.7682 79.7631 22.9682 79.9631 23.2322C80.1631 23.4962 80.3171 23.8242 80.4251 24.2162C80.5371 24.6042 80.5931 25.0502 80.5931 25.5542C80.5931 26.0062 80.5311 26.4282 80.4071 26.8202C80.2871 27.2082 80.1131 27.5462 79.8851 27.8342C79.6571 28.1182 79.3811 28.3423 79.0571 28.5062C78.7331 28.6663 78.3671 28.7463 77.9591 28.7463C77.5991 28.7463 77.2931 28.6883 77.0411 28.5722C76.7931 28.4562 76.5671 28.2962 76.3631 28.0922V30.6903H75.0731V22.5362H75.8531C76.0291 22.5362 76.1411 22.6182 76.1891 22.7822L76.2971 23.4242ZM85.1165 25.9802C84.6565 25.9962 84.2685 26.0342 83.9525 26.0942C83.6365 26.1502 83.3805 26.2242 83.1845 26.3162C82.9885 26.4042 82.8465 26.5102 82.7585 26.6342C82.6745 26.7582 82.6325 26.8942 82.6325 27.0422C82.6325 27.1862 82.6545 27.3102 82.6985 27.4142C82.7465 27.5142 82.8105 27.5982 82.8905 27.6662C82.9745 27.7302 83.0705 27.7782 83.1785 27.8102C83.2905 27.8382 83.4125 27.8522 83.5445 27.8522C83.8805 27.8522 84.1685 27.7902 84.4085 27.6662C84.6525 27.5382 84.8885 27.3542 85.1165 27.1143V25.9802ZM81.6965 23.3882C82.3885 22.7442 83.2125 22.4222 84.1685 22.4222C84.5205 22.4222 84.8325 22.4802 85.1045 22.5963C85.3805 22.7082 85.6105 22.8682 85.7945 23.0762C85.9825 23.2842 86.1245 23.5322 86.2205 23.8202C86.3205 24.1042 86.3705 24.4202 86.3705 24.7682V28.6562H85.7945C85.6705 28.6562 85.5765 28.6382 85.5125 28.6022C85.4485 28.5622 85.3945 28.4842 85.3505 28.3682L85.2245 27.8702C85.0685 28.0102 84.9145 28.1362 84.7625 28.2482C84.6105 28.3562 84.4525 28.4482 84.2885 28.5242C84.1285 28.6002 83.9545 28.6562 83.7665 28.6923C83.5825 28.7323 83.3785 28.7523 83.1545 28.7523C82.9065 28.7523 82.6745 28.7183 82.4585 28.6502C82.2465 28.5822 82.0625 28.4802 81.9065 28.3442C81.7505 28.2042 81.6265 28.0322 81.5345 27.8282C81.4465 27.6242 81.4025 27.3842 81.4025 27.1082C81.4025 26.8722 81.4645 26.6422 81.5885 26.4182C81.7165 26.1942 81.9245 25.9942 82.2125 25.8182C82.5045 25.6382 82.8865 25.4902 83.3585 25.3742C83.8345 25.2582 84.4205 25.1922 85.1165 25.1762V24.7682C85.1165 24.3282 85.0225 24.0002 84.8345 23.7842C84.6465 23.5682 84.3705 23.4602 84.0065 23.4602C83.7585 23.4602 83.5505 23.4922 83.3825 23.5562C83.2145 23.6162 83.0685 23.6822 82.9445 23.7542C82.8205 23.8262 82.7105 23.8942 82.6145 23.9582C82.5185 24.0182 82.4165 24.0482 82.3085 24.0482C82.2205 24.0482 82.1445 24.0262 82.0805 23.9822C82.0205 23.9342 81.9705 23.8762 81.9305 23.8082L81.6965 23.3882ZM92.9248 23.5082H90.6688V28.6562H89.3788V23.5082H87.1168V22.5362H92.9248V23.5082ZM96.305 22.4402C96.757 22.4402 97.165 22.5142 97.529 22.6622C97.897 22.8102 98.209 23.0202 98.465 23.2922C98.725 23.5642 98.925 23.8942 99.065 24.2822C99.205 24.6702 99.275 25.1062 99.275 25.5902C99.275 26.0742 99.205 26.5102 99.065 26.8982C98.925 27.2862 98.725 27.6182 98.465 27.8942C98.209 28.1662 97.897 28.3762 97.529 28.5242C97.165 28.6722 96.757 28.7463 96.305 28.7463C95.849 28.7463 95.437 28.6722 95.069 28.5242C94.705 28.3762 94.393 28.1662 94.133 27.8942C93.873 27.6182 93.673 27.2862 93.533 26.8982C93.393 26.5102 93.323 26.0742 93.323 25.5902C93.323 25.1062 93.393 24.6702 93.533 24.2822C93.673 23.8942 93.873 23.5642 94.133 23.2922C94.393 23.0202 94.705 22.8102 95.069 22.6622C95.437 22.5142 95.849 22.4402 96.305 22.4402ZM96.305 27.7382C96.857 27.7382 97.267 27.5542 97.535 27.1862C97.807 26.8142 97.943 26.2842 97.943 25.5962C97.943 24.9082 97.807 24.3782 97.535 24.0062C97.267 23.6302 96.857 23.4422 96.305 23.4422C95.745 23.4422 95.329 23.6302 95.057 24.0062C94.785 24.3782 94.649 24.9082 94.649 25.5962C94.649 26.2842 94.785 26.8142 95.057 27.1862C95.329 27.5542 95.745 27.7382 96.305 27.7382ZM102.945 27.7622C103.297 27.7622 103.575 27.6782 103.779 27.5102C103.987 27.3382 104.091 27.1082 104.091 26.8202C104.091 26.6962 104.073 26.5802 104.037 26.4722C104.001 26.3642 103.939 26.2722 103.851 26.1962C103.763 26.1162 103.645 26.0542 103.497 26.0102C103.353 25.9662 103.171 25.9442 102.951 25.9442H101.745V27.7622H102.945ZM101.745 23.3882V25.1342H102.807C102.967 25.1342 103.113 25.1122 103.245 25.0682C103.381 25.0202 103.497 24.9562 103.593 24.8762C103.693 24.7922 103.769 24.6942 103.821 24.5822C103.877 24.4662 103.905 24.3382 103.905 24.1982C103.905 24.0982 103.887 24.0002 103.851 23.9042C103.815 23.8042 103.753 23.7162 103.665 23.6402C103.581 23.5642 103.469 23.5042 103.329 23.4602C103.189 23.4122 103.015 23.3882 102.807 23.3882H101.745ZM102.849 22.5362C103.229 22.5362 103.557 22.5742 103.833 22.6502C104.109 22.7222 104.335 22.8242 104.511 22.9562C104.691 23.0882 104.823 23.2442 104.907 23.4242C104.991 23.6042 105.033 23.7982 105.033 24.0062C105.033 24.1382 105.015 24.2762 104.979 24.4202C104.943 24.5642 104.881 24.7022 104.793 24.8342C104.705 24.9622 104.585 25.0802 104.433 25.1882C104.285 25.2962 104.095 25.3802 103.863 25.4402C104.299 25.5202 104.643 25.6802 104.895 25.9202C105.151 26.1562 105.279 26.4722 105.279 26.8682C105.279 27.1722 105.217 27.4362 105.093 27.6602C104.969 27.8842 104.799 28.0702 104.583 28.2182C104.371 28.3662 104.123 28.4762 103.839 28.5482C103.559 28.6202 103.263 28.6562 102.951 28.6562H100.515V22.5362H102.849Z" fill="#110833"/>
<path fill-rule="evenodd" clip-rule="evenodd" d="M37.0486 43.5938C38.3379 43.5938 39.5773 44.092 40.5077 44.9844L42.1811 46.5894C42.1811 46.5894 42.8132 46.9301 43.5065 47.0294C44.1999 47.1288 44.9921 48.147 44.9921 48.9034V49.8404V50.105C44.9921 50.3257 44.8675 50.5274 44.6701 50.626L44.5457 50.6882C44.3876 50.7673 44.2216 50.8278 44.0509 50.8689C44.0532 50.8279 44.0543 50.7865 44.0543 50.7449C44.0543 49.5375 43.0755 48.5586 41.868 48.5586C40.6605 48.5586 39.6816 49.5375 39.6816 50.7449C39.6816 50.8085 39.6843 50.8714 39.6897 50.9336H39.6563H35.329H35.3012C35.3065 50.8714 35.3092 50.8085 35.3092 50.7449C35.3092 49.5375 34.3303 48.5586 33.1229 48.5586C31.9154 48.5586 30.9365 49.5375 30.9365 50.7449L30.9366 50.7618L30.436 50.6032C30.1764 50.5209 30 50.28 30 50.0077L30 47.3134C30 46.557 30.6065 45.9505 31.3629 45.9505H32.0444C32.9066 44.49 34.4764 43.5938 36.1724 43.5938H37.0486ZM35.9845 44.6802C34.8407 44.8311 33.8005 45.4506 33.1233 46.4047L35.7838 46.4866L35.9845 44.6802ZM37.2421 44.6758L37.0366 46.5252L40.5059 46.632L40.0954 46.1686C39.3556 45.3333 38.3379 44.8058 37.2421 44.6758ZM33.1234 52.026C33.8134 52.026 34.3727 51.4667 34.3727 50.7767C34.3727 50.0867 33.8134 49.5273 33.1234 49.5273C32.4334 49.5273 31.874 50.0867 31.874 50.7767C31.874 51.4667 32.4334 52.026 33.1234 52.026ZM41.8685 52.026C42.5585 52.026 43.1178 51.4667 43.1178 50.7767C43.1178 50.0867 42.5585 49.5273 41.8685 49.5273C41.1785 49.5273 40.6191 50.0867 40.6191 50.7767C40.6191 51.4667 41.1785 52.026 41.8685 52.026Z" fill="#888499"/>
<path opacity="0.5" d="M53.879 51.3297C53.995 51.3297 54.087 51.3637 54.155 51.4317C54.223 51.4997 54.257 51.5877 54.257 51.6957V52.3438H48.521V51.9777C48.521 51.9017 48.537 51.8237 48.569 51.7437C48.601 51.6637 48.651 51.5897 48.719 51.5217L51.473 48.7557C51.701 48.5237 51.909 48.3017 52.097 48.0897C52.285 47.8737 52.445 47.6577 52.577 47.4417C52.709 47.2257 52.811 47.0077 52.883 46.7877C52.955 46.5637 52.991 46.3257 52.991 46.0737C52.991 45.8217 52.951 45.6017 52.871 45.4137C52.791 45.2217 52.681 45.0637 52.541 44.9397C52.405 44.8157 52.243 44.7237 52.055 44.6637C51.867 44.5997 51.665 44.5677 51.449 44.5677C51.229 44.5677 51.027 44.5997 50.843 44.6637C50.659 44.7277 50.495 44.8177 50.351 44.9337C50.211 45.0457 50.093 45.1797 49.997 45.3357C49.901 45.4917 49.833 45.6637 49.793 45.8517C49.745 45.9917 49.679 46.0857 49.595 46.1337C49.515 46.1777 49.401 46.1897 49.253 46.1697L48.695 46.0737C48.751 45.6817 48.859 45.3357 49.019 45.0357C49.183 44.7317 49.387 44.4777 49.631 44.2737C49.879 44.0697 50.161 43.9157 50.477 43.8117C50.793 43.7037 51.135 43.6497 51.503 43.6497C51.867 43.6497 52.207 43.7037 52.523 43.8117C52.839 43.9197 53.113 44.0777 53.345 44.2857C53.577 44.4897 53.759 44.7397 53.891 45.0357C54.023 45.3317 54.089 45.6677 54.089 46.0437C54.089 46.3637 54.041 46.6617 53.945 46.9377C53.849 47.2097 53.719 47.4697 53.555 47.7177C53.391 47.9657 53.201 48.2077 52.985 48.4437C52.773 48.6797 52.547 48.9177 52.307 49.1577L50.039 51.4737C50.199 51.4297 50.361 51.3957 50.525 51.3717C50.689 51.3437 50.847 51.3297 50.999 51.3297H53.879ZM56.616 46.2717C56.616 46.5437 56.654 46.7877 56.73 47.0037C56.81 47.2157 56.922 47.3957 57.066 47.5437C57.214 47.6917 57.392 47.8037 57.6 47.8797C57.812 47.9557 58.048 47.9937 58.308 47.9937C58.596 47.9937 58.85 47.9477 59.07 47.8557C59.294 47.7597 59.482 47.6337 59.634 47.4777C59.786 47.3217 59.902 47.1417 59.982 46.9377C60.062 46.7337 60.102 46.5217 60.102 46.3017C60.102 46.0337 60.058 45.7917 59.97 45.5757C59.886 45.3557 59.768 45.1697 59.616 45.0177C59.464 44.8657 59.282 44.7497 59.07 44.6697C58.862 44.5857 58.632 44.5437 58.38 44.5437C58.116 44.5437 57.876 44.5877 57.66 44.6757C57.444 44.7597 57.258 44.8777 57.102 45.0297C56.946 45.1817 56.826 45.3637 56.742 45.5757C56.658 45.7877 56.616 46.0197 56.616 46.2717ZM59.112 48.9177C59.2 48.8017 59.282 48.6917 59.358 48.5877C59.434 48.4837 59.506 48.3797 59.574 48.2757C59.354 48.4517 59.106 48.5857 58.83 48.6777C58.554 48.7697 58.262 48.8158 57.954 48.8158C57.63 48.8158 57.322 48.7617 57.03 48.6537C56.742 48.5457 56.488 48.3877 56.268 48.1797C56.048 47.9677 55.872 47.7097 55.74 47.4057C55.612 47.0977 55.548 46.7457 55.548 46.3497C55.548 45.9737 55.618 45.6217 55.758 45.2937C55.898 44.9657 56.094 44.6797 56.346 44.4357C56.598 44.1917 56.898 43.9997 57.246 43.8597C57.594 43.7197 57.976 43.6497 58.392 43.6497C58.804 43.6497 59.178 43.7177 59.514 43.8537C59.85 43.9897 60.138 44.1797 60.378 44.4237C60.618 44.6677 60.802 44.9597 60.93 45.2997C61.062 45.6397 61.128 46.0157 61.128 46.4277C61.128 46.6757 61.104 46.9117 61.056 47.1357C61.012 47.3557 60.946 47.5737 60.858 47.7897C60.774 48.0017 60.67 48.2137 60.546 48.4257C60.422 48.6337 60.282 48.8477 60.126 49.0677L58.032 52.0917C57.98 52.1677 57.906 52.2297 57.81 52.2777C57.714 52.3217 57.604 52.3438 57.48 52.3438H56.496L59.112 48.9177ZM67.8009 51.3297C67.9169 51.3297 68.0089 51.3637 68.0769 51.4317C68.1449 51.4997 68.1789 51.5877 68.1789 51.6957V52.3438H62.4429V51.9777C62.4429 51.9017 62.4589 51.8237 62.4909 51.7437C62.5229 51.6637 62.5729 51.5897 62.6409 51.5217L65.3949 48.7557C65.6229 48.5237 65.8309 48.3017 66.0189 48.0897C66.2069 47.8737 66.3669 47.6577 66.4989 47.4417C66.6309 47.2257 66.7329 47.0077 66.8049 46.7877C66.8769 46.5637 66.9129 46.3257 66.9129 46.0737C66.9129 45.8217 66.8729 45.6017 66.7929 45.4137C66.7129 45.2217 66.6029 45.0637 66.4629 44.9397C66.3269 44.8157 66.1649 44.7237 65.9769 44.6637C65.7889 44.5997 65.5869 44.5677 65.3709 44.5677C65.1509 44.5677 64.9489 44.5997 64.7649 44.6637C64.5809 44.7277 64.4169 44.8177 64.2729 44.9337C64.1329 45.0457 64.0149 45.1797 63.9189 45.3357C63.8229 45.4917 63.7549 45.6637 63.7149 45.8517C63.6669 45.9917 63.6009 46.0857 63.5169 46.1337C63.4369 46.1777 63.3229 46.1897 63.1749 46.1697L62.6169 46.0737C62.6729 45.6817 62.7809 45.3357 62.9409 45.0357C63.1049 44.7317 63.3089 44.4777 63.5529 44.2737C63.8009 44.0697 64.0829 43.9157 64.3989 43.8117C64.7149 43.7037 65.0569 43.6497 65.4249 43.6497C65.7889 43.6497 66.1289 43.7037 66.4449 43.8117C66.7609 43.9197 67.0349 44.0777 67.2669 44.2857C67.4989 44.4897 67.6809 44.7397 67.8129 45.0357C67.9449 45.3317 68.0109 45.6677 68.0109 46.0437C68.0109 46.3637 67.9629 46.6617 67.8669 46.9377C67.7709 47.2097 67.6409 47.4697 67.4769 47.7177C67.3129 47.9657 67.1229 48.2077 66.9069 48.4437C66.6949 48.6797 66.4689 48.9177 66.2289 49.1577L63.9609 51.4737C64.1209 51.4297 64.2829 51.3957 64.4469 51.3717C64.6109 51.3437 64.7689 51.3297 64.9209 51.3297H67.8009ZM76.4462 46.5657C76.5022 46.4777 76.5762 46.4057 76.6682 46.3497C76.7602 46.2937 76.8582 46.2657 76.9622 46.2657H77.7962L76.2182 48.5817C76.1222 48.7297 76.0222 48.8517 75.9182 48.9477C75.8142 49.0397 75.6862 49.1117 75.5342 49.1637C75.7262 49.2157 75.8882 49.2977 76.0202 49.4097C76.1522 49.5177 76.2702 49.6577 76.3742 49.8297L77.9702 52.3438H77.2262C77.0342 52.3438 76.8862 52.3117 76.7822 52.2477C76.6782 52.1837 76.5882 52.0917 76.5122 51.9717L75.3302 50.0817C75.1422 49.7697 74.8602 49.6137 74.4842 49.6137H73.8302V52.3498H72.7562V46.2657H73.8302V48.8937H74.4062C74.7262 48.8937 74.9762 48.7577 75.1562 48.4857L76.4462 46.5657ZM85.7411 46.2477V52.3438H84.7751V48.3057C84.7751 48.1937 84.7811 48.0697 84.7931 47.9337C84.8091 47.7937 84.8291 47.6637 84.8531 47.5437L82.7411 51.2457C82.7091 51.3057 82.6671 51.3537 82.6151 51.3897C82.5631 51.4257 82.5031 51.4437 82.4351 51.4437H82.3151C82.2471 51.4437 82.1851 51.4257 82.1291 51.3897C82.0771 51.3537 82.0351 51.3057 82.0031 51.2457L79.8551 47.5317C79.8751 47.6517 79.8931 47.7837 79.9091 47.9277C79.9251 48.0677 79.9331 48.1937 79.9331 48.3057V52.3438H78.9671V46.2477H79.8251C79.9011 46.2477 79.9751 46.2657 80.0471 46.3017C80.1191 46.3337 80.1811 46.3957 80.2331 46.4877L82.1291 49.6557C82.2211 49.8397 82.3031 50.0337 82.3751 50.2377C82.4431 50.0257 82.5231 49.8317 82.6151 49.6557L84.4751 46.4877C84.5271 46.3917 84.5891 46.3277 84.6611 46.2957C84.7331 46.2637 84.8071 46.2477 84.8831 46.2477H85.7411ZM87.362 53.7958C87.33 53.7678 87.308 53.7418 87.296 53.7178C87.284 53.6938 87.278 53.6638 87.278 53.6278C87.278 53.5998 87.286 53.5718 87.302 53.5438C87.322 53.5158 87.344 53.4898 87.368 53.4658C87.408 53.4218 87.458 53.3638 87.518 53.2918C87.582 53.2198 87.646 53.1338 87.71 53.0338C87.774 52.9378 87.832 52.8298 87.884 52.7098C87.94 52.5938 87.98 52.4698 88.004 52.3377C87.992 52.3417 87.978 52.3438 87.962 52.3438C87.95 52.3438 87.938 52.3438 87.926 52.3438C87.718 52.3438 87.548 52.2757 87.416 52.1397C87.288 51.9997 87.224 51.8217 87.224 51.6057C87.224 51.4177 87.288 51.2577 87.416 51.1257C87.548 50.9937 87.722 50.9277 87.938 50.9277C88.058 50.9277 88.164 50.9497 88.256 50.9937C88.348 51.0377 88.424 51.0997 88.484 51.1797C88.548 51.2557 88.596 51.3457 88.628 51.4497C88.66 51.5497 88.676 51.6597 88.676 51.7797C88.676 51.9597 88.65 52.1477 88.598 52.3438C88.55 52.5358 88.476 52.7258 88.376 52.9138C88.28 53.1058 88.162 53.2918 88.022 53.4718C87.882 53.6518 87.722 53.8178 87.542 53.9698L87.362 53.7958ZM93.1511 46.0737C93.2071 45.6817 93.3151 45.3357 93.4751 45.0357C93.6351 44.7317 93.8371 44.4777 94.0811 44.2737C94.3291 44.0697 94.6111 43.9157 94.9271 43.8117C95.2471 43.7037 95.5911 43.6497 95.9591 43.6497C96.3231 43.6497 96.6591 43.7017 96.9671 43.8057C97.2751 43.9097 97.5391 44.0577 97.7591 44.2497C97.9831 44.4417 98.1571 44.6737 98.2811 44.9457C98.4051 45.2177 98.4671 45.5197 98.4671 45.8517C98.4671 46.1237 98.4311 46.3677 98.3591 46.5837C98.2911 46.7957 98.1911 46.9817 98.0591 47.1417C97.9311 47.3017 97.7751 47.4377 97.5911 47.5497C97.4071 47.6617 97.2011 47.7537 96.9731 47.8257C97.5331 47.9697 97.9531 48.2177 98.2331 48.5697C98.5171 48.9177 98.6591 49.3537 98.6591 49.8777C98.6591 50.2737 98.5831 50.6297 98.4311 50.9457C98.2831 51.2617 98.0791 51.5317 97.8191 51.7557C97.5591 51.9757 97.2551 52.1457 96.9071 52.2657C96.5631 52.3818 96.1931 52.4398 95.7971 52.4398C95.3411 52.4398 94.9511 52.3838 94.6271 52.2717C94.3031 52.1557 94.0291 51.9977 93.8051 51.7977C93.5811 51.5977 93.3971 51.3617 93.2531 51.0897C93.1091 50.8137 92.9871 50.5157 92.8871 50.1957L93.3491 50.0037C93.4691 49.9517 93.5851 49.9377 93.6971 49.9617C93.8131 49.9857 93.8971 50.0517 93.9491 50.1597C94.0011 50.2717 94.0651 50.4057 94.1411 50.5617C94.2211 50.7177 94.3291 50.8677 94.4651 51.0117C94.6011 51.1557 94.7731 51.2777 94.9811 51.3777C95.1931 51.4777 95.4611 51.5277 95.7851 51.5277C96.0851 51.5277 96.3471 51.4797 96.5711 51.3837C96.7991 51.2837 96.9871 51.1557 97.1351 50.9997C97.2871 50.8437 97.4011 50.6697 97.4771 50.4777C97.5531 50.2857 97.5911 50.0957 97.5911 49.9077C97.5911 49.6757 97.5611 49.4637 97.5011 49.2717C97.4411 49.0797 97.3291 48.9137 97.1651 48.7737C97.0011 48.6337 96.7751 48.5237 96.4871 48.4437C96.2031 48.3637 95.8371 48.3237 95.3891 48.3237V47.5497C95.7571 47.5457 96.0691 47.5057 96.3251 47.4297C96.5851 47.3537 96.7951 47.2497 96.9551 47.1177C97.1191 46.9857 97.2371 46.8277 97.3091 46.6437C97.3851 46.4597 97.4231 46.2557 97.4231 46.0317C97.4231 45.7837 97.3831 45.5677 97.3031 45.3837C97.2271 45.1997 97.1211 45.0477 96.9851 44.9277C96.8491 44.8077 96.6871 44.7177 96.4991 44.6577C96.3151 44.5977 96.1151 44.5677 95.8991 44.5677C95.6831 44.5677 95.4811 44.5997 95.2931 44.6637C95.1091 44.7277 94.9451 44.8177 94.8011 44.9337C94.6611 45.0457 94.5431 45.1797 94.4471 45.3357C94.3511 45.4917 94.2831 45.6637 94.2431 45.8517C94.1911 45.9917 94.1251 46.0857 94.0451 46.1337C93.9691 46.1777 93.8571 46.1897 93.7091 46.1697L93.1511 46.0737ZM99.998 51.6837C99.998 51.5797 100.016 51.4817 100.052 51.3897C100.092 51.2977 100.144 51.2177 100.208 51.1497C100.276 51.0817 100.356 51.0277 100.448 50.9877C100.54 50.9477 100.638 50.9277 100.742 50.9277C100.846 50.9277 100.944 50.9477 101.036 50.9877C101.128 51.0277 101.208 51.0817 101.276 51.1497C101.344 51.2177 101.398 51.2977 101.438 51.3897C101.478 51.4817 101.498 51.5797 101.498 51.6837C101.498 51.7917 101.478 51.8917 101.438 51.9837C101.398 52.0717 101.344 52.1497 101.276 52.2177C101.208 52.2857 101.128 52.3377 101.036 52.3738C100.944 52.4138 100.846 52.4338 100.742 52.4338C100.638 52.4338 100.54 52.4138 100.448 52.3738C100.356 52.3377 100.276 52.2857 100.208 52.2177C100.144 52.1497 100.092 52.0717 100.052 51.9837C100.016 51.8917 99.998 51.7917 99.998 51.6837ZM104.34 46.9917C104.788 46.8957 105.2 46.8477 105.576 46.8477C106.024 46.8477 106.42 46.9137 106.764 47.0457C107.108 47.1777 107.394 47.3597 107.622 47.5917C107.854 47.8237 108.028 48.0977 108.144 48.4137C108.264 48.7297 108.324 49.0737 108.324 49.4457C108.324 49.9017 108.244 50.3137 108.084 50.6817C107.928 51.0497 107.71 51.3657 107.43 51.6297C107.154 51.8897 106.828 52.0897 106.452 52.2297C106.076 52.3698 105.67 52.4398 105.234 52.4398C104.982 52.4398 104.74 52.4138 104.508 52.3618C104.276 52.3137 104.058 52.2477 103.854 52.1637C103.654 52.0797 103.468 51.9837 103.296 51.8757C103.124 51.7677 102.972 51.6537 102.84 51.5337L103.17 51.0777C103.242 50.9737 103.336 50.9217 103.452 50.9217C103.532 50.9217 103.622 50.9537 103.722 51.0177C103.822 51.0777 103.944 51.1457 104.088 51.2217C104.232 51.2977 104.4 51.3677 104.592 51.4317C104.788 51.4917 105.02 51.5217 105.288 51.5217C105.588 51.5217 105.858 51.4737 106.098 51.3777C106.338 51.2817 106.544 51.1457 106.716 50.9697C106.888 50.7897 107.02 50.5757 107.112 50.3277C107.204 50.0797 107.25 49.8017 107.25 49.4937C107.25 49.2257 107.21 48.9837 107.13 48.7677C107.054 48.5517 106.936 48.3677 106.776 48.2157C106.62 48.0637 106.424 47.9457 106.188 47.8617C105.952 47.7777 105.676 47.7357 105.36 47.7357C105.144 47.7357 104.918 47.7537 104.682 47.7897C104.45 47.8257 104.212 47.8837 103.968 47.9637L103.296 47.7657L103.986 43.7457H108.06V44.2137C108.06 44.3657 108.012 44.4917 107.916 44.5917C107.824 44.6877 107.664 44.7357 107.436 44.7357H104.736L104.34 46.9917ZM117.527 46.2657V52.3438H116.459V49.7637C115.939 49.8997 115.449 49.9857 114.989 50.0217C114.533 50.0537 114.133 50.0177 113.789 49.9137C113.449 49.8097 113.179 49.6277 112.979 49.3677C112.783 49.1037 112.685 48.7397 112.685 48.2757V46.2657H113.759V48.1137C113.759 48.4057 113.817 48.6357 113.933 48.8037C114.053 48.9717 114.227 49.0877 114.455 49.1517C114.683 49.2157 114.965 49.2337 115.301 49.2057C115.637 49.1777 116.023 49.1117 116.459 49.0077V46.2657H117.527ZM122.515 49.6077C122.023 49.6237 121.603 49.6637 121.255 49.7277C120.911 49.7877 120.629 49.8677 120.409 49.9677C120.193 50.0677 120.035 50.1857 119.935 50.3217C119.839 50.4577 119.791 50.6097 119.791 50.7777C119.791 50.9377 119.817 51.0757 119.869 51.1917C119.921 51.3077 119.991 51.4037 120.079 51.4797C120.171 51.5517 120.277 51.6057 120.397 51.6417C120.521 51.6737 120.653 51.6897 120.793 51.6897C120.981 51.6897 121.153 51.6717 121.309 51.6357C121.465 51.5957 121.611 51.5397 121.747 51.4677C121.887 51.3957 122.019 51.3097 122.143 51.2097C122.271 51.1097 122.395 50.9957 122.515 50.8677V49.6077ZM119.065 47.1237C119.401 46.7997 119.763 46.5577 120.151 46.3977C120.539 46.2377 120.969 46.1577 121.441 46.1577C121.781 46.1577 122.083 46.2137 122.347 46.3257C122.611 46.4377 122.833 46.5937 123.013 46.7937C123.193 46.9937 123.329 47.2357 123.421 47.5197C123.513 47.8037 123.559 48.1157 123.559 48.4557V52.3438H123.085C122.981 52.3438 122.901 52.3277 122.845 52.2957C122.789 52.2597 122.745 52.1917 122.713 52.0917L122.593 51.5157C122.433 51.6637 122.277 51.7957 122.125 51.9117C121.973 52.0237 121.813 52.1197 121.645 52.1997C121.477 52.2757 121.297 52.3337 121.105 52.3738C120.917 52.4178 120.707 52.4398 120.475 52.4398C120.239 52.4398 120.017 52.4078 119.809 52.3438C119.601 52.2757 119.419 52.1757 119.263 52.0437C119.111 51.9117 118.989 51.7457 118.897 51.5457C118.809 51.3417 118.765 51.1017 118.765 50.8257C118.765 50.5857 118.831 50.3557 118.963 50.1357C119.095 49.9117 119.309 49.7137 119.605 49.5417C119.901 49.3697 120.287 49.2297 120.763 49.1217C121.239 49.0098 121.823 48.9457 122.515 48.9297V48.4557C122.515 47.9837 122.413 47.6277 122.209 47.3877C122.005 47.1437 121.707 47.0217 121.315 47.0217C121.051 47.0217 120.829 47.0557 120.649 47.1237C120.473 47.1877 120.319 47.2617 120.187 47.3457C120.059 47.4257 119.947 47.4997 119.851 47.5677C119.759 47.6317 119.667 47.6637 119.575 47.6637C119.503 47.6637 119.441 47.6457 119.389 47.6097C119.337 47.5697 119.293 47.5217 119.257 47.4657L119.065 47.1237ZM129.416 47.3457C129.384 47.3897 129.352 47.4237 129.32 47.4477C129.288 47.4717 129.244 47.4837 129.188 47.4837C129.128 47.4837 129.062 47.4597 128.99 47.4117C128.918 47.3597 128.828 47.3037 128.72 47.2437C128.616 47.1837 128.486 47.1297 128.33 47.0817C128.178 47.0297 127.99 47.0037 127.766 47.0037C127.466 47.0037 127.202 47.0577 126.974 47.1657C126.746 47.2697 126.554 47.4217 126.398 47.6217C126.246 47.8217 126.13 48.0637 126.05 48.3477C125.974 48.6317 125.936 48.9497 125.936 49.3017C125.936 49.6697 125.978 49.9977 126.062 50.2857C126.146 50.5697 126.264 50.8097 126.416 51.0057C126.572 51.1977 126.758 51.3457 126.974 51.4497C127.194 51.5497 127.44 51.5997 127.712 51.5997C127.972 51.5997 128.186 51.5697 128.354 51.5097C128.522 51.4457 128.66 51.3757 128.768 51.2997C128.88 51.2237 128.972 51.1557 129.044 51.0957C129.12 51.0317 129.194 50.9997 129.266 50.9997C129.354 50.9997 129.422 51.0337 129.47 51.1017L129.77 51.4917C129.638 51.6557 129.488 51.7957 129.32 51.9117C129.152 52.0277 128.97 52.1257 128.774 52.2057C128.582 52.2817 128.38 52.3377 128.168 52.3738C127.956 52.4098 127.74 52.4278 127.52 52.4278C127.14 52.4278 126.786 52.3577 126.458 52.2177C126.134 52.0777 125.852 51.8757 125.612 51.6117C125.372 51.3437 125.184 51.0157 125.048 50.6277C124.912 50.2397 124.844 49.7977 124.844 49.3017C124.844 48.8497 124.906 48.4317 125.03 48.0477C125.158 47.6637 125.342 47.3337 125.582 47.0577C125.826 46.7777 126.124 46.5597 126.476 46.4037C126.832 46.2477 127.24 46.1697 127.7 46.1697C128.128 46.1697 128.504 46.2397 128.828 46.3797C129.156 46.5157 129.446 46.7097 129.698 46.9617L129.416 47.3457ZM134.21 49.6077C133.718 49.6237 133.298 49.6637 132.95 49.7277C132.606 49.7877 132.324 49.8677 132.104 49.9677C131.888 50.0677 131.73 50.1857 131.63 50.3217C131.534 50.4577 131.486 50.6097 131.486 50.7777C131.486 50.9377 131.512 51.0757 131.564 51.1917C131.616 51.3077 131.686 51.4037 131.774 51.4797C131.866 51.5517 131.972 51.6057 132.092 51.6417C132.216 51.6737 132.348 51.6897 132.488 51.6897C132.676 51.6897 132.848 51.6717 133.004 51.6357C133.16 51.5957 133.306 51.5397 133.442 51.4677C133.582 51.3957 133.714 51.3097 133.838 51.2097C133.966 51.1097 134.09 50.9957 134.21 50.8677V49.6077ZM130.76 47.1237C131.096 46.7997 131.458 46.5577 131.846 46.3977C132.234 46.2377 132.664 46.1577 133.136 46.1577C133.476 46.1577 133.778 46.2137 134.042 46.3257C134.306 46.4377 134.528 46.5937 134.708 46.7937C134.888 46.9937 135.024 47.2357 135.116 47.5197C135.208 47.8037 135.254 48.1157 135.254 48.4557V52.3438H134.78C134.676 52.3438 134.596 52.3277 134.54 52.2957C134.484 52.2597 134.44 52.1917 134.408 52.0917L134.288 51.5157C134.128 51.6637 133.972 51.7957 133.82 51.9117C133.668 52.0237 133.508 52.1197 133.34 52.1997C133.172 52.2757 132.992 52.3337 132.8 52.3738C132.612 52.4178 132.402 52.4398 132.17 52.4398C131.934 52.4398 131.712 52.4078 131.504 52.3438C131.296 52.2757 131.114 52.1757 130.958 52.0437C130.806 51.9117 130.684 51.7457 130.592 51.5457C130.504 51.3417 130.46 51.1017 130.46 50.8257C130.46 50.5857 130.526 50.3557 130.658 50.1357C130.79 49.9117 131.004 49.7137 131.3 49.5417C131.596 49.3697 131.982 49.2297 132.458 49.1217C132.934 49.0098 133.518 48.9457 134.21 48.9297V48.4557C134.21 47.9837 134.108 47.6277 133.904 47.3877C133.7 47.1437 133.402 47.0217 133.01 47.0217C132.746 47.0217 132.524 47.0557 132.344 47.1237C132.168 47.1877 132.014 47.2617 131.882 47.3457C131.754 47.4257 131.642 47.4997 131.546 47.5677C131.454 47.6317 131.362 47.6637 131.27 47.6637C131.198 47.6637 131.136 47.6457 131.084 47.6097C131.032 47.5697 130.988 47.5217 130.952 47.4657L130.76 47.1237Z" fill="#110833"/>
<defs>
<filter id="filter0_d_2237_14051" x="0" y="0" width="165" height="97.4902" filterUnits="userSpaceOnUse" color-interpolation-filters="sRGB">
<feFlood flood-opacity="0" result="BackgroundImageFix"/>
<feColorMatrix in="SourceAlpha" type="matrix" values="0 0 0 0 0 0 0 0 0 0 0 0 0 0 0 0 0 0 127 0" result="hardAlpha"/>
<feOffset dy="4"/>
<feGaussianBlur stdDeviation="5"/>
<feComposite in2="hardAlpha" operator="out"/>
<feColorMatrix type="matrix" values="0 0 0 0 0.545098 0 0 0 0 0.368627 0 0 0 0 0.882353 0 0 0 0.2 0"/>
<feBlend mode="normal" in2="BackgroundImageFix" result="effect1_dropShadow_2237_14051"/>
<feBlend mode="normal" in="SourceGraphic" in2="effect1_dropShadow_2237_14051" result="shape"/>
</filter>
</defs>
</svg>
