<svg width="163" height="99" viewBox="0 0 163 99" fill="none" xmlns="http://www.w3.org/2000/svg">
<g filter="url(#filter0_d_2237_14046)">
<path d="M104.752 72.3704C95.0632 73.6587 86.5509 77.3134 82.5854 83.8632C82.1251 84.6234 80.8749 84.6234 80.4146 83.8632C76.4491 77.3134 67.9368 73.6587 58.248 72.3704C54.5067 71.8729 17.6649 71.7781 17.5594 71.7778H17.5592H17.5584C13.384 71.7778 10.0001 68.3937 10.0003 64.2194L10.0004 61.1111L10 13.7037C10 13.6854 10.0001 13.6667 10.0004 13.6476V13.5588C10.0004 9.3842 13.3846 6 17.5592 6H81.5H144.283H145.296C149.551 6 153 9.44907 153 13.7037V61.1111V63.0627C153 67.8759 149.098 71.7778 144.285 71.7778H144.283C144.237 71.778 107.595 71.9923 104.752 72.3704Z" fill="white"/>
</g>
<path d="M68.3333 22.1862H65.6393V29.6562H64.2413V22.1862H61.5413V21.0162H68.3333V22.1862ZM71.2181 26.9802C70.7581 26.9962 70.3701 27.0342 70.0541 27.0942C69.7381 27.1502 69.4821 27.2242 69.2861 27.3162C69.0901 27.4042 68.9481 27.5102 68.8601 27.6342C68.7761 27.7582 68.7341 27.8942 68.7341 28.0422C68.7341 28.1862 68.7561 28.3102 68.8001 28.4142C68.8481 28.5142 68.9121 28.5982 68.9921 28.6662C69.0761 28.7302 69.1721 28.7782 69.2801 28.8102C69.3921 28.8382 69.5141 28.8522 69.6461 28.8522C69.9821 28.8522 70.2701 28.7902 70.5101 28.6662C70.7541 28.5382 70.9901 28.3542 71.2181 28.1143V26.9802ZM67.7981 24.3882C68.4901 23.7442 69.3141 23.4222 70.2701 23.4222C70.6221 23.4222 70.9341 23.4802 71.2061 23.5963C71.4821 23.7082 71.7121 23.8682 71.8961 24.0762C72.0841 24.2842 72.2261 24.5322 72.3221 24.8202C72.4221 25.1042 72.4721 25.4202 72.4721 25.7682V29.6562H71.8961C71.7721 29.6562 71.6781 29.6382 71.6141 29.6022C71.5501 29.5622 71.4961 29.4842 71.4521 29.3682L71.3261 28.8702C71.1701 29.0102 71.0161 29.1362 70.8641 29.2482C70.7121 29.3562 70.5541 29.4482 70.3901 29.5242C70.2301 29.6002 70.0561 29.6562 69.8681 29.6923C69.6841 29.7323 69.4801 29.7523 69.2561 29.7523C69.0081 29.7523 68.7761 29.7183 68.5601 29.6502C68.3481 29.5822 68.1641 29.4802 68.0081 29.3442C67.8521 29.2042 67.7281 29.0322 67.6361 28.8282C67.5481 28.6242 67.5041 28.3842 67.5041 28.1082C67.5041 27.8722 67.5661 27.6422 67.6901 27.4182C67.8181 27.1942 68.0261 26.9942 68.3141 26.8182C68.6061 26.6382 68.9881 26.4902 69.4601 26.3742C69.9361 26.2582 70.5221 26.1922 71.2181 26.1762V25.7682C71.2181 25.3282 71.1241 25.0002 70.9361 24.7842C70.7481 24.5682 70.4721 24.4602 70.1081 24.4602C69.8601 24.4602 69.6521 24.4922 69.4841 24.5562C69.3161 24.6162 69.1701 24.6822 69.0461 24.7542C68.9221 24.8262 68.8121 24.8942 68.7161 24.9582C68.6201 25.0182 68.5181 25.0482 68.4101 25.0482C68.3221 25.0482 68.2461 25.0262 68.1821 24.9822C68.1221 24.9342 68.0721 24.8762 68.0321 24.8082L67.7981 24.3882ZM80.9433 23.5182V29.6562H79.7853V25.9542C79.7853 25.8262 79.7933 25.6822 79.8093 25.5222C79.8253 25.3582 79.8453 25.2062 79.8693 25.0662L77.9193 28.5702C77.8793 28.6422 77.8273 28.7002 77.7633 28.7442C77.6993 28.7842 77.6273 28.8042 77.5473 28.8042H77.4093C77.3293 28.8042 77.2573 28.7842 77.1933 28.7442C77.1333 28.7002 77.0833 28.6422 77.0433 28.5702L75.0573 25.0482C75.0813 25.1882 75.1013 25.3422 75.1173 25.5102C75.1373 25.6742 75.1473 25.8222 75.1473 25.9542V29.6562H73.9833V23.5182H75.0393C75.1273 23.5182 75.2133 23.5382 75.2973 23.5782C75.3853 23.6182 75.4613 23.6962 75.5253 23.8122L77.1873 26.6562C77.2433 26.7602 77.2933 26.8722 77.3373 26.9922C77.3853 27.1122 77.4313 27.2322 77.4753 27.3522C77.5193 27.2322 77.5653 27.1122 77.6133 26.9922C77.6613 26.8722 77.7133 26.7602 77.7693 26.6562L79.4073 23.8122C79.4673 23.6922 79.5413 23.6142 79.6293 23.5782C79.7173 23.5382 79.8053 23.5182 79.8933 23.5182H80.9433ZM85.3462 28.7922C85.9022 28.7922 86.3182 28.6182 86.5942 28.2702C86.8702 27.9182 87.0082 27.4122 87.0082 26.7522C87.0082 26.1002 86.8742 25.5982 86.6062 25.2462C86.3382 24.8902 85.9322 24.7122 85.3882 24.7122C84.8522 24.7122 84.4362 24.8762 84.1402 25.2042C83.8482 25.5322 83.7022 26.0122 83.7022 26.6442C83.7022 27.3322 83.8382 27.8622 84.1102 28.2342C84.3862 28.6062 84.7982 28.7922 85.3462 28.7922ZM85.7722 22.2822C85.3842 22.3102 85.0502 22.3902 84.7702 22.5222C84.4942 22.6542 84.2642 22.8322 84.0802 23.0562C83.9002 23.2802 83.7622 23.5482 83.6662 23.8602C83.5742 24.1722 83.5202 24.5202 83.5042 24.9042C83.7042 24.5562 83.9942 24.2782 84.3742 24.0702C84.7542 23.8622 85.1982 23.7582 85.7062 23.7582C86.1142 23.7582 86.4802 23.8302 86.8042 23.9742C87.1282 24.1182 87.4022 24.3202 87.6262 24.5802C87.8542 24.8402 88.0282 25.1542 88.1482 25.5222C88.2722 25.8902 88.3342 26.2982 88.3342 26.7462C88.3342 27.2022 88.2622 27.6162 88.1182 27.9882C87.9782 28.3562 87.7782 28.6722 87.5182 28.9362C87.2582 29.1962 86.9442 29.3962 86.5762 29.5362C86.2082 29.6762 85.7982 29.7463 85.3462 29.7463C84.9182 29.7463 84.5222 29.6762 84.1582 29.5362C83.7942 29.3922 83.4782 29.1622 83.2102 28.8462C82.9422 28.5262 82.7322 28.1082 82.5802 27.5922C82.4322 27.0762 82.3582 26.4442 82.3582 25.6962C82.3582 25.0642 82.4162 24.4802 82.5322 23.9442C82.6482 23.4082 82.8362 22.9402 83.0962 22.5402C83.3562 22.1362 83.6962 21.8122 84.1162 21.5682C84.5402 21.3202 85.0562 21.1722 85.6642 21.1242L87.8422 20.9442L87.9142 21.6162C87.9302 21.7642 87.9082 21.8882 87.8482 21.9882C87.7922 22.0882 87.6922 22.1422 87.5482 22.1502L85.7722 22.2822ZM92.2269 23.4402C92.6789 23.4402 93.0869 23.5142 93.4509 23.6622C93.8189 23.8102 94.1309 24.0202 94.3869 24.2922C94.6469 24.5642 94.8469 24.8942 94.9869 25.2822C95.1269 25.6702 95.1969 26.1062 95.1969 26.5902C95.1969 27.0742 95.1269 27.5102 94.9869 27.8982C94.8469 28.2862 94.6469 28.6182 94.3869 28.8942C94.1309 29.1662 93.8189 29.3762 93.4509 29.5242C93.0869 29.6722 92.6789 29.7463 92.2269 29.7463C91.7709 29.7463 91.3589 29.6722 90.9909 29.5242C90.6269 29.3762 90.3149 29.1662 90.0549 28.8942C89.7949 28.6182 89.5949 28.2862 89.4549 27.8982C89.3149 27.5102 89.2449 27.0742 89.2449 26.5902C89.2449 26.1062 89.3149 25.6702 89.4549 25.2822C89.5949 24.8942 89.7949 24.5642 90.0549 24.2922C90.3149 24.0202 90.6269 23.8102 90.9909 23.6622C91.3589 23.5142 91.7709 23.4402 92.2269 23.4402ZM92.2269 28.7382C92.7789 28.7382 93.1889 28.5542 93.4569 28.1862C93.7289 27.8142 93.8649 27.2842 93.8649 26.5962C93.8649 25.9082 93.7289 25.3782 93.4569 25.0062C93.1889 24.6302 92.7789 24.4422 92.2269 24.4422C91.6669 24.4422 91.2509 24.6302 90.9789 25.0062C90.7069 25.3782 90.5709 25.9082 90.5709 26.5962C90.5709 27.2842 90.7069 27.8142 90.9789 28.1862C91.2509 28.5542 91.6669 28.7382 92.2269 28.7382ZM98.8664 28.7622C99.2184 28.7622 99.4964 28.6782 99.7004 28.5102C99.9084 28.3382 100.012 28.1082 100.012 27.8202C100.012 27.6962 99.9944 27.5802 99.9584 27.4722C99.9224 27.3642 99.8604 27.2722 99.7724 27.1962C99.6844 27.1162 99.5664 27.0542 99.4184 27.0102C99.2744 26.9662 99.0924 26.9442 98.8724 26.9442H97.6664V28.7622H98.8664ZM97.6664 24.3882V26.1342H98.7284C98.8884 26.1342 99.0344 26.1122 99.1664 26.0682C99.3024 26.0202 99.4184 25.9562 99.5144 25.8762C99.6144 25.7922 99.6904 25.6942 99.7424 25.5822C99.7984 25.4662 99.8264 25.3382 99.8264 25.1982C99.8264 25.0982 99.8084 25.0002 99.7724 24.9042C99.7364 24.8042 99.6744 24.7162 99.5864 24.6402C99.5024 24.5642 99.3904 24.5042 99.2504 24.4602C99.1104 24.4122 98.9364 24.3882 98.7284 24.3882H97.6664ZM98.7704 23.5362C99.1504 23.5362 99.4784 23.5742 99.7544 23.6502C100.03 23.7222 100.256 23.8242 100.432 23.9562C100.612 24.0882 100.744 24.2442 100.828 24.4242C100.912 24.6042 100.954 24.7982 100.954 25.0062C100.954 25.1382 100.936 25.2762 100.9 25.4202C100.864 25.5642 100.802 25.7022 100.714 25.8342C100.626 25.9622 100.506 26.0802 100.354 26.1882C100.206 26.2962 100.016 26.3802 99.7844 26.4402C100.22 26.5202 100.564 26.6802 100.816 26.9202C101.072 27.1562 101.2 27.4722 101.2 27.8682C101.2 28.1722 101.138 28.4362 101.014 28.6602C100.89 28.8842 100.72 29.0702 100.504 29.2182C100.292 29.3662 100.044 29.4762 99.7604 29.5482C99.4804 29.6202 99.1844 29.6562 98.8724 29.6562H96.4364V23.5362H98.7704Z" fill="#110833"/>
<path fill-rule="evenodd" clip-rule="evenodd" d="M40.5486 35.2344C41.8379 35.2344 43.0773 35.7326 44.0077 36.6251L45.6811 38.23C45.6811 38.23 46.3132 38.5707 47.0065 38.6701C47.6999 38.7694 48.4921 39.7876 48.4921 40.544V41.481V41.7456C48.4921 41.9663 48.3675 42.168 48.1701 42.2667L48.0457 42.3289C47.8876 42.4079 47.7216 42.4684 47.5509 42.5095C47.5532 42.4685 47.5543 42.4272 47.5543 42.3856C47.5543 41.1781 46.5755 40.1992 45.368 40.1992C44.1605 40.1992 43.1816 41.1781 43.1816 42.3856C43.1816 42.4491 43.1843 42.512 43.1897 42.5742H43.1563H38.829H38.8012C38.8065 42.512 38.8092 42.4491 38.8092 42.3856C38.8092 41.1781 37.8303 40.1992 36.6229 40.1992C35.4154 40.1992 34.4365 41.1781 34.4365 42.3856L34.4366 42.4024L33.936 42.2438C33.6764 42.1615 33.5 41.9206 33.5 41.6483L33.5 38.954C33.5 38.1976 34.1065 37.5911 34.8629 37.5911H35.5444C36.4066 36.1306 37.9764 35.2344 39.6724 35.2344H40.5486ZM39.4845 36.3209C38.3407 36.4717 37.3005 37.0913 36.6233 38.0454L39.2838 38.1272L39.4845 36.3209ZM40.7421 36.3165L40.5366 38.1658L44.0059 38.2726L43.5954 37.8092C42.8556 36.9739 41.8379 36.4464 40.7421 36.3165ZM36.6234 43.6667C37.3134 43.6667 37.8727 43.1073 37.8727 42.4173C37.8727 41.7273 37.3134 41.168 36.6234 41.168C35.9334 41.168 35.374 41.7273 35.374 42.4173C35.374 43.1073 35.9334 43.6667 36.6234 43.6667ZM45.3685 43.6667C46.0585 43.6667 46.6178 43.1073 46.6178 42.4173C46.6178 41.7273 46.0585 41.168 45.3685 41.168C44.6785 41.168 44.1191 41.7273 44.1191 42.4173C44.1191 43.1073 44.6785 43.6667 45.3685 43.6667Z" fill="#888499"/>
<path opacity="0.5" d="M57.4635 43.1684V43.9844H52.8555V43.1684H54.6975V37.3064C54.6975 37.1304 54.7035 36.9524 54.7155 36.7724L53.1855 38.0864C53.1335 38.1304 53.0815 38.1584 53.0295 38.1704C52.9775 38.1784 52.9295 38.1784 52.8855 38.1704C52.8415 38.1624 52.7995 38.1464 52.7595 38.1224C52.7235 38.0984 52.6955 38.0724 52.6755 38.0444L52.3395 37.5824L54.9015 35.3684H55.7715V43.1684H57.4635ZM64.8024 35.3864V35.8664C64.8024 36.0024 64.7864 36.1144 64.7544 36.2024C64.7264 36.2904 64.6984 36.3644 64.6704 36.4244L61.1064 43.6064C61.0544 43.7104 60.9824 43.8004 60.8904 43.8764C60.7984 43.9484 60.6764 43.9844 60.5244 43.9844H59.7564L63.3684 36.8924C63.4204 36.7924 63.4744 36.7004 63.5304 36.6164C63.5864 36.5324 63.6464 36.4524 63.7104 36.3764H59.2224C59.1544 36.3764 59.0944 36.3504 59.0424 36.2984C58.9904 36.2424 58.9644 36.1804 58.9644 36.1124V35.3864H64.8024ZM71.1993 42.9704C71.3153 42.9704 71.4073 43.0044 71.4753 43.0724C71.5433 43.1404 71.5773 43.2284 71.5773 43.3364V43.9844H65.8413V43.6184C65.8413 43.5424 65.8573 43.4644 65.8893 43.3844C65.9213 43.3044 65.9713 43.2304 66.0393 43.1624L68.7933 40.3964C69.0213 40.1644 69.2293 39.9424 69.4173 39.7304C69.6053 39.5144 69.7653 39.2984 69.8973 39.0824C70.0293 38.8664 70.1313 38.6484 70.2033 38.4284C70.2753 38.2044 70.3113 37.9664 70.3113 37.7144C70.3113 37.4624 70.2713 37.2424 70.1913 37.0544C70.1113 36.8624 70.0013 36.7044 69.8613 36.5804C69.7253 36.4564 69.5633 36.3644 69.3753 36.3044C69.1873 36.2404 68.9853 36.2084 68.7693 36.2084C68.5493 36.2084 68.3473 36.2404 68.1633 36.3044C67.9793 36.3684 67.8153 36.4584 67.6713 36.5744C67.5313 36.6864 67.4133 36.8204 67.3173 36.9764C67.2213 37.1324 67.1533 37.3044 67.1133 37.4924C67.0653 37.6324 66.9993 37.7264 66.9153 37.7744C66.8353 37.8184 66.7213 37.8304 66.5733 37.8104L66.0153 37.7144C66.0713 37.3224 66.1793 36.9764 66.3393 36.6764C66.5033 36.3724 66.7073 36.1184 66.9513 35.9144C67.1993 35.7104 67.4813 35.5564 67.7973 35.4524C68.1133 35.3444 68.4553 35.2904 68.8233 35.2904C69.1873 35.2904 69.5273 35.3444 69.8433 35.4524C70.1593 35.5604 70.4333 35.7184 70.6653 35.9264C70.8973 36.1304 71.0793 36.3804 71.2113 36.6764C71.3433 36.9724 71.4093 37.3084 71.4093 37.6844C71.4093 38.0044 71.3613 38.3024 71.2653 38.5784C71.1693 38.8504 71.0393 39.1104 70.8753 39.3584C70.7113 39.6064 70.5213 39.8484 70.3053 40.0844C70.0933 40.3204 69.8673 40.5584 69.6273 40.7984L67.3593 43.1144C67.5193 43.0704 67.6813 43.0364 67.8453 43.0124C68.0093 42.9844 68.1673 42.9704 68.3193 42.9704H71.1993ZM79.8446 38.2064C79.9006 38.1184 79.9746 38.0464 80.0666 37.9904C80.1586 37.9344 80.2566 37.9064 80.3606 37.9064H81.1946L79.6166 40.2224C79.5206 40.3704 79.4206 40.4924 79.3166 40.5884C79.2126 40.6804 79.0846 40.7524 78.9326 40.8044C79.1246 40.8564 79.2866 40.9384 79.4186 41.0504C79.5506 41.1584 79.6686 41.2984 79.7726 41.4704L81.3686 43.9844H80.6246C80.4326 43.9844 80.2846 43.9524 80.1806 43.8884C80.0766 43.8244 79.9866 43.7324 79.9106 43.6124L78.7286 41.7224C78.5406 41.4104 78.2586 41.2544 77.8826 41.2544H77.2286V43.9904H76.1546V37.9064H77.2286V40.5344H77.8046C78.1246 40.5344 78.3746 40.3984 78.5546 40.1264L79.8446 38.2064ZM89.1395 37.8884V43.9844H88.1735V39.9464C88.1735 39.8344 88.1795 39.7104 88.1915 39.5744C88.2075 39.4344 88.2275 39.3044 88.2515 39.1844L86.1395 42.8864C86.1075 42.9464 86.0655 42.9944 86.0135 43.0304C85.9615 43.0664 85.9015 43.0844 85.8335 43.0844H85.7135C85.6455 43.0844 85.5835 43.0664 85.5275 43.0304C85.4755 42.9944 85.4335 42.9464 85.4015 42.8864L83.2535 39.1724C83.2735 39.2924 83.2915 39.4244 83.3075 39.5684C83.3235 39.7084 83.3315 39.8344 83.3315 39.9464V43.9844H82.3655V37.8884H83.2235C83.2995 37.8884 83.3735 37.9064 83.4455 37.9424C83.5175 37.9744 83.5795 38.0364 83.6315 38.1284L85.5275 41.2964C85.6195 41.4804 85.7015 41.6744 85.7735 41.8784C85.8415 41.6664 85.9215 41.4724 86.0135 41.2964L87.8735 38.1284C87.9255 38.0324 87.9875 37.9684 88.0595 37.9364C88.1315 37.9044 88.2055 37.8884 88.2815 37.8884H89.1395ZM90.7605 45.4364C90.7285 45.4084 90.7065 45.3824 90.6945 45.3584C90.6825 45.3344 90.6765 45.3044 90.6765 45.2684C90.6765 45.2404 90.6845 45.2124 90.7005 45.1844C90.7205 45.1564 90.7425 45.1304 90.7665 45.1064C90.8065 45.0624 90.8565 45.0044 90.9165 44.9324C90.9805 44.8604 91.0445 44.7744 91.1085 44.6744C91.1725 44.5784 91.2305 44.4704 91.2825 44.3504C91.3385 44.2344 91.3785 44.1104 91.4025 43.9784C91.3905 43.9824 91.3765 43.9844 91.3605 43.9844C91.3485 43.9844 91.3365 43.9844 91.3245 43.9844C91.1165 43.9844 90.9465 43.9164 90.8145 43.7804C90.6865 43.6404 90.6225 43.4624 90.6225 43.2464C90.6225 43.0584 90.6865 42.8984 90.8145 42.7664C90.9465 42.6344 91.1205 42.5684 91.3365 42.5684C91.4565 42.5684 91.5625 42.5904 91.6545 42.6344C91.7465 42.6784 91.8225 42.7404 91.8825 42.8204C91.9465 42.8964 91.9945 42.9864 92.0265 43.0904C92.0585 43.1904 92.0745 43.3004 92.0745 43.4204C92.0745 43.6004 92.0485 43.7884 91.9965 43.9844C91.9485 44.1764 91.8745 44.3664 91.7745 44.5544C91.6785 44.7464 91.5605 44.9324 91.4205 45.1124C91.2805 45.2924 91.1205 45.4584 90.9405 45.6104L90.7605 45.4364ZM101.692 42.9704C101.808 42.9704 101.9 43.0044 101.968 43.0724C102.036 43.1404 102.07 43.2284 102.07 43.3364V43.9844H96.3335V43.6184C96.3335 43.5424 96.3495 43.4644 96.3815 43.3844C96.4135 43.3044 96.4635 43.2304 96.5315 43.1624L99.2855 40.3964C99.5135 40.1644 99.7215 39.9424 99.9095 39.7304C100.098 39.5144 100.258 39.2984 100.39 39.0824C100.522 38.8664 100.624 38.6484 100.696 38.4284C100.768 38.2044 100.804 37.9664 100.804 37.7144C100.804 37.4624 100.764 37.2424 100.684 37.0544C100.604 36.8624 100.494 36.7044 100.354 36.5804C100.218 36.4564 100.056 36.3644 99.8675 36.3044C99.6795 36.2404 99.4775 36.2084 99.2615 36.2084C99.0415 36.2084 98.8395 36.2404 98.6555 36.3044C98.4715 36.3684 98.3075 36.4584 98.1635 36.5744C98.0235 36.6864 97.9055 36.8204 97.8095 36.9764C97.7135 37.1324 97.6455 37.3044 97.6055 37.4924C97.5575 37.6324 97.4915 37.7264 97.4075 37.7744C97.3275 37.8184 97.2135 37.8304 97.0655 37.8104L96.5075 37.7144C96.5635 37.3224 96.6715 36.9764 96.8315 36.6764C96.9955 36.3724 97.1995 36.1184 97.4435 35.9144C97.6915 35.7104 97.9735 35.5564 98.2895 35.4524C98.6055 35.3444 98.9475 35.2904 99.3155 35.2904C99.6795 35.2904 100.02 35.3444 100.336 35.4524C100.652 35.5604 100.926 35.7184 101.158 35.9264C101.39 36.1304 101.572 36.3804 101.704 36.6764C101.836 36.9724 101.902 37.3084 101.902 37.6844C101.902 38.0044 101.854 38.3024 101.758 38.5784C101.662 38.8504 101.532 39.1104 101.368 39.3584C101.204 39.6064 101.014 39.8484 100.798 40.0844C100.586 40.3204 100.36 40.5584 100.12 40.7984L97.8515 43.1144C98.0115 43.0704 98.1735 43.0364 98.3375 43.0124C98.5015 42.9844 98.6595 42.9704 98.8115 42.9704H101.692ZM111.129 37.9064V43.9844H110.061V41.4044C109.541 41.5404 109.051 41.6264 108.591 41.6624C108.135 41.6944 107.735 41.6584 107.391 41.5544C107.051 41.4504 106.781 41.2684 106.581 41.0084C106.385 40.7444 106.287 40.3804 106.287 39.9164V37.9064H107.361V39.7544C107.361 40.0464 107.419 40.2764 107.535 40.4444C107.655 40.6124 107.829 40.7284 108.057 40.7924C108.285 40.8564 108.567 40.8744 108.903 40.8464C109.239 40.8184 109.625 40.7524 110.061 40.6484V37.9064H111.129ZM116.117 41.2484C115.625 41.2644 115.205 41.3044 114.857 41.3684C114.513 41.4284 114.231 41.5084 114.011 41.6084C113.795 41.7084 113.637 41.8264 113.537 41.9624C113.441 42.0984 113.393 42.2504 113.393 42.4184C113.393 42.5784 113.419 42.7164 113.471 42.8324C113.523 42.9484 113.593 43.0444 113.681 43.1204C113.773 43.1924 113.879 43.2464 113.999 43.2824C114.123 43.3144 114.255 43.3304 114.395 43.3304C114.583 43.3304 114.755 43.3124 114.911 43.2764C115.067 43.2364 115.213 43.1804 115.349 43.1084C115.489 43.0364 115.621 42.9504 115.745 42.8504C115.873 42.7504 115.997 42.6364 116.117 42.5084V41.2484ZM112.667 38.7644C113.003 38.4404 113.365 38.1984 113.753 38.0384C114.141 37.8784 114.571 37.7984 115.043 37.7984C115.383 37.7984 115.685 37.8544 115.949 37.9664C116.213 38.0784 116.435 38.2344 116.615 38.4344C116.795 38.6344 116.931 38.8764 117.023 39.1604C117.115 39.4444 117.161 39.7564 117.161 40.0964V43.9844H116.687C116.583 43.9844 116.503 43.9684 116.447 43.9364C116.391 43.9004 116.347 43.8324 116.315 43.7324L116.195 43.1564C116.035 43.3044 115.879 43.4364 115.727 43.5524C115.575 43.6644 115.415 43.7604 115.247 43.8404C115.079 43.9164 114.899 43.9744 114.707 44.0144C114.519 44.0584 114.309 44.0804 114.077 44.0804C113.841 44.0804 113.619 44.0484 113.411 43.9844C113.203 43.9164 113.021 43.8164 112.865 43.6844C112.713 43.5524 112.591 43.3864 112.499 43.1864C112.411 42.9824 112.367 42.7424 112.367 42.4664C112.367 42.2264 112.433 41.9964 112.565 41.7764C112.697 41.5524 112.911 41.3544 113.207 41.1824C113.503 41.0104 113.889 40.8704 114.365 40.7624C114.841 40.6504 115.425 40.5864 116.117 40.5704V40.0964C116.117 39.6244 116.015 39.2684 115.811 39.0284C115.607 38.7844 115.309 38.6624 114.917 38.6624C114.653 38.6624 114.431 38.6964 114.251 38.7644C114.075 38.8284 113.921 38.9024 113.789 38.9864C113.661 39.0664 113.549 39.1404 113.453 39.2084C113.361 39.2724 113.269 39.3044 113.177 39.3044C113.105 39.3044 113.043 39.2864 112.991 39.2504C112.939 39.2104 112.895 39.1624 112.859 39.1064L112.667 38.7644ZM123.017 38.9864C122.985 39.0304 122.953 39.0644 122.921 39.0884C122.889 39.1124 122.845 39.1244 122.789 39.1244C122.729 39.1244 122.663 39.1004 122.591 39.0524C122.519 39.0004 122.429 38.9444 122.321 38.8844C122.217 38.8244 122.087 38.7704 121.931 38.7224C121.779 38.6704 121.591 38.6444 121.367 38.6444C121.067 38.6444 120.803 38.6984 120.575 38.8064C120.347 38.9104 120.155 39.0624 119.999 39.2624C119.847 39.4624 119.731 39.7044 119.651 39.9884C119.575 40.2724 119.537 40.5904 119.537 40.9424C119.537 41.3104 119.579 41.6384 119.663 41.9264C119.747 42.2104 119.865 42.4504 120.017 42.6464C120.173 42.8384 120.359 42.9864 120.575 43.0904C120.795 43.1904 121.041 43.2404 121.313 43.2404C121.573 43.2404 121.787 43.2104 121.955 43.1504C122.123 43.0864 122.261 43.0164 122.369 42.9404C122.481 42.8644 122.573 42.7964 122.645 42.7364C122.721 42.6724 122.795 42.6404 122.867 42.6404C122.955 42.6404 123.023 42.6744 123.071 42.7424L123.371 43.1324C123.239 43.2964 123.089 43.4364 122.921 43.5524C122.753 43.6684 122.571 43.7664 122.375 43.8464C122.183 43.9224 121.981 43.9784 121.769 44.0144C121.557 44.0504 121.341 44.0684 121.121 44.0684C120.741 44.0684 120.387 43.9984 120.059 43.8584C119.735 43.7184 119.453 43.5164 119.213 43.2524C118.973 42.9844 118.785 42.6564 118.649 42.2684C118.513 41.8804 118.445 41.4384 118.445 40.9424C118.445 40.4904 118.507 40.0724 118.631 39.6884C118.759 39.3044 118.943 38.9744 119.183 38.6984C119.427 38.4184 119.725 38.2004 120.077 38.0444C120.433 37.8884 120.841 37.8104 121.301 37.8104C121.729 37.8104 122.105 37.8804 122.429 38.0204C122.757 38.1564 123.047 38.3504 123.299 38.6024L123.017 38.9864ZM127.812 41.2484C127.32 41.2644 126.9 41.3044 126.552 41.3684C126.208 41.4284 125.926 41.5084 125.706 41.6084C125.49 41.7084 125.332 41.8264 125.232 41.9624C125.136 42.0984 125.088 42.2504 125.088 42.4184C125.088 42.5784 125.114 42.7164 125.166 42.8324C125.218 42.9484 125.288 43.0444 125.376 43.1204C125.468 43.1924 125.574 43.2464 125.694 43.2824C125.818 43.3144 125.95 43.3304 126.09 43.3304C126.278 43.3304 126.45 43.3124 126.606 43.2764C126.762 43.2364 126.908 43.1804 127.044 43.1084C127.184 43.0364 127.316 42.9504 127.44 42.8504C127.568 42.7504 127.692 42.6364 127.812 42.5084V41.2484ZM124.362 38.7644C124.698 38.4404 125.06 38.1984 125.448 38.0384C125.836 37.8784 126.266 37.7984 126.738 37.7984C127.078 37.7984 127.38 37.8544 127.644 37.9664C127.908 38.0784 128.13 38.2344 128.31 38.4344C128.49 38.6344 128.626 38.8764 128.718 39.1604C128.81 39.4444 128.856 39.7564 128.856 40.0964V43.9844H128.382C128.278 43.9844 128.198 43.9684 128.142 43.9364C128.086 43.9004 128.042 43.8324 128.01 43.7324L127.89 43.1564C127.73 43.3044 127.574 43.4364 127.422 43.5524C127.27 43.6644 127.11 43.7604 126.942 43.8404C126.774 43.9164 126.594 43.9744 126.402 44.0144C126.214 44.0584 126.004 44.0804 125.772 44.0804C125.536 44.0804 125.314 44.0484 125.106 43.9844C124.898 43.9164 124.716 43.8164 124.56 43.6844C124.408 43.5524 124.286 43.3864 124.194 43.1864C124.106 42.9824 124.062 42.7424 124.062 42.4664C124.062 42.2264 124.128 41.9964 124.26 41.7764C124.392 41.5524 124.606 41.3544 124.902 41.1824C125.198 41.0104 125.584 40.8704 126.06 40.7624C126.536 40.6504 127.12 40.5864 127.812 40.5704V40.0964C127.812 39.6244 127.71 39.2684 127.506 39.0284C127.302 38.7844 127.004 38.6624 126.612 38.6624C126.348 38.6624 126.126 38.6964 125.946 38.7644C125.77 38.8284 125.616 38.9024 125.484 38.9864C125.356 39.0664 125.244 39.1404 125.148 39.2084C125.056 39.2724 124.964 39.3044 124.872 39.3044C124.8 39.3044 124.738 39.2864 124.686 39.2504C124.634 39.2104 124.59 39.1624 124.554 39.1064L124.362 38.7644Z" fill="#110833"/>
<defs>
<filter id="filter0_d_2237_14046" x="0" y="0" width="163" height="98.4336" filterUnits="userSpaceOnUse" color-interpolation-filters="sRGB">
<feFlood flood-opacity="0" result="BackgroundImageFix"/>
<feColorMatrix in="SourceAlpha" type="matrix" values="0 0 0 0 0 0 0 0 0 0 0 0 0 0 0 0 0 0 127 0" result="hardAlpha"/>
<feOffset dy="4"/>
<feGaussianBlur stdDeviation="5"/>
<feComposite in2="hardAlpha" operator="out"/>
<feColorMatrix type="matrix" values="0 0 0 0 0.545098 0 0 0 0 0.368627 0 0 0 0 0.882353 0 0 0 0.2 0"/>
<feBlend mode="normal" in2="BackgroundImageFix" result="effect1_dropShadow_2237_14046"/>
<feBlend mode="normal" in="SourceGraphic" in2="effect1_dropShadow_2237_14046" result="shape"/>
</filter>
</defs>
</svg>
