<svg width="163" height="98" viewBox="0 0 163 98" fill="none" xmlns="http://www.w3.org/2000/svg">
<g filter="url(#filter0_d_2237_14048)">
<path d="M104.752 71.5407C95.0605 72.8133 86.5462 76.424 82.5822 82.8952C82.1202 83.6493 80.8798 83.6493 80.4179 82.8952C76.4538 76.424 67.9395 72.8133 58.248 71.5407C54.5093 71.0498 17.7163 70.9559 17.5597 70.9556H17.5592H17.5584C13.384 70.9556 10.0001 67.5715 10.0003 63.3972L10.0004 60.4222L10 13.6074C10 13.5894 10.0001 13.5709 10.0004 13.552C10.0004 9.38113 13.3883 6 17.5592 6H81.5H144.283H145.393C149.594 6 153 9.40595 153 13.6074V60.4222V62.2404C153 67.0537 149.098 70.9556 144.285 70.9556H144.283C144.237 70.9558 107.595 71.1674 104.752 71.5407Z" fill="white"/>
</g>
<path d="M60.6759 27.5462C60.9919 27.5462 61.2579 27.5102 61.4739 27.4382C61.6939 27.3622 61.8719 27.2602 62.0079 27.1322C62.1479 27.0042 62.2479 26.8542 62.3079 26.6822C62.3719 26.5062 62.4039 26.3182 62.4039 26.1182C62.4039 25.7102 62.2639 25.3902 61.9839 25.1582C61.7079 24.9222 61.2699 24.8042 60.6699 24.8042H58.9359V27.5462H60.6759ZM58.9359 21.1142V23.8142H60.3399C60.9399 23.8142 61.3879 23.6982 61.6839 23.4662C61.9799 23.2342 62.1279 22.9002 62.1279 22.4642C62.1279 21.9882 61.9879 21.6442 61.7079 21.4322C61.4319 21.2202 60.9979 21.1142 60.4059 21.1142H58.9359ZM60.4059 20.0162C60.9579 20.0162 61.4299 20.0702 61.8219 20.1782C62.2139 20.2822 62.5359 20.4322 62.7879 20.6282C63.0399 20.8242 63.2239 21.0642 63.3399 21.3482C63.4599 21.6282 63.5199 21.9442 63.5199 22.2962C63.5199 22.5002 63.4879 22.6982 63.4239 22.8902C63.3639 23.0782 63.2679 23.2562 63.1359 23.4242C63.0079 23.5882 62.8459 23.7362 62.6499 23.8682C62.4539 24.0002 62.2219 24.1102 61.9539 24.1982C63.1779 24.4582 63.7899 25.1082 63.7899 26.1482C63.7899 26.5162 63.7199 26.8542 63.5799 27.1622C63.4439 27.4662 63.2439 27.7302 62.9799 27.9542C62.7199 28.1742 62.3979 28.3462 62.0139 28.4702C61.6299 28.5942 61.1919 28.6562 60.6999 28.6562H57.5319V20.0162H60.4059ZM67.684 22.4402C68.136 22.4402 68.544 22.5142 68.908 22.6622C69.276 22.8102 69.588 23.0202 69.844 23.2922C70.104 23.5642 70.304 23.8942 70.444 24.2822C70.584 24.6702 70.654 25.1062 70.654 25.5902C70.654 26.0742 70.584 26.5102 70.444 26.8982C70.304 27.2862 70.104 27.6182 69.844 27.8942C69.588 28.1662 69.276 28.3762 68.908 28.5242C68.544 28.6722 68.136 28.7463 67.684 28.7463C67.228 28.7463 66.816 28.6722 66.448 28.5242C66.084 28.3762 65.772 28.1662 65.512 27.8942C65.252 27.6182 65.052 27.2862 64.912 26.8982C64.772 26.5102 64.702 26.0742 64.702 25.5902C64.702 25.1062 64.772 24.6702 64.912 24.2822C65.052 23.8942 65.252 23.5642 65.512 23.2922C65.772 23.0202 66.084 22.8102 66.448 22.6622C66.816 22.5142 67.228 22.4402 67.684 22.4402ZM67.684 27.7382C68.236 27.7382 68.646 27.5542 68.914 27.1862C69.186 26.8142 69.322 26.2842 69.322 25.5962C69.322 24.9082 69.186 24.3782 68.914 24.0062C68.646 23.6302 68.236 23.4422 67.684 23.4422C67.124 23.4422 66.708 23.6302 66.436 24.0062C66.164 24.3782 66.028 24.9082 66.028 25.5962C66.028 26.2842 66.164 26.8142 66.436 27.1862C66.708 27.5542 67.124 27.7382 67.684 27.7382ZM73.1834 27.1202C73.3634 27.3522 73.5594 27.5162 73.7714 27.6122C73.9874 27.7042 74.2254 27.7502 74.4854 27.7502C74.9894 27.7502 75.3814 27.5662 75.6614 27.1982C75.9454 26.8302 76.0874 26.2822 76.0874 25.5542C76.0874 25.1782 76.0554 24.8582 75.9914 24.5942C75.9274 24.3262 75.8354 24.1082 75.7154 23.9402C75.5954 23.7722 75.4494 23.6502 75.2774 23.5742C75.1054 23.4982 74.9114 23.4602 74.6954 23.4602C74.3674 23.4602 74.0834 23.5322 73.8434 23.6762C73.6074 23.8162 73.3874 24.0182 73.1834 24.2822V27.1202ZM73.1174 23.4242C73.3734 23.1242 73.6634 22.8822 73.9874 22.6982C74.3154 22.5142 74.6954 22.4222 75.1274 22.4222C75.4714 22.4222 75.7834 22.4922 76.0634 22.6322C76.3434 22.7682 76.5834 22.9682 76.7834 23.2322C76.9834 23.4962 77.1374 23.8242 77.2454 24.2162C77.3574 24.6042 77.4134 25.0502 77.4134 25.5542C77.4134 26.0062 77.3514 26.4282 77.2274 26.8202C77.1074 27.2082 76.9334 27.5462 76.7054 27.8342C76.4774 28.1182 76.2014 28.3423 75.8774 28.5062C75.5534 28.6663 75.1874 28.7463 74.7794 28.7463C74.4194 28.7463 74.1134 28.6883 73.8614 28.5722C73.6134 28.4562 73.3874 28.2962 73.1834 28.0922V30.6903H71.8934V22.5362H72.6734C72.8494 22.5362 72.9614 22.6182 73.0094 22.7822L73.1174 23.4242ZM81.3129 22.4402C81.7649 22.4402 82.1729 22.5142 82.5369 22.6622C82.9049 22.8102 83.2169 23.0202 83.4729 23.2922C83.7329 23.5642 83.9329 23.8942 84.0729 24.2822C84.2129 24.6702 84.2829 25.1062 84.2829 25.5902C84.2829 26.0742 84.2129 26.5102 84.0729 26.8982C83.9329 27.2862 83.7329 27.6182 83.4729 27.8942C83.2169 28.1662 82.9049 28.3762 82.5369 28.5242C82.1729 28.6722 81.7649 28.7463 81.3129 28.7463C80.8569 28.7463 80.4449 28.6722 80.0769 28.5242C79.7129 28.3762 79.4009 28.1662 79.1409 27.8942C78.8809 27.6182 78.6809 27.2862 78.5409 26.8982C78.4009 26.5102 78.3309 26.0742 78.3309 25.5902C78.3309 25.1062 78.4009 24.6702 78.5409 24.2822C78.6809 23.8942 78.8809 23.5642 79.1409 23.2922C79.4009 23.0202 79.7129 22.8102 80.0769 22.6622C80.4449 22.5142 80.8569 22.4402 81.3129 22.4402ZM81.3129 27.7382C81.8649 27.7382 82.2749 27.5542 82.5429 27.1862C82.8149 26.8142 82.9509 26.2842 82.9509 25.5962C82.9509 24.9082 82.8149 24.3782 82.5429 24.0062C82.2749 23.6302 81.8649 23.4422 81.3129 23.4422C80.7529 23.4422 80.3369 23.6302 80.0649 24.0062C79.7929 24.3782 79.6569 24.9082 79.6569 25.5962C79.6569 26.2842 79.7929 26.8142 80.0649 27.1862C80.3369 27.5542 80.7529 27.7382 81.3129 27.7382ZM90.7423 22.5362V28.6562H89.4583V25.8782H86.8123V28.6562H85.5223V22.5362H86.8123V24.9062H89.4583V22.5362H90.7423ZM96.3332 24.9062C96.3332 24.6902 96.3012 24.4902 96.2372 24.3062C96.1772 24.1182 96.0872 23.9562 95.9672 23.8202C95.8472 23.6802 95.6972 23.5722 95.5172 23.4962C95.3412 23.4162 95.1372 23.3762 94.9052 23.3762C94.4372 23.3762 94.0692 23.5102 93.8012 23.7782C93.5332 24.0462 93.3632 24.4222 93.2912 24.9062H96.3332ZM93.2552 25.6982C93.2712 26.0462 93.3252 26.3482 93.4172 26.6042C93.5092 26.8562 93.6312 27.0662 93.7832 27.2342C93.9392 27.4022 94.1232 27.5282 94.3352 27.6122C94.5512 27.6922 94.7912 27.7322 95.0552 27.7322C95.3072 27.7322 95.5252 27.7042 95.7092 27.6482C95.8932 27.5882 96.0532 27.5242 96.1892 27.4562C96.3252 27.3842 96.4412 27.3202 96.5372 27.2642C96.6332 27.2042 96.7212 27.1742 96.8012 27.1742C96.9052 27.1742 96.9852 27.2142 97.0412 27.2942L97.4072 27.7682C97.2552 27.9482 97.0832 28.1002 96.8912 28.2242C96.6992 28.3482 96.4952 28.4502 96.2792 28.5302C96.0632 28.6062 95.8412 28.6602 95.6132 28.6923C95.3852 28.7283 95.1632 28.7463 94.9472 28.7463C94.5232 28.7463 94.1292 28.6762 93.7652 28.5362C93.4052 28.3922 93.0912 28.1822 92.8232 27.9062C92.5592 27.6302 92.3512 27.2882 92.1992 26.8802C92.0512 26.4722 91.9772 26.0022 91.9772 25.4702C91.9772 25.0462 92.0432 24.6502 92.1752 24.2822C92.3112 23.9142 92.5032 23.5942 92.7512 23.3222C93.0032 23.0502 93.3072 22.8362 93.6632 22.6802C94.0232 22.5202 94.4292 22.4402 94.8812 22.4402C95.2572 22.4402 95.6052 22.5022 95.9252 22.6263C96.2452 22.7462 96.5212 22.9242 96.7532 23.1602C96.9852 23.3962 97.1652 23.6862 97.2932 24.0302C97.4252 24.3702 97.4912 24.7582 97.4912 25.1942C97.4912 25.3942 97.4692 25.5282 97.4252 25.5962C97.3812 25.6642 97.3012 25.6982 97.1852 25.6982H93.2552ZM107.366 28.6562H106.478C106.25 28.6562 106.074 28.6202 105.95 28.5482C105.83 28.4762 105.736 28.3622 105.668 28.2062L104.63 26.4182C104.546 26.2662 104.436 26.1542 104.3 26.0822C104.164 26.0102 104.01 25.9742 103.838 25.9742H103.292V28.6623H102.044V25.9742H101.504C101.328 25.9742 101.172 26.0102 101.036 26.0822C100.904 26.1542 100.794 26.2662 100.706 26.4182L99.6676 28.2062C99.5996 28.3622 99.5036 28.4762 99.3796 28.5482C99.2596 28.6202 99.0856 28.6562 98.8576 28.6562H97.9696L99.4816 26.1302C99.5856 25.9502 99.7016 25.8042 99.8296 25.6922C99.9616 25.5762 100.126 25.4902 100.322 25.4342C100.174 25.3783 100.046 25.3022 99.9376 25.2062C99.8336 25.1102 99.7336 24.9862 99.6376 24.8342L98.1316 22.5362H99.1456C99.2656 22.5362 99.3756 22.5682 99.4756 22.6322C99.5756 22.6962 99.6536 22.7802 99.7096 22.8842L100.874 24.7202C100.954 24.8522 101.05 24.9502 101.162 25.0142C101.274 25.0782 101.414 25.1102 101.582 25.1102H102.044V22.5302H103.292V25.1102H103.736C104.068 25.1102 104.31 24.9802 104.462 24.7202L105.626 22.8842C105.682 22.7802 105.76 22.6962 105.86 22.6322C105.964 22.5682 106.076 22.5362 106.196 22.5362H107.204L105.698 24.8342C105.602 24.9862 105.502 25.1102 105.398 25.2062C105.294 25.3022 105.168 25.3783 105.02 25.4342C105.216 25.4902 105.378 25.5762 105.506 25.6922C105.634 25.8042 105.75 25.9502 105.854 26.1302L107.366 28.6562Z" fill="#110833"/>
<path fill-rule="evenodd" clip-rule="evenodd" d="M41.0486 34.2344C42.3379 34.2344 43.5773 34.7326 44.5077 35.6251L46.1811 37.23C46.1811 37.23 46.8132 37.5707 47.5065 37.6701C48.1999 37.7694 48.9921 38.7876 48.9921 39.544V40.481V40.7456C48.9921 40.9663 48.8675 41.168 48.6701 41.2667L48.5457 41.3289C48.3876 41.4079 48.2216 41.4684 48.0509 41.5095C48.0532 41.4685 48.0543 41.4272 48.0543 41.3856C48.0543 40.1781 47.0755 39.1992 45.868 39.1992C44.6605 39.1992 43.6816 40.1781 43.6816 41.3856C43.6816 41.4491 43.6843 41.512 43.6897 41.5742H43.6563H39.329H39.3012C39.3065 41.512 39.3092 41.4491 39.3092 41.3856C39.3092 40.1781 38.3303 39.1992 37.1229 39.1992C35.9154 39.1992 34.9365 40.1781 34.9365 41.3856L34.9366 41.4024L34.436 41.2438C34.1764 41.1615 34 40.9206 34 40.6483L34 37.954C34 37.1976 34.6065 36.5911 35.3629 36.5911H36.0444C36.9066 35.1306 38.4764 34.2344 40.1724 34.2344H41.0486ZM39.9845 35.3209C38.8407 35.4717 37.8005 36.0913 37.1233 37.0454L39.7838 37.1272L39.9845 35.3209ZM41.2421 35.3165L41.0366 37.1658L44.5059 37.2726L44.0954 36.8092C43.3556 35.9739 42.3379 35.4464 41.2421 35.3165ZM37.1234 42.6667C37.8134 42.6667 38.3727 42.1073 38.3727 41.4173C38.3727 40.7273 37.8134 40.168 37.1234 40.168C36.4334 40.168 35.874 40.7273 35.874 41.4173C35.874 42.1073 36.4334 42.6667 37.1234 42.6667ZM45.8685 42.6667C46.5585 42.6667 47.1178 42.1073 47.1178 41.4173C47.1178 40.7273 46.5585 40.168 45.8685 40.168C45.1785 40.168 44.6191 40.7273 44.6191 41.4173C44.6191 42.1073 45.1785 42.6667 45.8685 42.6667Z" fill="#888499"/>
<path opacity="0.5" d="M57.7775 41.9704C57.8935 41.9704 57.9855 42.0044 58.0535 42.0724C58.1215 42.1404 58.1555 42.2284 58.1555 42.3364V42.9844H52.4195V42.6184C52.4195 42.5424 52.4355 42.4644 52.4675 42.3844C52.4995 42.3044 52.5495 42.2304 52.6175 42.1624L55.3715 39.3964C55.5995 39.1644 55.8075 38.9424 55.9955 38.7304C56.1835 38.5144 56.3435 38.2984 56.4755 38.0824C56.6075 37.8664 56.7095 37.6484 56.7815 37.4284C56.8535 37.2044 56.8895 36.9664 56.8895 36.7144C56.8895 36.4624 56.8495 36.2424 56.7695 36.0544C56.6895 35.8624 56.5795 35.7044 56.4395 35.5804C56.3035 35.4564 56.1415 35.3644 55.9535 35.3044C55.7655 35.2404 55.5635 35.2084 55.3475 35.2084C55.1275 35.2084 54.9255 35.2404 54.7415 35.3044C54.5575 35.3684 54.3935 35.4584 54.2495 35.5744C54.1095 35.6864 53.9915 35.8204 53.8955 35.9764C53.7995 36.1324 53.7315 36.3044 53.6915 36.4924C53.6435 36.6324 53.5775 36.7264 53.4935 36.7744C53.4135 36.8184 53.2995 36.8304 53.1515 36.8104L52.5935 36.7144C52.6495 36.3224 52.7575 35.9764 52.9175 35.6764C53.0815 35.3724 53.2855 35.1184 53.5295 34.9144C53.7775 34.7104 54.0595 34.5564 54.3755 34.4524C54.6915 34.3444 55.0335 34.2904 55.4015 34.2904C55.7655 34.2904 56.1055 34.3444 56.4215 34.4524C56.7375 34.5604 57.0115 34.7184 57.2435 34.9264C57.4755 35.1304 57.6575 35.3804 57.7895 35.6764C57.9215 35.9724 57.9875 36.3084 57.9875 36.6844C57.9875 37.0044 57.9395 37.3024 57.8435 37.5784C57.7475 37.8504 57.6175 38.1104 57.4535 38.3584C57.2895 38.6064 57.0995 38.8484 56.8835 39.0844C56.6715 39.3204 56.4455 39.5584 56.2055 39.7984L53.9375 42.1144C54.0975 42.0704 54.2595 42.0364 54.4235 42.0124C54.5875 41.9844 54.7455 41.9704 54.8975 41.9704H57.7775ZM63.1964 39.8824V36.3364C63.1964 36.2324 63.2004 36.1184 63.2084 35.9944C63.2164 35.8704 63.2284 35.7444 63.2444 35.6164L60.1124 39.8824H63.1964ZM65.4344 39.8824V40.4944C65.4344 40.5584 65.4144 40.6124 65.3744 40.6564C65.3384 40.7004 65.2804 40.7224 65.2004 40.7224H64.1324V42.9844H63.1964V40.7224H59.3804C59.3004 40.7224 59.2304 40.7004 59.1704 40.6564C59.1144 40.6084 59.0784 40.5504 59.0624 40.4824L58.9544 39.9364L63.1364 34.3864H64.1324V39.8824H65.4344ZM72.3773 38.6884C72.3773 39.4404 72.2953 40.0924 72.1313 40.6444C71.9713 41.1924 71.7513 41.6464 71.4713 42.0064C71.1913 42.3664 70.8593 42.6344 70.4753 42.8104C70.0953 42.9864 69.6873 43.0744 69.2513 43.0744C68.8113 43.0744 68.4013 42.9864 68.0213 42.8104C67.6453 42.6344 67.3173 42.3664 67.0373 42.0064C66.7573 41.6464 66.5373 41.1924 66.3773 40.6444C66.2173 40.0924 66.1373 39.4404 66.1373 38.6884C66.1373 37.9364 66.2173 37.2844 66.3773 36.7324C66.5373 36.1804 66.7573 35.7244 67.0373 35.3644C67.3173 35.0004 67.6453 34.7304 68.0213 34.5544C68.4013 34.3784 68.8113 34.2904 69.2513 34.2904C69.6873 34.2904 70.0953 34.3784 70.4753 34.5544C70.8593 34.7304 71.1913 35.0004 71.4713 35.3644C71.7513 35.7244 71.9713 36.1804 72.1313 36.7324C72.2953 37.2844 72.3773 37.9364 72.3773 38.6884ZM71.2673 38.6884C71.2673 38.0324 71.2113 37.4824 71.0993 37.0384C70.9913 36.5904 70.8433 36.2304 70.6553 35.9584C70.4713 35.6864 70.2573 35.4924 70.0133 35.3764C69.7693 35.2564 69.5153 35.1964 69.2513 35.1964C68.9873 35.1964 68.7333 35.2564 68.4893 35.3764C68.2453 35.4924 68.0313 35.6864 67.8473 35.9584C67.6633 36.2304 67.5153 36.5904 67.4033 37.0384C67.2953 37.4824 67.2413 38.0324 67.2413 38.6884C67.2413 39.3444 67.2953 39.8944 67.4033 40.3384C67.5153 40.7824 67.6633 41.1404 67.8473 41.4124C68.0313 41.6844 68.2453 41.8804 68.4893 42.0004C68.7333 42.1164 68.9873 42.1744 69.2513 42.1744C69.5153 42.1744 69.7693 42.1164 70.0133 42.0004C70.2573 41.8804 70.4713 41.6844 70.6553 41.4124C70.8433 41.1404 70.9913 40.7824 71.0993 40.3384C71.2113 39.8944 71.2673 39.3444 71.2673 38.6884ZM80.3446 37.2064C80.4006 37.1184 80.4746 37.0464 80.5666 36.9904C80.6586 36.9344 80.7566 36.9064 80.8606 36.9064H81.6946L80.1166 39.2224C80.0206 39.3704 79.9206 39.4924 79.8166 39.5884C79.7126 39.6804 79.5846 39.7524 79.4326 39.8044C79.6246 39.8564 79.7866 39.9384 79.9186 40.0504C80.0506 40.1584 80.1686 40.2984 80.2726 40.4704L81.8686 42.9844H81.1246C80.9326 42.9844 80.7846 42.9524 80.6806 42.8884C80.5766 42.8244 80.4866 42.7324 80.4106 42.6124L79.2286 40.7224C79.0406 40.4104 78.7586 40.2544 78.3826 40.2544H77.7286V42.9904H76.6546V36.9064H77.7286V39.5344H78.3046C78.6246 39.5344 78.8746 39.3984 79.0546 39.1264L80.3446 37.2064ZM89.6395 36.8884V42.9844H88.6735V38.9464C88.6735 38.8344 88.6795 38.7104 88.6915 38.5744C88.7075 38.4344 88.7275 38.3044 88.7515 38.1844L86.6395 41.8864C86.6075 41.9464 86.5655 41.9944 86.5135 42.0304C86.4615 42.0664 86.4015 42.0844 86.3335 42.0844H86.2135C86.1455 42.0844 86.0835 42.0664 86.0275 42.0304C85.9755 41.9944 85.9335 41.9464 85.9015 41.8864L83.7535 38.1724C83.7735 38.2924 83.7915 38.4244 83.8075 38.5684C83.8235 38.7084 83.8315 38.8344 83.8315 38.9464V42.9844H82.8655V36.8884H83.7235C83.7995 36.8884 83.8735 36.9064 83.9455 36.9424C84.0175 36.9744 84.0795 37.0364 84.1315 37.1284L86.0275 40.2964C86.1195 40.4804 86.2015 40.6744 86.2735 40.8784C86.3415 40.6664 86.4215 40.4724 86.5135 40.2964L88.3735 37.1284C88.4255 37.0324 88.4875 36.9684 88.5595 36.9364C88.6315 36.9044 88.7055 36.8884 88.7815 36.8884H89.6395ZM91.2605 44.4364C91.2285 44.4084 91.2065 44.3824 91.1945 44.3584C91.1825 44.3344 91.1765 44.3044 91.1765 44.2684C91.1765 44.2404 91.1845 44.2124 91.2005 44.1844C91.2205 44.1564 91.2425 44.1304 91.2665 44.1064C91.3065 44.0624 91.3565 44.0044 91.4165 43.9324C91.4805 43.8604 91.5445 43.7744 91.6085 43.6744C91.6725 43.5784 91.7305 43.4704 91.7825 43.3504C91.8385 43.2344 91.8785 43.1104 91.9025 42.9784C91.8905 42.9824 91.8765 42.9844 91.8605 42.9844C91.8485 42.9844 91.8365 42.9844 91.8245 42.9844C91.6165 42.9844 91.4465 42.9164 91.3145 42.7804C91.1865 42.6404 91.1225 42.4624 91.1225 42.2464C91.1225 42.0584 91.1865 41.8984 91.3145 41.7664C91.4465 41.6344 91.6205 41.5684 91.8365 41.5684C91.9565 41.5684 92.0625 41.5904 92.1545 41.6344C92.2465 41.6784 92.3225 41.7404 92.3825 41.8204C92.4465 41.8964 92.4945 41.9864 92.5265 42.0904C92.5585 42.1904 92.5745 42.3004 92.5745 42.4204C92.5745 42.6004 92.5485 42.7884 92.4965 42.9844C92.4485 43.1764 92.3745 43.3664 92.2745 43.5544C92.1785 43.7464 92.0605 43.9324 91.9205 44.1124C91.7805 44.2924 91.6205 44.4584 91.4405 44.6104L91.2605 44.4364ZM97.0495 36.7144C97.1055 36.3224 97.2135 35.9764 97.3735 35.6764C97.5335 35.3724 97.7355 35.1184 97.9795 34.9144C98.2275 34.7104 98.5095 34.5564 98.8255 34.4524C99.1455 34.3444 99.4895 34.2904 99.8575 34.2904C100.222 34.2904 100.558 34.3424 100.866 34.4464C101.174 34.5504 101.438 34.6984 101.658 34.8904C101.882 35.0824 102.056 35.3144 102.18 35.5864C102.304 35.8584 102.366 36.1604 102.366 36.4924C102.366 36.7644 102.33 37.0084 102.258 37.2244C102.19 37.4364 102.09 37.6224 101.958 37.7824C101.83 37.9424 101.674 38.0784 101.49 38.1904C101.306 38.3024 101.1 38.3944 100.872 38.4664C101.432 38.6104 101.852 38.8584 102.132 39.2104C102.416 39.5584 102.558 39.9944 102.558 40.5184C102.558 40.9144 102.482 41.2704 102.33 41.5864C102.182 41.9024 101.978 42.1724 101.718 42.3964C101.458 42.6164 101.154 42.7864 100.806 42.9064C100.462 43.0224 100.092 43.0804 99.6955 43.0804C99.2395 43.0804 98.8495 43.0244 98.5255 42.9124C98.2015 42.7964 97.9275 42.6384 97.7035 42.4384C97.4795 42.2384 97.2955 42.0024 97.1515 41.7304C97.0075 41.4544 96.8855 41.1564 96.7855 40.8364L97.2475 40.6444C97.3675 40.5924 97.4835 40.5784 97.5955 40.6024C97.7115 40.6264 97.7955 40.6924 97.8475 40.8004C97.8995 40.9124 97.9635 41.0464 98.0395 41.2024C98.1195 41.3584 98.2275 41.5084 98.3635 41.6524C98.4995 41.7964 98.6715 41.9184 98.8795 42.0184C99.0915 42.1184 99.3595 42.1684 99.6835 42.1684C99.9835 42.1684 100.246 42.1204 100.47 42.0244C100.698 41.9244 100.886 41.7964 101.034 41.6404C101.186 41.4844 101.3 41.3104 101.376 41.1184C101.452 40.9264 101.49 40.7364 101.49 40.5484C101.49 40.3164 101.46 40.1044 101.4 39.9124C101.34 39.7204 101.228 39.5544 101.064 39.4144C100.9 39.2744 100.674 39.1644 100.386 39.0844C100.102 39.0044 99.7355 38.9644 99.2875 38.9644V38.1904C99.6555 38.1864 99.9675 38.1464 100.224 38.0704C100.484 37.9944 100.694 37.8904 100.854 37.7584C101.018 37.6264 101.136 37.4684 101.208 37.2844C101.284 37.1004 101.322 36.8964 101.322 36.6724C101.322 36.4244 101.282 36.2084 101.202 36.0244C101.126 35.8404 101.02 35.6884 100.884 35.5684C100.748 35.4484 100.586 35.3584 100.398 35.2984C100.214 35.2384 100.014 35.2084 99.7975 35.2084C99.5815 35.2084 99.3795 35.2404 99.1915 35.3044C99.0075 35.3684 98.8435 35.4584 98.6995 35.5744C98.5595 35.6864 98.4415 35.8204 98.3455 35.9764C98.2495 36.1324 98.1815 36.3044 98.1415 36.4924C98.0895 36.6324 98.0235 36.7264 97.9435 36.7744C97.8675 36.8184 97.7555 36.8304 97.6075 36.8104L97.0495 36.7144ZM111.629 36.9064V42.9844H110.561V40.4044C110.041 40.5404 109.551 40.6264 109.091 40.6624C108.635 40.6944 108.235 40.6584 107.891 40.5544C107.551 40.4504 107.281 40.2684 107.081 40.0084C106.885 39.7444 106.787 39.3804 106.787 38.9164V36.9064H107.861V38.7544C107.861 39.0464 107.919 39.2764 108.035 39.4444C108.155 39.6124 108.329 39.7284 108.557 39.7924C108.785 39.8564 109.067 39.8744 109.403 39.8464C109.739 39.8184 110.125 39.7524 110.561 39.6484V36.9064H111.629ZM116.617 40.2484C116.125 40.2644 115.705 40.3044 115.357 40.3684C115.013 40.4284 114.731 40.5084 114.511 40.6084C114.295 40.7084 114.137 40.8264 114.037 40.9624C113.941 41.0984 113.893 41.2504 113.893 41.4184C113.893 41.5784 113.919 41.7164 113.971 41.8324C114.023 41.9484 114.093 42.0444 114.181 42.1204C114.273 42.1924 114.379 42.2464 114.499 42.2824C114.623 42.3144 114.755 42.3304 114.895 42.3304C115.083 42.3304 115.255 42.3124 115.411 42.2764C115.567 42.2364 115.713 42.1804 115.849 42.1084C115.989 42.0364 116.121 41.9504 116.245 41.8504C116.373 41.7504 116.497 41.6364 116.617 41.5084V40.2484ZM113.167 37.7644C113.503 37.4404 113.865 37.1984 114.253 37.0384C114.641 36.8784 115.071 36.7984 115.543 36.7984C115.883 36.7984 116.185 36.8544 116.449 36.9664C116.713 37.0784 116.935 37.2344 117.115 37.4344C117.295 37.6344 117.431 37.8764 117.523 38.1604C117.615 38.4444 117.661 38.7564 117.661 39.0964V42.9844H117.187C117.083 42.9844 117.003 42.9684 116.947 42.9364C116.891 42.9004 116.847 42.8324 116.815 42.7324L116.695 42.1564C116.535 42.3044 116.379 42.4364 116.227 42.5524C116.075 42.6644 115.915 42.7604 115.747 42.8404C115.579 42.9164 115.399 42.9744 115.207 43.0144C115.019 43.0584 114.809 43.0804 114.577 43.0804C114.341 43.0804 114.119 43.0484 113.911 42.9844C113.703 42.9164 113.521 42.8164 113.365 42.6844C113.213 42.5524 113.091 42.3864 112.999 42.1864C112.911 41.9824 112.867 41.7424 112.867 41.4664C112.867 41.2264 112.933 40.9964 113.065 40.7764C113.197 40.5524 113.411 40.3544 113.707 40.1824C114.003 40.0104 114.389 39.8704 114.865 39.7624C115.341 39.6504 115.925 39.5864 116.617 39.5704V39.0964C116.617 38.6244 116.515 38.2684 116.311 38.0284C116.107 37.7844 115.809 37.6624 115.417 37.6624C115.153 37.6624 114.931 37.6964 114.751 37.7644C114.575 37.8284 114.421 37.9024 114.289 37.9864C114.161 38.0664 114.049 38.1404 113.953 38.2084C113.861 38.2724 113.769 38.3044 113.677 38.3044C113.605 38.3044 113.543 38.2864 113.491 38.2504C113.439 38.2104 113.395 38.1624 113.359 38.1064L113.167 37.7644ZM123.517 37.9864C123.485 38.0304 123.453 38.0644 123.421 38.0884C123.389 38.1124 123.345 38.1244 123.289 38.1244C123.229 38.1244 123.163 38.1004 123.091 38.0524C123.019 38.0004 122.929 37.9444 122.821 37.8844C122.717 37.8244 122.587 37.7704 122.431 37.7224C122.279 37.6704 122.091 37.6444 121.867 37.6444C121.567 37.6444 121.303 37.6984 121.075 37.8064C120.847 37.9104 120.655 38.0624 120.499 38.2624C120.347 38.4624 120.231 38.7044 120.151 38.9884C120.075 39.2724 120.037 39.5904 120.037 39.9424C120.037 40.3104 120.079 40.6384 120.163 40.9264C120.247 41.2104 120.365 41.4504 120.517 41.6464C120.673 41.8384 120.859 41.9864 121.075 42.0904C121.295 42.1904 121.541 42.2404 121.813 42.2404C122.073 42.2404 122.287 42.2104 122.455 42.1504C122.623 42.0864 122.761 42.0164 122.869 41.9404C122.981 41.8644 123.073 41.7964 123.145 41.7364C123.221 41.6724 123.295 41.6404 123.367 41.6404C123.455 41.6404 123.523 41.6744 123.571 41.7424L123.871 42.1324C123.739 42.2964 123.589 42.4364 123.421 42.5524C123.253 42.6684 123.071 42.7664 122.875 42.8464C122.683 42.9224 122.481 42.9784 122.269 43.0144C122.057 43.0504 121.841 43.0684 121.621 43.0684C121.241 43.0684 120.887 42.9984 120.559 42.8584C120.235 42.7184 119.953 42.5164 119.713 42.2524C119.473 41.9844 119.285 41.6564 119.149 41.2684C119.013 40.8804 118.945 40.4384 118.945 39.9424C118.945 39.4904 119.007 39.0724 119.131 38.6884C119.259 38.3044 119.443 37.9744 119.683 37.6984C119.927 37.4184 120.225 37.2004 120.577 37.0444C120.933 36.8884 121.341 36.8104 121.801 36.8104C122.229 36.8104 122.605 36.8804 122.929 37.0204C123.257 37.1564 123.547 37.3504 123.799 37.6024L123.517 37.9864ZM128.312 40.2484C127.82 40.2644 127.4 40.3044 127.052 40.3684C126.708 40.4284 126.426 40.5084 126.206 40.6084C125.99 40.7084 125.832 40.8264 125.732 40.9624C125.636 41.0984 125.588 41.2504 125.588 41.4184C125.588 41.5784 125.614 41.7164 125.666 41.8324C125.718 41.9484 125.788 42.0444 125.876 42.1204C125.968 42.1924 126.074 42.2464 126.194 42.2824C126.318 42.3144 126.45 42.3304 126.59 42.3304C126.778 42.3304 126.95 42.3124 127.106 42.2764C127.262 42.2364 127.408 42.1804 127.544 42.1084C127.684 42.0364 127.816 41.9504 127.94 41.8504C128.068 41.7504 128.192 41.6364 128.312 41.5084V40.2484ZM124.862 37.7644C125.198 37.4404 125.56 37.1984 125.948 37.0384C126.336 36.8784 126.766 36.7984 127.238 36.7984C127.578 36.7984 127.88 36.8544 128.144 36.9664C128.408 37.0784 128.63 37.2344 128.81 37.4344C128.99 37.6344 129.126 37.8764 129.218 38.1604C129.31 38.4444 129.356 38.7564 129.356 39.0964V42.9844H128.882C128.778 42.9844 128.698 42.9684 128.642 42.9364C128.586 42.9004 128.542 42.8324 128.51 42.7324L128.39 42.1564C128.23 42.3044 128.074 42.4364 127.922 42.5524C127.77 42.6644 127.61 42.7604 127.442 42.8404C127.274 42.9164 127.094 42.9744 126.902 43.0144C126.714 43.0584 126.504 43.0804 126.272 43.0804C126.036 43.0804 125.814 43.0484 125.606 42.9844C125.398 42.9164 125.216 42.8164 125.06 42.6844C124.908 42.5524 124.786 42.3864 124.694 42.1864C124.606 41.9824 124.562 41.7424 124.562 41.4664C124.562 41.2264 124.628 40.9964 124.76 40.7764C124.892 40.5524 125.106 40.3544 125.402 40.1824C125.698 40.0104 126.084 39.8704 126.56 39.7624C127.036 39.6504 127.62 39.5864 128.312 39.5704V39.0964C128.312 38.6244 128.21 38.2684 128.006 38.0284C127.802 37.7844 127.504 37.6624 127.112 37.6624C126.848 37.6624 126.626 37.6964 126.446 37.7644C126.27 37.8284 126.116 37.9024 125.984 37.9864C125.856 38.0664 125.744 38.1404 125.648 38.2084C125.556 38.2724 125.464 38.3044 125.372 38.3044C125.3 38.3044 125.238 38.2864 125.186 38.2504C125.134 38.2104 125.09 38.1624 125.054 38.1064L124.862 37.7644Z" fill="#110833"/>
<defs>
<filter id="filter0_d_2237_14048" x="0" y="0" width="163" height="97.4609" filterUnits="userSpaceOnUse" color-interpolation-filters="sRGB">
<feFlood flood-opacity="0" result="BackgroundImageFix"/>
<feColorMatrix in="SourceAlpha" type="matrix" values="0 0 0 0 0 0 0 0 0 0 0 0 0 0 0 0 0 0 127 0" result="hardAlpha"/>
<feOffset dy="4"/>
<feGaussianBlur stdDeviation="5"/>
<feComposite in2="hardAlpha" operator="out"/>
<feColorMatrix type="matrix" values="0 0 0 0 0.545098 0 0 0 0 0.368627 0 0 0 0 0.882353 0 0 0 0.2 0"/>
<feBlend mode="normal" in2="BackgroundImageFix" result="effect1_dropShadow_2237_14048"/>
<feBlend mode="normal" in="SourceGraphic" in2="effect1_dropShadow_2237_14048" result="shape"/>
</filter>
</defs>
</svg>
