<svg width="280" height="239" viewBox="0 0 280 239" fill="none" xmlns="http://www.w3.org/2000/svg">
<path d="M191.495 65.9945C191.505 65.9945 191.514 65.996 191.524 65.996L191.642 64.2627C191.865 64.4207 192.136 64.5058 192.415 64.5054C192.744 64.5051 193.06 64.3859 193.301 64.1719C193.541 63.9579 193.686 63.6652 193.707 63.353C194.397 53.328 192.012 50.9367 191.527 50.5591C191.306 50.3871 191.031 50.2897 190.745 50.2822C190.701 50.2777 190.657 50.2754 190.612 50.2754H184.348C184.304 50.2754 184.259 50.2776 184.216 50.2822C183.93 50.2896 183.655 50.387 183.434 50.5591C182.949 50.9367 180.564 53.3276 181.253 63.3534C181.264 63.5149 181.309 63.6728 181.384 63.818C181.459 63.9632 181.564 64.0929 181.692 64.1996C181.82 64.3063 181.969 64.388 182.13 64.4401C182.291 64.4921 182.462 64.5134 182.632 64.5028C182.88 64.4874 183.119 64.404 183.318 64.2627L183.758 70.7128C185.111 67.9323 188.066 65.9945 191.495 65.9945Z" fill="#E4D8FA"/>
<path d="M190.914 47.2383C191.686 45.4695 190.803 43.4411 188.941 42.7077C187.08 41.9743 184.946 42.8137 184.175 44.5825C183.403 46.3513 184.286 48.3797 186.147 49.1131C188.008 49.8464 190.142 49.0071 190.914 47.2383Z" fill="#E4D8FA"/>
<path d="M214.908 83.6335L215.657 72.6555C215.911 72.8355 216.22 72.9325 216.537 72.9321C216.912 72.9318 217.273 72.796 217.546 72.5522C217.82 72.3084 217.986 71.9749 218.01 71.6192C218.796 60.1979 216.078 57.4741 215.525 57.0438C215.273 56.8479 214.96 56.7368 214.635 56.7282C214.585 56.7232 214.534 56.7207 214.483 56.7207H207.347C207.296 56.7207 207.246 56.7233 207.196 56.7282C206.871 56.7368 206.558 56.8478 206.306 57.0438C205.753 57.4741 203.036 60.1979 203.821 71.6192C203.847 71.9909 204.026 72.3376 204.321 72.5833C204.616 72.8289 205.001 72.9533 205.392 72.9291C205.675 72.9116 205.947 72.8166 206.174 72.6555L206.75 81.1009C207.118 81.0637 207.49 81.0438 207.867 81.0438C210.576 81.0438 213.046 82.0252 214.908 83.6335Z" fill="#E4D8FA"/>
<path d="M210.914 55.722C213.209 55.722 215.07 53.9536 215.07 51.7722C215.07 49.5907 213.209 47.8223 210.914 47.8223C208.619 47.8223 206.758 49.5907 206.758 51.7722C206.758 53.9536 208.619 55.722 210.914 55.722Z" fill="#E4D8FA"/>
<path d="M123.961 58.5623C123.975 58.7585 124.044 58.9475 124.161 59.1096C124.278 59.2716 124.439 59.4008 124.627 59.4834C124.814 59.5661 125.022 59.5992 125.228 59.5794C125.434 59.5595 125.63 59.4874 125.796 59.3706L126.581 70.8742C126.596 71.096 126.657 71.3128 126.76 71.5122C126.863 71.7116 127.007 71.8897 127.183 72.0364C127.358 72.183 127.563 72.2953 127.784 72.3669C128.006 72.4385 128.24 72.4679 128.473 72.4534C128.848 72.4306 129.206 72.295 129.494 72.0664C129.783 72.295 130.14 72.4306 130.515 72.4534C130.986 72.4825 131.45 72.3324 131.805 72.0362C132.16 71.7401 132.376 71.3221 132.407 70.8742L133.191 59.3706C133.39 59.5111 133.631 59.5867 133.878 59.5862C134.171 59.5859 134.452 59.4799 134.665 59.2898C134.878 59.0997 135.008 58.8396 135.027 58.5623C135.639 49.6552 133.52 47.531 133.089 47.1959C132.893 47.0428 132.648 46.9561 132.394 46.9494C132.355 46.9454 132.316 46.9434 132.277 46.9434H126.712C126.672 46.9434 126.633 46.9456 126.594 46.9494C126.34 46.956 126.096 47.0426 125.899 47.1955C125.469 47.531 123.349 49.6552 123.962 58.5619L123.961 58.5623Z" fill="#E4D8FA"/>
<path d="M129.499 46.1628C131.289 46.1628 132.74 44.7836 132.74 43.0824C132.74 41.3811 131.289 40.002 129.499 40.002C127.709 40.002 126.258 41.3811 126.258 43.0824C126.258 44.7836 127.709 46.1628 129.499 46.1628Z" fill="#E4D8FA"/>
<path d="M59.7195 58.5618C59.7332 58.758 59.8022 58.9471 59.9192 59.1092C60.0363 59.2713 60.1972 59.4005 60.3849 59.4832C60.5726 59.5659 60.7803 59.599 60.9861 59.5791C61.192 59.5592 61.3884 59.4869 61.5547 59.37L62.3391 70.8736C62.3697 71.3215 62.5862 71.7395 62.9411 72.0357C63.2959 72.3319 63.76 72.4819 64.2313 72.4529C64.6063 72.4301 64.9639 72.2946 65.2525 72.0659C65.541 72.2945 65.8985 72.43 66.2733 72.4529C66.7446 72.4819 67.2087 72.3319 67.5635 72.0357C67.9184 71.7395 68.1349 71.3215 68.1655 70.8736L68.9499 59.37C69.1482 59.5104 69.3889 59.5861 69.6362 59.5857C69.9287 59.5854 70.2101 59.4795 70.4234 59.2894C70.6367 59.0992 70.7661 58.8391 70.7851 58.5618C71.3975 49.6546 69.2784 47.5305 68.8471 47.1953C68.6508 47.0424 68.4066 46.9557 68.1528 46.9488C68.1137 46.9449 68.0744 46.9429 68.035 46.9428H62.4696C62.43 46.9428 62.3905 46.9451 62.3518 46.9488C62.0981 46.9556 61.8539 47.0421 61.6575 47.1949C61.2266 47.5305 59.1075 49.655 59.7195 58.5618ZM65.2525 46.1628C66.1121 46.1628 66.9365 45.8382 67.5443 45.2605C68.1522 44.6828 68.4936 43.8993 68.4936 43.0824C68.4936 42.2654 68.1522 41.4819 67.5443 40.9042C66.9365 40.3265 66.1121 40.002 65.2525 40.002C64.3929 40.002 63.5685 40.3265 62.9607 40.9042C62.3528 41.4819 62.0114 42.2654 62.0114 43.0824C62.0114 43.8993 62.3528 44.6828 62.9607 45.2605C63.5685 45.8382 64.3929 46.1628 65.2525 46.1628ZM109.075 67.136L109.271 64.263C109.495 64.421 109.766 64.5062 110.044 64.5058C110.373 64.5055 110.69 64.3862 110.93 64.1722C111.17 63.9582 111.315 63.6655 111.337 63.3533C112.026 53.3283 109.641 50.937 109.156 50.5594C108.935 50.3873 108.66 50.2899 108.374 50.2825C108.33 50.278 108.286 50.2758 108.242 50.2757H101.978C101.932 50.2757 101.889 50.278 101.845 50.2825C101.559 50.2899 101.284 50.3873 101.063 50.5594C100.578 50.937 98.1928 53.3279 98.8823 63.3533C98.8976 63.5742 98.9752 63.787 99.1069 63.9696C99.2387 64.1521 99.4197 64.2975 99.631 64.3905C99.8423 64.4836 100.076 64.5209 100.308 64.4984C100.539 64.476 100.76 64.3947 100.948 64.263L101.83 77.211C101.865 77.7152 102.109 78.1857 102.508 78.519C102.907 78.8524 103.43 79.0213 103.96 78.9887C104.382 78.963 104.785 78.8103 105.11 78.5528C105.434 78.8102 105.837 78.9629 106.258 78.9887C106.382 78.9962 106.504 78.9894 106.622 78.9763C105.539 77.6176 104.889 75.9312 104.889 74.0991C104.889 71.1381 106.574 68.55 109.076 67.136H109.075ZM108.757 45.9305C108.757 45.011 108.373 44.1291 107.689 43.4788C107.005 42.8286 106.077 42.4633 105.109 42.4633C104.142 42.4633 103.214 42.8286 102.53 43.4788C101.846 44.1291 101.461 45.011 101.461 45.9305C101.461 46.8501 101.846 47.732 102.53 48.3823C103.214 49.0325 104.142 49.3978 105.109 49.3978C106.077 49.3978 107.005 49.0325 107.689 48.3823C108.373 47.732 108.757 46.8501 108.757 45.9305ZM257.917 70.2198C258.433 69.8166 259.074 69.5844 259.741 69.5585C259.832 69.5502 259.923 69.5461 260.016 69.5461H260.815C260.817 69.4743 260.818 69.4063 260.821 69.3349C259.158 68.202 258.07 66.3548 258.07 64.2668C258.07 62.6003 258.765 61.0879 259.889 59.9678C259.252 57.9906 258.487 57.2504 258.221 57.0437C257.97 56.8477 257.656 56.7367 257.331 56.7281C257.281 56.7231 257.231 56.7206 257.18 56.7206H250.044C249.993 56.7206 249.942 56.7232 249.893 56.7281C249.567 56.7366 249.254 56.8476 249.002 57.0437C248.449 57.474 245.732 60.1978 246.517 71.6191C246.543 71.9907 246.723 72.3375 247.017 72.5832C247.312 72.8288 247.697 72.9532 248.088 72.929C248.371 72.9115 248.643 72.8165 248.871 72.6554L249.876 87.4063C249.896 87.6907 249.974 87.9687 250.106 88.2244C250.239 88.4801 250.423 88.7085 250.648 88.8966C250.874 89.0846 251.136 89.2287 251.42 89.3205C251.704 89.4123 252.004 89.45 252.303 89.4316C252.784 89.4019 253.242 89.2278 253.612 88.9344C253.794 89.0783 254 89.1956 254.224 89.2809C253.365 74.9543 256.821 71.0728 257.917 70.2198H257.917Z" fill="#E4D8FA"/>
<path d="M253.609 55.722C255.904 55.722 257.765 53.9536 257.765 51.7722C257.765 49.5907 255.904 47.8223 253.609 47.8223C251.314 47.8223 249.453 49.5907 249.453 51.7722C249.453 53.9536 251.314 55.722 253.609 55.722Z" fill="#E4D8FA"/>
<path d="M91.5256 94.0861L91.5292 94.0335C91.4971 94.0511 91.4659 94.0692 91.4335 94.0861H91.5256ZM80.256 79.8493C81.9615 78.249 84.3024 77.2592 86.8825 77.2592C89.4946 77.2592 91.862 78.2734 93.5728 79.9083C93.9896 79.8953 94.3866 79.7356 94.6864 79.46C94.9863 79.1845 95.1677 78.8128 95.1953 78.4173C96.0904 65.4009 92.9932 62.2965 92.3634 61.8061C92.0763 61.5827 91.7193 61.4562 91.3485 61.4465C91.2912 61.4406 91.2337 61.4376 91.1761 61.4375H83.0432C82.9851 61.4375 82.9278 61.4409 82.8712 61.4465C82.5004 61.4562 82.1434 61.5827 81.8564 61.8061C81.2262 62.2965 78.1293 65.4009 79.0244 78.4173C79.0723 79.1147 79.5858 79.6723 80.256 79.8489V79.8493Z" fill="#E4D8FA"/>
<path d="M88.1887 60.1511C90.734 59.5775 92.308 57.1515 91.7045 54.7325C91.1009 52.3134 88.5483 50.8174 86.0031 51.3911C83.4579 51.9647 81.8838 54.3907 82.4873 56.8097C83.0909 59.2287 85.6435 60.7247 88.1887 60.1511Z" fill="#E4D8FA"/>
<path d="M45.5577 101.124C46.1661 100.649 46.8905 100.328 47.6641 100.189L47.8974 96.7723C46.6285 95.0891 45.9468 93.0702 45.9483 90.9996C45.9483 87.2259 48.1682 83.9362 51.4319 82.2476C51.0116 73.8646 48.6695 71.5335 48.1002 71.0905C47.7742 70.8368 47.3689 70.6931 46.9478 70.682C46.8828 70.6754 46.8174 70.672 46.752 70.6719H37.5165C37.4501 70.6719 37.3853 70.6756 37.3208 70.682C36.8997 70.6931 36.4943 70.8368 36.1684 71.0905C35.4528 71.6469 31.9361 75.1726 32.9525 89.9539C32.9689 90.1921 33.0344 90.4249 33.1454 90.639C33.2564 90.8531 33.4107 91.0443 33.5995 91.2018C33.7883 91.3592 34.0079 91.4798 34.2457 91.5565C34.4835 91.6333 34.7348 91.6648 34.9855 91.6493C35.3517 91.6266 35.7032 91.5037 35.9976 91.2953L37.2995 110.386C37.4023 111.886 38.7259 113.03 40.2892 113.009C41.7223 104.902 44.4206 102.008 45.5577 101.124Z" fill="#E4D8FA"/>
<path d="M42.1327 69.3785C45.1034 69.3785 47.5115 67.0897 47.5115 64.2664C47.5115 61.4431 45.1034 59.1543 42.1327 59.1543C39.1621 59.1543 36.7539 61.4431 36.7539 64.2664C36.7539 67.0897 39.1621 69.3785 42.1327 69.3785Z" fill="#E4D8FA"/>
<path d="M270.604 71.0905C270.278 70.8368 269.873 70.6931 269.452 70.682C269.387 70.6754 269.321 70.672 269.256 70.6719H260.02C259.954 70.6719 259.889 70.6756 259.825 70.682C259.404 70.6931 258.998 70.8368 258.672 71.0905C257.957 71.6469 254.44 75.1726 255.456 89.9539C255.473 90.1921 255.538 90.4249 255.649 90.639C255.76 90.8531 255.915 91.0443 256.103 91.2018C256.292 91.3592 256.512 91.4797 256.75 91.5565C256.987 91.6333 257.239 91.6648 257.489 91.6493C257.856 91.6266 258.207 91.5037 258.501 91.2953L259.803 110.386C259.828 110.754 259.93 111.114 260.101 111.445C260.272 111.776 260.511 112.072 260.802 112.315C261.094 112.558 261.433 112.745 261.801 112.864C262.168 112.982 262.557 113.031 262.944 113.007C263.566 112.969 264.16 112.744 264.638 112.364C265.117 112.744 265.71 112.969 266.332 113.007C266.72 113.031 267.108 112.982 267.475 112.863C267.843 112.745 268.182 112.558 268.474 112.315C268.765 112.071 269.004 111.776 269.175 111.445C269.346 111.114 269.448 110.754 269.473 110.386L270.775 91.2953C271.104 91.5282 271.503 91.6537 271.914 91.653C272.399 91.6526 272.866 91.4768 273.22 91.1613C273.574 90.8458 273.788 90.4141 273.82 89.9539C274.836 75.1726 271.32 71.6473 270.604 71.0905Z" fill="#E4D8FA"/>
<path d="M264.633 69.3785C267.603 69.3785 270.012 67.0897 270.012 64.2664C270.012 61.4431 267.603 59.1543 264.633 59.1543C261.662 59.1543 259.254 61.4431 259.254 64.2664C259.254 67.0897 261.662 69.3785 264.633 69.3785Z" fill="#E4D8FA"/>
<path d="M21.3307 71.0905C21.0047 70.8368 20.5994 70.6931 20.1782 70.682C20.1132 70.6754 20.0479 70.672 19.9825 70.6719H10.747C10.6806 70.6719 10.6153 70.6756 10.5513 70.682C10.1302 70.6931 9.72481 70.8368 9.39883 71.0905C8.68324 71.6469 5.16655 75.1726 6.18301 89.9539C6.19935 90.1921 6.26489 90.4249 6.37591 90.639C6.48692 90.8531 6.64121 91.0443 6.82999 91.2018C7.01877 91.3592 7.23833 91.4798 7.47613 91.5565C7.71393 91.6333 7.96531 91.6648 8.21593 91.6493C8.58217 91.6266 8.93368 91.5037 9.22804 91.2953L10.5299 110.386C10.555 110.754 10.6562 111.114 10.8276 111.445C10.999 111.776 11.2373 112.071 11.5289 112.315C11.8205 112.558 12.1597 112.745 12.5271 112.863C12.8945 112.982 13.283 113.031 13.6703 113.007C14.2926 112.969 14.886 112.744 15.3648 112.364C15.8434 112.744 16.4367 112.969 17.0589 113.007C17.4461 113.031 17.8346 112.982 18.202 112.863C18.5694 112.745 18.9086 112.558 19.2002 112.315C19.4918 112.071 19.7301 111.776 19.9015 111.445C20.0729 111.114 20.1741 110.754 20.1992 110.386L21.5007 91.2953C21.8299 91.5283 22.2296 91.6538 22.6401 91.653C23.1254 91.6526 23.5924 91.4768 23.9464 91.1613C24.3004 90.8458 24.5149 90.4141 24.5465 89.9539C25.5626 75.1726 22.0459 71.6473 21.3307 71.0905Z" fill="#E4D8FA"/>
<path d="M15.3632 69.3785C18.3338 69.3785 20.742 67.0897 20.742 64.2664C20.742 61.4431 18.3338 59.1543 15.3632 59.1543C12.3926 59.1543 9.98438 61.4431 9.98438 64.2664C9.98438 67.0897 12.3926 69.3785 15.3632 69.3785Z" fill="#E4D8FA"/>
<path d="M191.104 133.583C189.416 109.035 195.189 102.533 196.999 101.125C197.791 100.506 198.775 100.15 199.8 100.112C199.941 100.099 200.084 100.093 200.23 100.093H203.589V100.086C199.939 98.5272 197.39 95.0425 197.39 91.0002C197.39 88.3391 198.496 85.9204 200.292 84.1326C199.817 83.4427 199.417 83.0756 199.206 82.9114C198.785 82.5839 198.262 82.3985 197.718 82.3842C197.634 82.3756 197.55 82.3713 197.465 82.3711H185.539C185.454 82.3711 185.37 82.376 185.287 82.3842C184.743 82.3984 184.22 82.5838 183.799 82.9114C183.114 83.4442 180.443 86.0906 179.641 95.1962C181.435 96.7443 186.163 102.891 184.721 123.855C184.708 124.055 184.674 124.25 184.631 124.442L185.26 133.654C185.396 135.654 187.212 137.169 189.315 137.039C190.118 136.99 190.884 136.699 191.503 136.209C191.963 136.573 192.507 136.829 193.091 136.956C191.968 136.194 191.2 134.98 191.104 133.583Z" fill="#E4D8FA"/>
<path d="M191.496 80.7024C195.332 80.7024 198.442 77.7469 198.442 74.1012C198.442 70.4555 195.332 67.5 191.496 67.5C187.66 67.5 184.551 70.4555 184.551 74.1012C184.551 77.7469 187.66 80.7024 191.496 80.7024Z" fill="#E4D8FA"/>
<path d="M99.9819 107.37C99.9779 107.318 99.976 107.27 99.9724 107.219C98.814 99.2192 96.2956 96.7438 95.5982 96.2016C95.1221 95.831 94.53 95.6211 93.9148 95.6049C93.8198 95.5951 93.7244 95.5901 93.6289 95.5898H80.137C80.0405 95.5898 79.9453 95.5955 79.8516 95.6049C79.2362 95.621 78.644 95.8309 78.1677 96.2016C77.2189 96.9399 72.8945 101.257 73.2206 118.218C73.3634 119.93 73.4547 121.807 73.4828 123.862C73.5578 124.544 73.9076 125.172 74.4589 125.614C75.0102 126.056 75.7202 126.279 76.44 126.234C76.9751 126.201 77.4886 126.022 77.9187 125.717L79.8203 153.605C79.9745 155.867 82.0292 157.581 84.408 157.435C85.317 157.379 86.1837 157.05 86.883 156.495C87.5822 157.05 88.449 157.379 89.3579 157.435C91.7364 157.581 93.791 155.868 93.9452 153.605L95.8469 125.717C96.3277 126.058 96.9116 126.241 97.5113 126.24C98.971 126.24 100.2 125.162 100.296 123.758C100.76 117.003 100.577 111.857 100.073 107.949C100.027 107.759 99.9967 107.565 99.9819 107.37Z" fill="#E4D8FA"/>
<path d="M86.8846 93.699C91.2241 93.699 94.742 90.3556 94.742 86.2313C94.742 82.1071 91.2241 78.7637 86.8846 78.7637C82.5452 78.7637 79.0273 82.1071 79.0273 86.2313C79.0273 90.3556 82.5452 93.699 86.8846 93.699Z" fill="#E4D8FA"/>
<path d="M66.2923 102.288C65.7531 101.868 65.0825 101.631 64.3859 101.612C64.2785 101.601 64.1705 101.596 64.0625 101.596H48.7879C48.6788 101.596 48.5708 101.602 48.4649 101.612C47.7682 101.631 47.0977 101.868 46.5585 102.288C45.3756 103.208 39.5591 109.039 41.2401 133.485C41.2948 134.28 41.6797 135.023 42.3102 135.549C42.9407 136.074 43.7652 136.341 44.6023 136.289C45.2083 136.251 45.7899 136.048 46.277 135.703L48.4297 167.276C48.604 169.837 50.9299 171.777 53.6235 171.612C54.6525 171.548 55.6338 171.176 56.4254 170.548C57.217 171.176 58.1983 171.548 59.2273 171.611C61.92 171.777 64.2463 169.837 64.4207 167.276L66.5734 135.703C67.1178 136.089 67.7788 136.296 68.4576 136.295C69.2603 136.294 70.0326 136.004 70.6181 135.482C71.2035 134.96 71.5583 134.246 71.6106 133.485C73.2917 109.039 67.4752 103.208 66.2923 102.288Z" fill="#E4D8FA"/>
<path d="M56.4229 99.4557C61.3357 99.4557 65.3184 95.6705 65.3184 91.0013C65.3184 86.332 61.3357 82.5469 56.4229 82.5469C51.51 82.5469 47.5273 86.332 47.5273 91.0013C47.5273 95.6705 51.51 99.4557 56.4229 99.4557Z" fill="#E4D8FA"/>
<path d="M164.232 61.0806C164.678 60.7324 165.231 60.5322 165.808 60.5102C165.828 60.5083 165.848 60.5087 165.868 60.5072L165.936 59.507C164.979 58.5338 164.388 57.2314 164.388 55.7972C164.388 53.6866 165.662 51.8567 167.515 50.9549C166.999 48.2765 166.106 47.4003 165.843 47.1955C165.647 47.0427 165.402 46.9561 165.149 46.9494C165.11 46.9454 165.07 46.9434 165.031 46.9434H159.466C159.426 46.9434 159.386 46.9456 159.348 46.9494C159.094 46.956 158.85 47.0426 158.653 47.1955C158.222 47.531 156.103 49.6552 156.716 58.5619C156.73 58.7581 156.799 58.9471 156.916 59.1091C157.033 59.2712 157.193 59.4003 157.381 59.483C157.568 59.5657 157.776 59.5989 157.982 59.5791C158.188 59.5593 158.384 59.4873 158.55 59.3706L159.335 70.8742C159.362 71.2688 159.534 71.6418 159.821 71.9284C160.108 72.215 160.491 72.3969 160.905 72.4425C161.164 64.2083 163.426 61.7081 164.232 61.0806Z" fill="#E4D8FA"/>
<path d="M162.249 46.1628C164.039 46.1628 165.49 44.7836 165.49 43.0824C165.49 41.3811 164.039 40.002 162.249 40.002C160.459 40.002 159.008 41.3811 159.008 43.0824C159.008 44.7836 160.459 46.1628 162.249 46.1628Z" fill="#E4D8FA"/>
<path d="M163.136 79.8151C164.838 78.2351 167.163 77.2588 169.725 77.2588C172.338 77.2588 174.707 78.2738 176.417 79.9101C176.861 79.9346 177.297 79.7913 177.63 79.5116C177.963 79.2319 178.166 78.8384 178.195 78.4169C179.09 65.4005 175.993 62.2961 175.363 61.8061C175.076 61.5826 174.719 61.456 174.348 61.4461C174.291 61.4404 174.234 61.4375 174.176 61.4375H166.043C165.985 61.4375 165.928 61.4405 165.871 61.4461C165.5 61.456 165.143 61.5826 164.856 61.8061C164.227 62.2961 161.129 65.4005 162.024 78.4169C162.046 78.7275 162.163 79.0253 162.36 79.2736C162.558 79.5219 162.827 79.7104 163.136 79.8151ZM174.526 94.0857L174.535 93.944C174.45 93.9921 174.363 94.0399 174.276 94.0857H174.526Z" fill="#E4D8FA"/>
<path d="M170.858 60.2678C173.439 59.8682 175.192 57.555 174.771 55.1013C174.351 52.6475 171.917 50.9823 169.335 51.3819C166.753 51.7815 165.001 54.0946 165.421 56.5484C165.842 59.0022 168.276 60.6674 170.858 60.2678Z" fill="#E4D8FA"/>
<path d="M145.565 110.504C145.565 111.289 145.475 112.071 145.299 112.837C145.556 112.928 145.829 112.99 146.117 113.007C146.504 113.031 146.893 112.982 147.26 112.864C147.628 112.745 147.967 112.558 148.259 112.315C148.55 112.072 148.789 111.776 148.96 111.445C149.132 111.114 149.233 110.754 149.258 110.386L150.559 91.2953C150.888 91.5285 151.288 91.6541 151.699 91.6534C152.184 91.6529 152.651 91.4771 153.005 91.1615C153.359 90.8459 153.574 90.4142 153.605 89.9539C154.621 75.1726 151.104 71.6473 150.389 71.0905C150.063 70.8368 149.658 70.6931 149.237 70.682C149.172 70.6754 149.106 70.672 149.041 70.6719H139.806C139.739 70.6719 139.674 70.6756 139.61 70.682C139.189 70.6931 138.783 70.8368 138.457 71.0905C137.742 71.6469 134.225 75.1726 135.242 89.9539C135.258 90.1921 135.323 90.4249 135.435 90.639C135.546 90.8531 135.7 91.0443 135.889 91.2018C136.077 91.3592 136.297 91.4797 136.535 91.5565C136.773 91.6333 137.024 91.6648 137.275 91.6493C137.641 91.6266 137.992 91.5037 138.287 91.2953L138.921 100.6C142.842 102.344 145.565 106.126 145.565 110.504Z" fill="#E4D8FA"/>
<path d="M144.422 69.3785C147.392 69.3785 149.801 67.0897 149.801 64.2664C149.801 61.4431 147.392 59.1543 144.422 59.1543C141.451 59.1543 139.043 61.4431 139.043 64.2664C139.043 67.0897 141.451 69.3785 144.422 69.3785Z" fill="#E4D8FA"/>
<path d="M238.697 77.0167C238.319 76.7224 237.849 76.5558 237.36 76.5429C237.285 76.5352 237.209 76.5313 237.133 76.5312H226.417C226.341 76.5312 226.265 76.5354 226.191 76.5425C225.702 76.5555 225.232 76.7223 224.853 77.0167C224.024 77.6626 219.943 81.7527 221.122 98.9027C221.161 99.4607 221.431 99.9815 221.873 100.35C222.316 100.719 222.894 100.906 223.481 100.869C223.906 100.843 224.314 100.7 224.656 100.459L226.166 122.608C226.195 123.035 226.312 123.453 226.511 123.837C226.71 124.221 226.987 124.563 227.325 124.846C227.663 125.128 228.057 125.345 228.483 125.482C228.91 125.62 229.36 125.677 229.81 125.649C230.532 125.605 231.22 125.344 231.775 124.903C232.331 125.344 233.019 125.605 233.741 125.649C234.19 125.677 234.641 125.62 235.067 125.482C235.493 125.345 235.887 125.128 236.225 124.846C236.564 124.563 236.84 124.221 237.039 123.837C237.238 123.453 237.355 123.035 237.384 122.608L238.895 100.459C239.276 100.729 239.74 100.875 240.216 100.874C241.376 100.874 242.352 100.018 242.428 98.9027C243.608 81.7527 239.527 77.6626 238.697 77.0167Z" fill="#E4D8FA"/>
<path d="M231.779 75.0277C235.226 75.0277 238.02 72.3724 238.02 69.0969C238.02 65.8213 235.226 63.166 231.779 63.166C228.333 63.166 225.539 65.8213 225.539 69.0969C225.539 72.3724 228.333 75.0277 231.779 75.0277Z" fill="#E4D8FA"/>
<path d="M121.337 109.002C121.708 109.264 122.149 109.421 122.61 109.455C122.849 107.085 123.888 104.935 125.466 103.249C125.922 87.535 121.972 83.5769 121.117 82.9114C120.696 82.5839 120.173 82.3985 119.629 82.3842C119.545 82.3756 119.46 82.3713 119.376 82.3711H107.45C107.364 82.3711 107.28 82.376 107.198 82.3842C106.654 82.3984 106.13 82.5838 105.709 82.9114C104.786 83.6302 100.244 88.1828 101.557 107.27C101.578 107.578 101.662 107.878 101.806 108.155C101.949 108.431 102.148 108.678 102.392 108.882C102.636 109.085 102.919 109.24 103.226 109.34C103.534 109.439 103.858 109.479 104.182 109.459C104.655 109.43 105.109 109.271 105.489 109.002L107.17 133.654C107.306 135.653 109.122 137.169 111.225 137.039C112.029 136.99 112.795 136.699 113.413 136.209C114.13 136.778 115.043 137.075 115.977 137.044C116.949 129.742 118.821 125.719 120.344 123.565L121.337 109.002Z" fill="#E4D8FA"/>
<path d="M113.418 80.7024C117.254 80.7024 120.364 77.7469 120.364 74.1012C120.364 70.4555 117.254 67.5 113.418 67.5C109.582 67.5 106.473 70.4555 106.473 74.1012C106.473 77.7469 109.582 80.7024 113.418 80.7024Z" fill="#E4D8FA"/>
<path d="M178.446 96.2016C177.97 95.831 177.378 95.6211 176.763 95.6049C176.668 95.5951 176.572 95.5901 176.477 95.5898H162.985C162.89 95.5901 162.794 95.5951 162.7 95.6049C162.084 95.621 161.492 95.8309 161.016 96.2016C159.971 97.0147 154.833 102.165 156.318 123.758C156.366 124.461 156.706 125.116 157.263 125.581C157.82 126.045 158.548 126.28 159.288 126.234C159.823 126.201 160.337 126.022 160.767 125.717L162.668 153.605C162.823 155.867 164.877 157.581 167.256 157.435C168.165 157.379 169.032 157.05 169.731 156.495C170.43 157.05 171.297 157.379 172.206 157.435C174.584 157.581 176.639 155.868 176.793 153.605L178.695 125.717C179.176 126.058 179.76 126.241 180.359 126.24C181.819 126.24 183.048 125.162 183.144 123.758C184.629 102.165 179.491 97.0147 178.446 96.2016Z" fill="#E4D8FA"/>
<path d="M169.724 93.699C174.064 93.699 177.582 90.3556 177.582 86.2313C177.582 82.1071 174.064 78.7637 169.724 78.7637C165.385 78.7637 161.867 82.1071 161.867 86.2313C161.867 90.3556 165.385 93.699 169.724 93.699Z" fill="#E4D8FA"/>
<path d="M217.734 102.288C217.195 101.868 216.524 101.631 215.827 101.612C215.72 101.601 215.612 101.596 215.503 101.596H200.229C200.12 101.596 200.012 101.602 199.906 101.612C199.209 101.631 198.539 101.868 198 102.288C196.817 103.208 191 109.039 192.682 133.485C192.736 134.28 193.121 135.023 193.752 135.549C194.382 136.074 195.207 136.341 196.044 136.289C196.65 136.251 197.231 136.048 197.718 135.703L199.871 167.276C200.045 169.837 202.371 171.777 205.065 171.612C206.094 171.548 207.075 171.176 207.866 170.548C208.658 171.176 209.639 171.548 210.668 171.611C213.361 171.777 215.687 169.837 215.862 167.276L218.015 135.703C218.559 136.089 219.22 136.296 219.899 136.295C220.702 136.294 221.474 136.003 222.059 135.482C222.645 134.96 222.999 134.246 223.052 133.485C224.733 109.039 218.917 103.208 217.734 102.288Z" fill="#E4D8FA"/>
<path d="M207.868 99.4557C212.781 99.4557 216.764 95.6705 216.764 91.0013C216.764 86.332 212.781 82.5469 207.868 82.5469C202.955 82.5469 198.973 86.332 198.973 91.0013C198.973 95.6705 202.955 99.4557 207.868 99.4557Z" fill="#E4D8FA"/>
<path d="M125.321 122.155C124.556 122.175 123.82 122.436 123.229 122.896C121.93 123.907 115.546 130.307 117.391 157.14C117.451 158.013 117.873 158.828 118.565 159.405C119.257 159.982 120.162 160.274 121.081 160.218C121.746 160.177 122.385 159.953 122.919 159.575L125.282 194.232C125.474 197.042 128.027 199.172 130.983 198.99C132.113 198.921 133.19 198.512 134.059 197.823C134.928 198.512 136.005 198.921 137.134 198.99C140.09 199.172 142.643 197.043 142.835 194.232L145.198 159.575C145.796 159.998 146.521 160.226 147.266 160.225C148.147 160.224 148.995 159.905 149.638 159.332C150.28 158.759 150.67 157.976 150.727 157.14C152.572 130.307 146.188 123.907 144.889 122.896C144.297 122.436 143.561 122.175 142.797 122.155C142.679 122.143 142.56 122.137 142.442 122.137H125.675C125.556 122.137 125.437 122.143 125.321 122.155Z" fill="#E4D8FA"/>
<path d="M140.943 117.072C144.756 113.448 144.756 107.572 140.943 103.948C137.13 100.324 130.948 100.324 127.135 103.948C123.322 107.572 123.322 113.448 127.135 117.072C130.948 120.696 137.13 120.696 140.943 117.072Z" fill="#E4D8FA"/>
</svg>
