<svg width="48" height="48" viewBox="0 0 48 48" fill="none" xmlns="http://www.w3.org/2000/svg">
<path d="M45 10.4395V14.9545H3V10.4395C3 7.96445 5.025 5.93945 7.5 5.93945H12.75V10.3795C12.75 11.2045 13.425 11.8795 14.25 11.8795C15.075 11.8795 15.75 11.2045 15.75 10.3795V5.93945H32.25V10.3795C32.25 11.2045 32.925 11.8795 33.75 11.8795C34.575 11.8795 35.25 11.2045 35.25 10.3795V5.93945H40.5C42.975 5.93945 45 7.96445 45 10.4395ZM33 32.9695H44.085L31.5 44.1895V34.4695C31.5 33.6445 32.175 32.9695 33 32.9695Z" fill="#E4D8FA"/>
<path d="M45 17.955V29.97H33C30.525 29.97 28.5 31.995 28.5 34.47V45H7.5C5.025 45 3 42.975 3 40.5V17.955H45ZM15.75 4.5V5.94H12.75V4.5C12.75 3.675 13.425 3 14.25 3C15.075 3 15.75 3.675 15.75 4.5ZM35.25 4.5V5.94H32.25V4.5C32.25 3.675 32.925 3 33.75 3C34.575 3 35.25 3.675 35.25 4.5Z" fill="#E4D8FA"/>
</svg>
