<svg width="48" height="48" viewBox="0 0 48 48" fill="none" xmlns="http://www.w3.org/2000/svg">
<path d="M29.5935 30.8573L28.8035 4.10437L23.8655 0L18.9275 4.10447L18.1374 30.8574C21.9357 31.4154 25.7952 31.4154 29.5935 30.8573ZM0 42.6724H48V47.8942H0V42.6724Z" fill="#E4D8FA"/>
<path d="M13.1368 35.5156C14.7281 35.9319 16.3421 36.2557 17.9708 36.4854L17.8713 39.8581H29.859L29.7594 36.4854C31.3881 36.2557 33.0022 35.9319 34.5935 35.5156V39.8581H37.406V29.4922H34.5935V32.7031C31.0658 33.6255 27.4656 34.0885 23.8651 34.0885C20.2646 34.0885 16.6644 33.6255 13.1367 32.7031V29.4922H10.3242V39.8581H13.1367L13.1368 35.5156Z" fill="#E4D8FA"/>
</svg>
