<svg width="20" height="20" viewBox="0 0 20 20" fill="none" xmlns="http://www.w3.org/2000/svg">
<path d="M10 4C6.17879 4 2.71351 6.10432 0.15649 9.52231C-0.0521632 9.80233 -0.0521632 10.1935 0.15649 10.4736C2.71351 13.8957 6.17879 16 10 16C13.8212 16 17.2865 13.8957 19.8435 10.4777C20.0522 10.1977 20.0522 9.80645 19.8435 9.52642C17.2865 6.10432 13.8212 4 10 4ZM10.2741 14.2251C7.73755 14.3857 5.64284 12.2814 5.80239 9.72409C5.93331 7.61565 7.63118 5.90666 9.72589 5.77488C12.2625 5.61428 14.3572 7.7186 14.1976 10.2759C14.0626 12.3802 12.3647 14.0892 10.2741 14.2251ZM10.1473 12.2732C8.78081 12.3596 7.65163 11.2272 7.74164 9.85175C7.81119 8.71517 8.72763 7.79684 9.85681 7.72272C11.2233 7.63624 12.3525 8.7687 12.2625 10.1441C12.1888 11.2848 11.2724 12.2032 10.1473 12.2732Z" fill="#DBDBDB"/>
</svg>
